SplineFontDB: 3.0
FontName: StardosStencil-Regular
FullName: Stardos Stencil Regular
FamilyName: Stardos Stencil
Weight: Regular
Copyright: Copyright (c) 2011 by vernon adams. All rights reserved.
Version: 1.000
ItalicAngle: 0
UnderlinePosition: -103
UnderlineWidth: 102
Ascent: 1638
Descent: 410
sfntRevision: 0x00010000
LayerCount: 2
Layer: 0 1 "Back"  1
Layer: 1 1 "Fore"  0
XUID: [1021 288 713564382 7967920]
FSType: 0
OS2Version: 2
OS2_WeightWidthSlopeOnly: 0
OS2_UseTypoMetrics: 1
CreationTime: 1309477920
ModificationTime: 1309525869
PfmFamily: 17
TTFWeight: 400
TTFWidth: 5
LineGap: 0
VLineGap: 0
Panose: 2 0 5 6 7 0 0 2 0 3
OS2TypoAscent: 1994
OS2TypoAOffset: 0
OS2TypoDescent: -831
OS2TypoDOffset: 0
OS2TypoLinegap: 0
OS2WinAscent: 1994
OS2WinAOffset: 0
OS2WinDescent: 831
OS2WinDOffset: 0
HheadAscent: 1994
HheadAOffset: 0
HheadDescent: -831
HheadDOffset: 0
OS2SubXSize: 1331
OS2SubYSize: 1229
OS2SubXOff: 0
OS2SubYOff: 154
OS2SupXSize: 1331
OS2SupYSize: 1229
OS2SupXOff: 0
OS2SupYOff: 717
OS2StrikeYSize: 102
OS2StrikeYPos: 512
OS2Vendor: 'newt'
OS2CodePages: 20000001.00000000
OS2UnicodeRanges: 800000af.4000204a.00000000.00000000
Lookup: 258 0 0 "'kern' Horizontal Kerning in Latin lookup 0"  {"'kern' Horizontal Kerning in Latin lookup 0 per glyph data 0"  "'kern' Horizontal Kerning in Latin lookup 0 per glyph data 1"  "'kern' Horizontal Kerning in Latin lookup 0 kerning class 2"  } ['kern' ('latn' <'dflt' > ) ]
MarkAttachClasses: 1
DEI: 91125
KernClass2: 2+ 3 "'kern' Horizontal Kerning in Latin lookup 0 kerning class 2" 
 50 A Agrave Aacute Acircumflex Atilde Adieresis Aring
 8 L Lslash
 18 Y Yacute Ydieresis
 18 y yacute ydieresis
 0 {} -88 {} -43 {} 0 {} -131 {} -43 {}
TtTable: prep
PUSHW_2
 2048
 2048
MUL
DUP
PUSHB_1
 10
SWAP
WS
DUP
PUSHB_1
 0
SWAP
WCVTF
PUSHB_1
 14
RCVT
DUP
DUP
PUSHB_1
 40
ADD
FLOOR
DUP
ROLL
NEQ
IF
PUSHB_1
 10
RS
MUL
SWAP
DIV
PUSHB_1
 9
SWAP
WS
PUSHB_4
 5
 4
 3
 2
CALL
PUSHB_4
 5
 10
 3
 2
CALL
PUSHB_4
 11
 16
 3
 2
CALL
ELSE
PUSHB_2
 9
 10
RS
WS

StartChar: exclam
Encoding: 33 33 4
Width: 593
GlyphClass: 2
Flags: MW
LayerCount: 2
Fore
SplineSet
247 397 m 1,0,1
 237.287769784 552.395683453 237.287769784 552.395683453 215.143884892 744.697841727 c 128,-1,2
 193 937 193 937 185.5 1015.5 c 0,3,4
 168 1198.66666667 168 1198.66666667 168 1269.33333333 c 128,-1,5
 168 1340 168 1340 177 1370.5 c 128,-1,6
 186 1401 186 1401 202.5 1419 c 0,7,8
 232.75 1452 232.75 1452 297 1452 c 256,9,10
 361.25 1452 361.25 1452 384.625 1426.5 c 0,11,12
 425 1382.45454545 425 1382.45454545 425 1309.22727273 c 128,-1,13
 425 1236 425 1236 420 1164.5 c 128,-1,14
 415 1093 415 1093 407 1014.5 c 128,-1,15
 399 936 399 936 389.5 854 c 128,-1,16
 380 772 380 772 371 691.5 c 0,17,18
 348.278026906 488.264573991 348.278026906 488.264573991 344 397 c 1,19,-1
 247 397 l 1,0,1
376.5 211.5 m 0,20,21
 427 161 427 161 427 121 c 128,-1,22
 427 81 427 81 417 57.5 c 128,-1,23
 407 34 407 34 389 16.5 c 0,24,25
 351.457142857 -20 351.457142857 -20 309.228571429 -20 c 128,-1,26
 267 -20 267 -20 242.5 -10.5 c 128,-1,27
 218 -1 218 -1 200.5 16 c 0,28,29
 163 52.4285714286 163 52.4285714286 163 109.214285714 c 128,-1,30
 163 166 163 166 200 203 c 128,-1,31
 237 240 237 240 292.5 240 c 128,-1,32
 348 240 348 240 376.5 211.5 c 0,20,21
EndSplineSet
EndChar

StartChar: quotedbl
Encoding: 34 34 5
Width: 790
GlyphClass: 2
Flags: MW
LayerCount: 2
Fore
SplineSet
55 1348 m 0,0,1
 55 1452 55 1452 143.5 1452 c 128,-1,2
 232 1452 232 1452 232 1348 c 0,3,4
 232 1323 232 1323 228.5 1292 c 128,-1,5
 225 1261 225 1261 221 1223 c 2,6,-1
 191 911 l 1,7,8
 183.64516129 854 183.64516129 854 144 854 c 256,9,10
 103.516129032 854 103.516129032 854 98 911 c 2,11,-1
 66 1223 l 1,12,13
 55 1306.6 55 1306.6 55 1348 c 0,0,1
417 1452 m 128,-1,15
 505 1452 505 1452 505 1348 c 0,16,17
 505 1323 505 1323 501.5 1292 c 128,-1,18
 498 1261 498 1261 494 1223 c 2,19,-1
 462 911 l 2,20,21
 456.483870968 854 456.483870968 854 417 854 c 0,22,23
 376.35483871 854 376.35483871 854 369 911 c 1,24,-1
 339 1223 l 2,25,26
 329 1318 329 1318 329 1348 c 0,27,14
 329 1452 329 1452 417 1452 c 128,-1,15
EndSplineSet
EndChar

StartChar: numbersign
Encoding: 35 35 6
Width: 1053
GlyphClass: 2
Flags: MW
LayerCount: 2
Fore
SplineSet
956 442 m 1,0,-1
 752 442 l 1,1,-1
 686 0 l 1,2,-1
 550 0 l 1,3,-1
 616 442 l 1,4,-1
 378 442 l 1,5,-1
 313 0 l 1,6,-1
 176 0 l 1,7,-1
 242 442 l 1,8,-1
 36 442 l 1,9,-1
 36 563 l 1,10,-1
 259 563 l 1,11,-1
 303 858 l 1,12,-1
 97 858 l 1,13,-1
 97 979 l 1,14,-1
 318 979 l 1,15,-1
 385 1421 l 1,16,-1
 520 1421 l 1,17,-1
 456 979 l 1,18,-1
 693 979 l 1,19,-1
 757 1421 l 1,20,-1
 895 1421 l 1,21,-1
 829 979 l 1,22,-1
 1019 979 l 1,23,-1
 1019 858 l 1,24,-1
 814 858 l 1,25,-1
 770 563 l 1,26,-1
 956 563 l 1,27,-1
 956 442 l 1,0,-1
439 858 m 1,28,-1
 394 563 l 1,29,-1
 632 563 l 1,30,-1
 677 858 l 1,31,-1
 439 858 l 1,28,-1
EndSplineSet
EndChar

StartChar: dollar
Encoding: 36 36 7
Width: 1054
GlyphClass: 2
Flags: MW
LayerCount: 2
Fore
SplineSet
425 1309 m 1,0,1
 326 1246.36734694 326 1246.36734694 326 1116 c 0,2,3
 326 999.567164179 326 999.567164179 436.5 927 c 0,4,5
 470 905 470 905 508 887 c 1,6,-1
 508 1571 l 1,7,-1
 610 1571 l 1,8,-1
 610 844 l 1,9,10
 814.303191489 756.441489362 814.303191489 756.441489362 896.5 677.5 c 0,11,12
 1000 578.099009901 1000 578.099009901 1000 424 c 0,13,14
 1000 296 1000 296 914.5 182 c 0,15,16
 826.79245283 65.0566037736 826.79245283 65.0566037736 694 26 c 1,17,-1
 694 117 l 1,18,19
 759 150 759 150 790.5 211 c 128,-1,20
 822 272 822 272 822 331 c 128,-1,21
 822 390 822 390 805.5 428.5 c 128,-1,22
 789 467 789 467 760 498.5 c 0,23,24
 707.253101737 555.794044665 707.253101737 555.794044665 610 600 c 1,25,-1
 610 -164 l 1,26,-1
 508 -164 l 1,27,-1
 508 645 l 1,28,29
 230.634538153 765.096385542 230.634538153 765.096385542 177 926 c 0,30,31
 159 980 159 980 159 1041.5 c 128,-1,32
 159 1103 159 1103 178 1158 c 128,-1,33
 197 1213 197 1213 232 1258.5 c 0,34,35
 303.087751371 1350.91407678 303.087751371 1350.91407678 424 1396 c 1,36,-1
 425 1309 l 1,0,1
310 317 m 1,37,38
 265.8 267.6 265.8 267.6 261 240 c 1,39,40
 272.262927895 163.975236708 272.262927895 163.975236708 366.5 116 c 0,41,42
 394 102 394 102 424 94 c 1,43,-1
 424 15 l 1,44,45
 287.788010426 37.3631624674 287.788010426 37.3631624674 197.5 123.5 c 0,46,47
 104 212.701149425 104 212.701149425 104 336 c 0,48,49
 104 452.32 104 452.32 187 490.5 c 0,50,51
 212 502 212 502 254 502 c 128,-1,52
 296 502 296 502 328 473 c 128,-1,53
 360 444 360 444 360 380.5 c 128,-1,54
 360 317 360 317 310 317 c 1,37,38
772 1255 m 1,55,56
 758.838587642 1311.40605296 758.838587642 1311.40605296 694 1336 c 1,57,-1
 694 1412 l 1,58,59
 804.401574803 1390.31397638 804.401574803 1390.31397638 873 1318.5 c 0,60,61
 940 1248.359375 940 1248.359375 940 1163 c 0,62,63
 940 1024 940 1024 814 1024 c 0,64,65
 760 1024 760 1024 729 1054 c 128,-1,66
 698 1084 698 1084 698 1122.5 c 128,-1,67
 698 1161 698 1161 711.5 1176.5 c 128,-1,68
 725 1192 725 1192 741 1192 c 1,69,70
 763.272727273 1214.27272727 763.272727273 1214.27272727 772 1255 c 1,55,56
EndSplineSet
EndChar

StartChar: percent
Encoding: 37 37 8
Width: 1496
GlyphClass: 2
Flags: MW
LayerCount: 2
Fore
SplineSet
1148 29 m 1,0,1
 1244 70.1428571429 1244 70.1428571429 1244 359.5 c 128,-1,2
 1244 648.857142857 1244 648.857142857 1148 690 c 1,3,-1
 1148 748 l 1,4,5
 1260.50764656 731.33220051 1260.50764656 731.33220051 1334.5 632 c 0,6,7
 1414 525.273972603 1414 525.273972603 1414 360 c 0,8,9
 1414 195.125 1414 195.125 1335 86.5 c 0,10,11
 1262.52416357 -13.1542750929 1262.52416357 -13.1542750929 1148 -28 c 1,12,-1
 1148 29 l 1,0,1
1065 690 m 1,13,14
 973 650.571428571 973 650.571428571 973 359.5 c 128,-1,15
 973 68.4285714286 973 68.4285714286 1065 29 c 1,16,-1
 1065 -28 l 1,17,18
 953.038167939 -11.4130619169 953.038167939 -11.4130619169 880 88 c 0,19,20
 802 194.166666667 802 194.166666667 802 360 c 0,21,22
 802 526.833333333 802 526.833333333 880 633 c 0,23,24
 952.213740458 731.290924512 952.213740458 731.290924512 1065 748 c 1,25,-1
 1065 690 l 1,13,14
176 -31 m 1,26,-1
 1211 1452 l 1,27,-1
 1330 1452 l 1,28,-1
 295 -31 l 1,29,-1
 176 -31 l 1,26,-1
441 730 m 1,30,31
 537 771.142857143 537 771.142857143 537 1060.5 c 128,-1,32
 537 1349.85714286 537 1349.85714286 441 1391 c 1,33,-1
 441 1449 l 1,34,35
 553.507646559 1432.33220051 553.507646559 1432.33220051 627.5 1333 c 0,36,37
 707 1226.2739726 707 1226.2739726 707 1061 c 0,38,39
 707 896.125 707 896.125 628 787.5 c 0,40,41
 555.524163569 687.845724907 555.524163569 687.845724907 441 673 c 1,42,-1
 441 730 l 1,30,31
358 1391 m 1,43,44
 266 1351.57142857 266 1351.57142857 266 1060.5 c 128,-1,45
 266 769.428571429 266 769.428571429 358 730 c 1,46,-1
 358 673 l 1,47,48
 246.038167939 689.586938083 246.038167939 689.586938083 173 789 c 0,49,50
 95 895.166666667 95 895.166666667 95 1061 c 0,51,52
 95 1227.83333333 95 1227.83333333 173 1334 c 0,53,54
 245.213740458 1432.29092451 245.213740458 1432.29092451 358 1449 c 1,55,-1
 358 1391 l 1,43,44
EndSplineSet
EndChar

StartChar: ampersand
Encoding: 38 38 9
Width: 1539
GlyphClass: 2
Flags: MW
LayerCount: 2
Fore
SplineSet
633 879 m 1,0,1
 805 992.028571429 805 992.028571429 805 1159 c 0,2,3
 805 1242 805 1242 773 1299 c 128,-1,4
 741 1356 741 1356 677 1371 c 1,5,-1
 677 1451 l 1,6,7
 812.728813559 1441.30508475 812.728813559 1441.30508475 898 1361.5 c 0,8,9
 979 1285.69230769 979 1285.69230769 979 1198.84615385 c 128,-1,10
 979 1112 979 1112 953 1054.5 c 128,-1,11
 927 997 927 997 885 950.5 c 0,12,13
 813.238202247 871.049438202 813.238202247 871.049438202 682 803 c 1,14,-1
 633 879 l 1,0,1
368 653 m 1,15,16
 292 577 292 577 292 434 c 0,17,18
 292 305.653846154 292 305.653846154 376 205.5 c 0,19,20
 458.344099379 107.320496894 458.344099379 107.320496894 584 83 c 1,21,-1
 584 -31 l 1,22,-1
 569 -31 l 2,23,24
 355.047169811 -31 355.047169811 -31 217.5 77 c 0,25,26
 73 190.459259259 73 190.459259259 73 383 c 0,27,28
 73 550.659090909 73 550.659090909 218 666 c 0,29,30
 262 701 262 701 314 733 c 1,31,-1
 368 653 l 1,15,16
1219 -25 m 0,32,33
 1056.875 -25 1056.875 -25 932 86 c 1,34,35
 814.402489627 -5.46473029046 814.402489627 -5.46473029046 667 -25 c 1,36,-1
 667 77 l 1,37,38
 785.140930546 86.3762643291 785.140930546 86.3762643291 861 150 c 1,39,40
 721.388124263 279.193079041 721.388124263 279.193079041 635.694062131 385.59653952 c 0,41,42
 254 859.533333333 254 859.533333333 254 1098 c 0,43,44
 254 1241.86666667 254 1241.86666667 350 1340 c 0,45,46
 441.478318003 1433.51116951 441.478318003 1433.51116951 594 1450 c 1,47,-1
 594 1373 l 1,48,49
 481 1354.16666667 481 1354.16666667 481 1206 c 0,50,51
 481 1036.23529412 481 1036.23529412 582 858 c 1,52,53
 735.536931818 619.164772727 735.536931818 619.164772727 939.5 398 c 0,54,55
 981 353 981 353 1018 319 c 1,56,57
 1069.02643172 398.374449339 1069.02643172 398.374449339 1087 517 c 0,58,59
 1092 550 1092 550 1092 585.5 c 128,-1,60
 1092 621 1092 621 1075.5 643.5 c 128,-1,61
 1059 666 1059 666 1035 676.5 c 128,-1,62
 1011 687 1011 687 984 692 c 128,-1,63
 957 697 957 697 937 709 c 1,64,-1
 937 774 l 1,65,-1
 1441 774 l 1,66,-1
 1441 711 l 1,67,68
 1414 703 1414 703 1387.5 697.5 c 128,-1,69
 1361 692 1361 692 1336 682 c 0,70,71
 1279.2231405 659.289256198 1279.2231405 659.289256198 1250 606 c 1,72,73
 1233 567 1233 567 1216.5 523 c 128,-1,74
 1200 479 1200 479 1181 433.5 c 0,75,76
 1134.55382087 322.273623665 1134.55382087 322.273623665 1081 246 c 1,77,78
 1152.33576642 164.824817518 1152.33576642 164.824817518 1181.16788321 142.912408759 c 0,79,80
 1237.63157895 100 1237.63157895 100 1289.81578947 100 c 0,81,82
 1395.94117647 100 1395.94117647 100 1421 242 c 1,83,-1
 1493 213 l 1,84,85
 1457.61349693 46.6834355828 1457.61349693 46.6834355828 1330.5 -5.5 c 0,86,87
 1283 -25 1283 -25 1219 -25 c 0,32,33
EndSplineSet
EndChar

StartChar: quotesingle
Encoding: 39 39 10
Width: 528
GlyphClass: 2
Flags: MW
LayerCount: 2
Fore
SplineSet
176 1348 m 0,0,1
 176 1452 176 1452 263.5 1452 c 128,-1,2
 351 1452 351 1452 351 1348 c 0,3,4
 351 1318 351 1318 341 1223 c 2,5,-1
 308 911 l 2,6,7
 302.483870968 854 302.483870968 854 264 854 c 0,8,9
 221.516129032 854 221.516129032 854 216 911 c 2,10,-1
 186 1223 l 2,11,12
 176 1318 176 1318 176 1348 c 0,0,1
EndSplineSet
EndChar

StartChar: parenleft
Encoding: 40 40 11
Width: 924
GlyphClass: 2
Flags: MW
LayerCount: 2
Fore
SplineSet
864 -408 m 1,0,1
 562.459784515 -384.349787021 562.459784515 -384.349787021 370.5 -121 c 0,2,3
 181 138.975206612 181 138.975206612 181 535 c 0,4,5
 181 905.655737705 181 905.655737705 372 1176.5 c 0,6,7
 496.165810579 1352.57119041 496.165810579 1352.57119041 680 1431.5 c 0,8,9
 772 1471 772 1471 877 1479 c 1,10,-1
 877 1397 l 1,11,12
 683.091639871 1376.94051447 683.091639871 1376.94051447 554 1179 c 0,13,14
 406 952.066666667 406 952.066666667 406 535 c 0,15,16
 406 -19.5841584158 406 -19.5841584158 647.5 -230 c 0,17,18
 742.464808692 -312.741615494 742.464808692 -312.741615494 864 -326 c 1,19,-1
 864 -408 l 1,0,1
EndSplineSet
EndChar

StartChar: parenright
Encoding: 41 41 12
Width: 924
GlyphClass: 2
Flags: MW
LayerCount: 2
Fore
SplineSet
59 1479 m 1,0,1
 211 1467 211 1467 337 1391.5 c 128,-1,2
 463 1316 463 1316 553 1191 c 0,3,4
 743 927.111111111 743 927.111111111 743 535 c 0,5,6
 743 164.344262295 743 164.344262295 552 -106.5 c 0,7,8
 428.628202262 -281.445254169 428.628202262 -281.445254169 243.5 -360.5 c 0,9,10
 151 -400 151 -400 47 -408 c 1,11,-1
 47 -326 l 1,12,13
 242.765524625 -305.748394004 242.765524625 -305.748394004 369.5 -108.5 c 0,14,15
 517 121.067669173 517 121.067669173 517 535 c 0,16,17
 517 964.761538462 517 964.761538462 371 1190.5 c 0,18,19
 250.901050732 1376.19145233 250.901050732 1376.19145233 59 1397 c 1,20,-1
 59 1479 l 1,0,1
EndSplineSet
EndChar

StartChar: asterisk
Encoding: 42 42 13
Width: 921
GlyphClass: 2
Flags: MW
LayerCount: 2
Fore
SplineSet
892 1237 m 1,0,-1
 540 1055 l 1,1,-1
 892 870 l 1,2,-1
 824 752 l 1,3,-1
 510 969 l 1,4,-1
 522 588 l 1,5,-1
 400 588 l 1,6,-1
 411 969 l 1,7,-1
 98 752 l 1,8,-1
 30 870 l 1,9,-1
 382 1053 l 1,10,-1
 30 1237 l 1,11,-1
 98 1356 l 1,12,-1
 411 1139 l 1,13,-1
 400 1520 l 1,14,-1
 522 1520 l 1,15,-1
 510 1139 l 1,16,-1
 824 1356 l 1,17,-1
 892 1237 l 1,0,-1
EndSplineSet
EndChar

StartChar: plus
Encoding: 43 43 14
Width: 1425
GlyphClass: 2
Flags: MW
LayerCount: 2
Fore
SplineSet
632 981 m 1,0,-1
 791 981 l 1,1,-1
 791 559 l 1,2,-1
 1280 559 l 1,3,-1
 1280 422 l 1,4,-1
 791 422 l 1,5,-1
 791 0 l 1,6,-1
 632 0 l 1,7,-1
 632 422 l 1,8,-1
 143 422 l 1,9,-1
 143 559 l 1,10,-1
 632 559 l 1,11,-1
 632 981 l 1,0,-1
EndSplineSet
EndChar

StartChar: comma
Encoding: 44 44 15
Width: 528
GlyphClass: 2
Flags: MW
LayerCount: 2
Fore
SplineSet
147 -338 m 1,0,1
 188 -291 188 -291 217 -240 c 128,-1,2
 246 -189 246 -189 246 -143.5 c 0,3,4
 246 -66.7692307692 246 -66.7692307692 222 -4 c 1,5,6
 183 7 183 7 156 37 c 128,-1,7
 129 67 129 67 129 122 c 128,-1,8
 129 177 129 177 163.5 212.5 c 128,-1,9
 198 248 198 248 245 248 c 128,-1,10
 292 248 292 248 320.5 236.5 c 128,-1,11
 349 225 349 225 370.5 199.5 c 0,12,13
 417 144.348837209 417 144.348837209 417 37.6744186047 c 0,14,15
 417 -181.935483871 417 -181.935483871 230 -381 c 1,16,-1
 147 -338 l 1,0,1
EndSplineSet
EndChar

StartChar: hyphen
Encoding: 45 45 16
Width: 637
GlyphClass: 2
Flags: MW
LayerCount: 2
Fore
SplineSet
560 557 m 1,0,-1
 560 424 l 1,1,-1
 77 424 l 1,2,-1
 77 557 l 1,3,-1
 560 557 l 1,0,-1
EndSplineSet
EndChar

StartChar: period
Encoding: 46 46 17
Width: 528
GlyphClass: 2
Flags: MW
LayerCount: 2
Fore
SplineSet
210 237.5 m 0,0,1
 235 248 235 248 263.5 248 c 128,-1,2
 292 248 292 248 317 237.5 c 128,-1,3
 342 227 342 227 360 209 c 0,4,5
 399 170 399 170 399 113 c 256,6,7
 399 22.8 399 22.8 317 -10 c 0,8,9
 292 -20 292 -20 263.5 -20 c 128,-1,10
 235 -20 235 -20 210 -10 c 128,-1,11
 185 0 185 0 166.5 17.5 c 0,12,13
 127 54.8648648649 127 54.8648648649 127 113 c 256,14,15
 127 202.64 127 202.64 210 237.5 c 0,0,1
EndSplineSet
EndChar

StartChar: slash
Encoding: 47 47 18
Width: 594
GlyphClass: 2
Flags: MW
LayerCount: 2
Fore
SplineSet
-113 -31 m 1,0,-1
 537 1452 l 1,1,-1
 705 1452 l 1,2,-1
 55 -31 l 1,3,-1
 -113 -31 l 1,0,-1
EndSplineSet
EndChar

StartChar: zero
Encoding: 48 48 19
Width: 1054
GlyphClass: 2
Flags: MW
LayerCount: 2
Fore
SplineSet
485 -28 m 1,0,1
 313.638830268 -6.30871269219 313.638830268 -6.30871269219 205.5 171 c 0,2,3
 84 370.216216216 84 370.216216216 84 711 c 256,4,5
 84 1050.78378378 84 1050.78378378 205.5 1250 c 0,6,7
 313.638830268 1427.30871269 313.638830268 1427.30871269 485 1449 c 1,8,-1
 485 1372 l 1,9,10
 400.698060942 1352.54570637 400.698060942 1352.54570637 362 1221.5 c 0,11,12
 316 1065.72727273 316 1065.72727273 316 711 c 0,13,14
 316 201.580645161 316 201.580645161 415 93 c 0,15,16
 446 59 446 59 485 50 c 1,17,-1
 485 -28 l 1,0,1
568 49 m 1,18,19
 651.328060264 66.5427495292 651.328060264 66.5427495292 690 197.5 c 0,20,21
 736 353.272727273 736 353.272727273 736 711 c 0,22,23
 736 1218.32258065 736 1218.32258065 636 1328 c 0,24,25
 605 1362 605 1362 568 1371 c 1,26,-1
 568 1450 l 1,27,28
 739.121962403 1428.06128687 739.121962403 1428.06128687 846.5 1252 c 0,29,30
 969 1051.14414414 969 1051.14414414 969 711 c 256,31,32
 969 370.855855856 969 370.855855856 846.5 170 c 0,33,34
 739.121962403 -6.06128687147 739.121962403 -6.06128687147 568 -28 c 1,35,-1
 568 49 l 1,18,19
EndSplineSet
EndChar

StartChar: one
Encoding: 49 49 20
Width: 1054
GlyphClass: 2
Flags: MW
LayerCount: 2
Fore
SplineSet
428 1382 m 1,0,1
 497 1413 497 1413 553 1452 c 1,2,-1
 653 1452 l 1,3,-1
 653 270 l 2,4,5
 653 202.25 653 202.25 659 167.125 c 128,-1,6
 665 132 665 132 687.5 117.5 c 128,-1,7
 710 103 710 103 740.5 95 c 128,-1,8
 771 87 771 87 805 81 c 128,-1,9
 839 75 839 75 867 61 c 1,10,-1
 867 0 l 1,11,-1
 210 0 l 1,12,-1
 210 61 l 1,13,14
 239 75 239 75 273.5 81 c 128,-1,15
 308 87 308 87 339 95 c 0,16,17
 411.971910112 113.831460674 411.971910112 113.831460674 420 162 c 0,18,19
 428 208 428 208 428 270 c 2,20,-1
 428 1382 l 1,0,1
345 1232 m 1,21,22
 308.083798883 1248.91992551 308.083798883 1248.91992551 202 1251 c 1,23,-1
 202 1312 l 1,24,25
 284 1329 284 1329 345 1354 c 1,26,-1
 345 1232 l 1,21,22
EndSplineSet
EndChar

StartChar: two
Encoding: 50 50 21
Width: 1054
GlyphClass: 2
Flags: MW
LayerCount: 2
Fore
SplineSet
419 1373 m 1,0,1
 329.344827586 1367.02298851 329.344827586 1367.02298851 271 1313 c 0,2,3
 214 1260.22222222 214 1260.22222222 214 1194 c 1,4,5
 231 1179 231 1179 253.5 1166 c 128,-1,6
 276 1153 276 1153 296.5 1137.5 c 0,7,8
 345 1100.82926829 345 1100.82926829 345 1050 c 256,9,10
 345 966.785714286 345 966.785714286 273 944.5 c 0,11,12
 252 938 252 938 229 938 c 0,13,14
 160 938 160 938 123 984 c 128,-1,15
 86 1030 86 1030 86 1103.5 c 128,-1,16
 86 1177 86 1177 108.5 1232.5 c 128,-1,17
 131 1288 131 1288 173.5 1333 c 0,18,19
 266.665090623 1431.64539007 266.665090623 1431.64539007 419 1449 c 1,20,-1
 419 1373 l 1,0,1
318 170 m 1,21,-1
 489 170 l 2,22,23
 685.4 170 685.4 170 751 252 c 0,24,25
 783.537313433 292.671641791 783.537313433 292.671641791 805.268656716 347.835820896 c 128,-1,26
 827 403 827 403 845 438 c 1,27,-1
 893 438 l 1,28,-1
 893 0 l 1,29,-1
 197 0 l 1,30,-1
 318 170 l 1,21,-1
106 0 m 1,31,-1
 52 0 l 1,32,-1
 72 189 l 1,33,34
 287.771186441 446.872881356 287.771186441 446.872881356 405.88559322 574.436440678 c 128,-1,35
 524 702 524 702 570 768 c 0,36,37
 670 911.47826087 670 911.47826087 670 1052.73913043 c 0,38,39
 670 1321.34177215 670 1321.34177215 502 1366 c 1,40,-1
 502 1452 l 1,41,42
 698.917989912 1446.26452457 698.917989912 1446.26452457 813.5 1329.5 c 0,43,44
 919 1221.99047619 919 1221.99047619 919 1065 c 0,45,46
 919 792.882352941 919 792.882352941 501.5 424.5 c 0,47,48
 442 372 442 372 389.5 326 c 0,49,50
 264.824156306 216.760213144 264.824156306 216.760213144 232 172 c 2,51,-1
 106 0 l 1,31,-1
EndSplineSet
EndChar

StartChar: three
Encoding: 51 51 22
Width: 1054
GlyphClass: 2
Flags: MW
LayerCount: 2
Fore
SplineSet
423 1379 m 1,0,1
 354 1373 354 1373 305.5 1336.5 c 128,-1,2
 257 1300 257 1300 247 1231 c 1,3,4
 296.984 1212.256 296.984 1212.256 315.992 1196.128 c 0,5,6
 358 1160.48484848 358 1160.48484848 358 1102.24242424 c 128,-1,7
 358 1044 358 1044 324.5 1010.5 c 128,-1,8
 291 977 291 977 232 977 c 128,-1,9
 173 977 173 977 135.5 1017.5 c 128,-1,10
 98 1058 98 1058 98 1130.5 c 128,-1,11
 98 1203 98 1203 122 1254.5 c 128,-1,12
 146 1306 146 1306 189.5 1346.5 c 0,13,14
 282.601186944 1433.18041543 282.601186944 1433.18041543 423 1449 c 1,15,-1
 423 1379 l 1,0,1
69 262 m 0,16,17
 69 454 69 454 231 454 c 0,18,19
 280.41025641 454 280.41025641 454 313.5 409.5 c 0,20,21
 344 368.482758621 344 368.482758621 344 329.24137931 c 128,-1,22
 344 290 344 290 334 268.5 c 128,-1,23
 324 247 324 247 307 232 c 0,24,25
 278.263598326 206.644351464 278.263598326 206.644351464 220 188 c 1,26,27
 222.066753927 128.064136126 222.066753927 128.064136126 279 88 c 0,28,29
 337.33868974 46.9468479604 337.33868974 46.9468479604 423 45 c 1,30,-1
 423 -30 l 1,31,32
 256.985645933 -22.1875598086 256.985645933 -22.1875598086 161 61 c 0,33,34
 69 140.733333333 69 140.733333333 69 262 c 0,16,17
591 762 m 1,35,36
 938 701.275 938 701.275 938 397 c 0,37,38
 938 225.539823009 938 225.539823009 820.5 107 c 0,39,40
 699.236303001 -15.3368270605 699.236303001 -15.3368270605 506 -29 c 1,41,-1
 506 53 l 1,42,43
 696 95.2222222222 696 95.2222222222 696 381 c 0,44,45
 696 559.03030303 696 559.03030303 622 642 c 0,46,47
 562.243243243 709 562.243243243 709 462 709 c 1,48,-1
 416 708 l 2,49,50
 402 707 402 707 388 707 c 0,51,52
 331 707 331 707 331 750 c 128,-1,53
 331 793 331 793 388 793 c 1,54,55
 470.210526316 796.736842105 470.210526316 796.736842105 496.105263158 804.868421053 c 128,-1,56
 522 813 522 813 552 827.5 c 128,-1,57
 582 842 582 842 608.5 873.5 c 0,58,59
 670 946.603773585 670 946.603773585 670 1080.30188679 c 0,60,61
 670 1332 670 1332 506 1373 c 1,62,-1
 506 1451 l 1,63,64
 684.769958241 1443.14197986 684.769958241 1443.14197986 794.5 1343 c 0,65,66
 902 1244.89320388 902 1244.89320388 902 1100 c 0,67,68
 902 828.591194969 902 828.591194969 591 766 c 1,69,-1
 591 762 l 1,35,36
EndSplineSet
EndChar

StartChar: four
Encoding: 52 52 23
Width: 1054
GlyphClass: 2
Flags: MW
LayerCount: 2
Fore
SplineSet
794 211 m 2,0,1
 794 120.285714286 794 120.285714286 831.5 101 c 0,2,3
 849 92 849 92 873.5 87 c 128,-1,4
 898 82 898 82 927 63 c 1,5,-1
 927 0 l 1,6,-1
 400 0 l 1,7,-1
 400 57 l 1,8,9
 428.724279835 81.4156378601 428.724279835 81.4156378601 463.362139918 88.70781893 c 128,-1,10
 498 96 498 96 514 100.5 c 128,-1,11
 530 105 530 105 542 117.5 c 0,12,13
 568 144.583333333 568 144.583333333 568 219 c 2,14,-1
 568 1315 l 1,15,-1
 658 1452 l 1,16,-1
 794 1452 l 1,17,-1
 794 211 l 2,0,1
486 1017 m 1,18,19
 401 883 401 883 317 752 c 128,-1,20
 233 621 233 621 149 487 c 1,21,-1
 485 487 l 1,22,-1
 485 381 l 1,23,-1
 32 381 l 1,24,-1
 32 492 l 1,25,-1
 485 1187 l 1,26,-1
 486 1017 l 1,18,19
878 486 m 1,27,-1
 987 486 l 1,28,-1
 987 380 l 1,29,-1
 878 380 l 1,30,-1
 878 486 l 1,27,-1
EndSplineSet
EndChar

StartChar: five
Encoding: 53 53 24
Width: 1054
GlyphClass: 2
Flags: MW
LayerCount: 2
Fore
SplineSet
420 -31 m 1,0,1
 261.295588235 -25.1220588235 261.295588235 -25.1220588235 160.5 60.5 c 0,2,3
 64 142.47311828 64 142.47311828 64 247.73655914 c 0,4,5
 64 434 64 434 211 434 c 0,6,7
 265 434 265 434 299 402 c 128,-1,8
 333 370 333 370 333 327 c 128,-1,9
 333 284 333 284 322 264.5 c 128,-1,10
 311 245 311 245 294 232 c 0,11,12
 273.1484375 216.0546875 273.1484375 216.0546875 216 195 c 1,13,14
 217.968625214 132.003993155 217.968625214 132.003993155 279 89.5 c 128,-1,15
 340.026595745 46.9993351064 340.026595745 46.9993351064 420 45 c 1,16,-1
 420 -31 l 1,0,1
803 1253 m 128,-1,18
 764 1226 764 1226 707.625 1218.5 c 128,-1,19
 651.25 1211 651.25 1211 582.839285714 1211 c 128,-1,20
 514.428571429 1211 514.428571429 1211 285 1233 c 1,21,-1
 252 827 l 1,22,-1
 249 730 l 1,23,24
 239 720 239 720 232.5 707 c 128,-1,25
 226 694 226 694 219.5 683 c 0,26,27
 203.545454545 656 203.545454545 656 189 656 c 0,28,29
 141 656 141 656 141 723 c 0,30,31
 141 796 141 796 151 899 c 128,-1,32
 161 1002 161 1002 167.5 1071.5 c 0,33,34
 180.5 1210.5 180.5 1210.5 198 1438 c 1,35,36
 376.2 1411 376.2 1411 493.1 1411 c 0,37,38
 759 1411 759 1411 804 1433.5 c 0,39,40
 819 1441 819 1441 829.5 1448.5 c 0,41,42
 856.8 1468 856.8 1468 873.9 1468 c 128,-1,43
 891 1468 891 1468 897.5 1463 c 128,-1,44
 904 1458 904 1458 904 1438.5 c 128,-1,45
 904 1419 904 1419 895.5 1383.5 c 128,-1,46
 887 1348 887 1348 864.5 1314 c 128,-1,17
 842 1280 842 1280 803 1253 c 128,-1,18
335 872 m 1,47,48
 407.15 909 407.15 909 506.575 909 c 128,-1,49
 606 909 606 909 691 875 c 128,-1,50
 776 841 776 841 835.5 782 c 0,51,52
 959 659.537815126 959 659.537815126 959 473 c 0,53,54
 959 277.956521739 959 277.956521739 841.5 139 c 0,55,56
 716.555212964 -8.76079162484 716.555212964 -8.76079162484 503 -28 c 1,57,-1
 503 53 l 1,58,59
 710 90.26 710 90.26 710 451 c 0,60,61
 710 628 710 628 641 722.5 c 128,-1,62
 572 817 572 817 449 817 c 0,63,64
 391.25 817 391.25 817 335 790 c 1,65,-1
 335 872 l 1,47,48
EndSplineSet
EndChar

StartChar: six
Encoding: 54 54 25
Width: 1054
GlyphClass: 2
Flags: MW
LayerCount: 2
Fore
SplineSet
741 1309 m 1,0,1
 724.835946924 1371.63570567 724.835946924 1371.63570567 607 1376 c 1,2,-1
 606 1376 l 1,3,-1
 606 1452 l 1,4,5
 741.5 1452 741.5 1452 826 1387 c 0,6,7
 907 1324.69230769 907 1324.69230769 907 1241.84615385 c 128,-1,8
 907 1159 907 1159 872 1123 c 128,-1,9
 837 1087 837 1087 785 1087 c 128,-1,10
 733 1087 733 1087 700 1115.5 c 128,-1,11
 667 1144 667 1144 667 1204 c 0,12,13
 667 1256.38461538 667 1256.38461538 717 1291 c 0,14,15
 730 1300 730 1300 741 1309 c 1,0,1
523 1363 m 1,16,17
 332 1287.39583333 332 1287.39583333 332 772 c 2,18,-1
 332 505 l 2,19,20
 332 185 332 185 428 89 c 0,21,22
 460 57 460 57 502 46 c 1,23,-1
 502 -28 l 1,24,25
 307.754080522 -7.76605005441 307.754080522 -7.76605005441 202 159 c 0,26,27
 95 327.730769231 95 327.730769231 95 621 c 0,28,29
 95 999.871794872 95 999.871794872 222.5 1220 c 0,30,31
 334.341871038 1413.09451239 334.341871038 1413.09451239 523 1446 c 1,32,-1
 523 1363 l 1,16,17
553 803 m 256,33,34
 474.818181818 803 474.818181818 803 415 756 c 1,35,-1
 415 836 l 1,36,37
 497.68 889 497.68 889 576.84 889 c 128,-1,38
 656 889 656 889 722 864.5 c 128,-1,39
 788 840 788 840 844 787.5 c 0,40,41
 974 665.625 974 665.625 974 453 c 0,42,43
 974 248.274509804 974 248.274509804 867 114 c 0,44,45
 760.277244495 -19.926595144 760.277244495 -19.926595144 585 -30 c 1,46,-1
 585 45 l 1,47,48
 702.399878271 67.8277541083 702.399878271 67.8277541083 730.5 256.5 c 0,49,50
 741 327 741 327 741 432 c 128,-1,51
 741 537 741 537 727 608.5 c 128,-1,52
 713 680 713 680 688.5 723.5 c 0,53,54
 643.724137931 803 643.724137931 803 553 803 c 256,33,34
EndSplineSet
EndChar

StartChar: seven
Encoding: 55 55 26
Width: 1054
GlyphClass: 2
Flags: MW
LayerCount: 2
Fore
SplineSet
129 1436 m 1,0,1
 267 1421 267 1421 361 1421 c 2,2,-1
 859 1421 l 1,3,-1
 749 1257 l 1,4,-1
 465 1257 l 2,5,6
 379 1257 379 1257 326 1231 c 0,7,8
 253.986422977 1195.67258486 253.986422977 1195.67258486 223 1100.5 c 0,9,10
 216 1079 216 1079 209.5 1058 c 0,11,12
 192.280701754 1002.36842105 192.280701754 1002.36842105 178 979 c 1,13,-1
 111 979 l 1,14,-1
 129 1436 l 1,0,1
487 -31 m 0,15,16
 342 -31 342 -31 342 154 c 0,17,18
 342 442.318181818 342 442.318181818 618 906.5 c 0,19,20
 680.901408451 1012.28873239 680.901408451 1012.28873239 838 1257 c 1,21,-1
 951 1421 l 1,22,-1
 972 1421 l 1,23,-1
 972 1296 l 1,24,25
 903 1191 903 1191 835.5 1083 c 128,-1,26
 768 975 768 975 715 855.5 c 0,27,28
 596 587.188679245 596 587.188679245 596 303 c 0,29,30
 596 238 596 238 604 188.5 c 128,-1,31
 612 139 612 139 612 98 c 0,32,33
 612 -31 612 -31 487 -31 c 0,15,16
EndSplineSet
EndChar

StartChar: eight
Encoding: 56 56 27
Width: 1054
GlyphClass: 2
Flags: MW
LayerCount: 2
Fore
SplineSet
635 881 m 1,0,1
 692 924 692 924 717.5 976 c 128,-1,2
 743 1028 743 1028 743 1122.5 c 128,-1,3
 743 1217 743 1217 694 1287.5 c 128,-1,4
 645 1358 645 1358 560 1375 c 1,5,-1
 560 1451 l 1,6,7
 721.122807018 1439.49122807 721.122807018 1439.49122807 822 1343 c 0,8,9
 917 1252.13043478 917 1252.13043478 917 1128 c 0,10,11
 917 989.492957746 917 989.492957746 806.5 893 c 0,12,13
 771 862 771 862 726 832 c 1,14,-1
 635 881 l 1,0,1
395 610 m 1,15,16
 245 505 245 505 245 338 c 0,17,18
 245 212 245 212 305 135 c 128,-1,19
 365 58 365 58 477 44 c 1,20,-1
 477 -31 l 1,21,22
 286.411303496 -25.0441032342 286.411303496 -25.0441032342 174.5 78.5 c 0,23,24
 64 180.738317757 64 180.738317757 64 342 c 0,25,26
 64 525.529411765 64 525.529411765 304 662 c 1,27,-1
 395 610 l 1,15,16
365 711 m 2,28,29
 244.6096 778.1408 244.6096 778.1408 187 851 c 0,30,31
 114 943.323529412 114 943.323529412 114 1067 c 0,32,33
 114 1210.46808511 114 1210.46808511 213 1320 c 0,34,35
 313.579758541 1431.27973285 313.579758541 1431.27973285 477 1449 c 1,36,-1
 477 1378 l 1,37,38
 390.816245007 1368.20639148 390.816245007 1368.20639148 336.5 1307.5 c 0,39,40
 283 1247.70588235 283 1247.70588235 283 1179.85294118 c 128,-1,41
 283 1112 283 1112 302 1069.5 c 128,-1,42
 321 1027 321 1027 359.5 988 c 0,43,44
 421.585585586 925.108108108 421.585585586 925.108108108 596 827 c 1,45,-1
 677 782 l 1,46,47
 964 635.98245614 964 635.98245614 964 393 c 0,48,49
 964 227.792079208 964 227.792079208 864.5 114.5 c 0,50,51
 754.413640144 -10.8458552814 754.413640144 -10.8458552814 560 -28 c 1,52,-1
 560 43 l 1,53,54
 660.165467626 54.7841726619 660.165467626 54.7841726619 721 133 c 0,55,56
 779 207.571428571 779 207.571428571 779 311 c 0,57,58
 779 472.6 779 472.6 585 589 c 0,59,60
 525 625 525 625 454 662 c 1,61,-1
 365 711 l 2,28,29
EndSplineSet
EndChar

StartChar: nine
Encoding: 57 57 28
Width: 1053
GlyphClass: 2
Flags: MW
LayerCount: 2
Fore
SplineSet
441 -30 m 1,0,1
 234.078289839 -20.1465852304 234.078289839 -20.1465852304 163.5 112 c 0,2,3
 140 156 140 156 140 219.5 c 128,-1,4
 140 283 140 283 171.5 317.5 c 128,-1,5
 203 352 203 352 240.5 352 c 128,-1,6
 278 352 278 352 297 342 c 128,-1,7
 316 332 316 332 328.5 316 c 0,8,9
 353 284.64 353 284.64 353 255.32 c 128,-1,10
 353 226 353 226 347 210.5 c 128,-1,11
 341 195 341 195 333.5 182.5 c 128,-1,12
 326 170 326 170 317.5 159 c 128,-1,13
 309 148 309 148 305 137 c 1,14,15
 305 103 305 103 340 77 c 128,-1,16
 375 51 375 51 441 46 c 1,17,-1
 441 -30 l 1,0,1
430.5 624.5 m 0,18,19
 466 606 466 606 523.904761905 606 c 128,-1,20
 581.80952381 606 581.80952381 606 640 653 c 1,21,-1
 640 571 l 1,22,23
 562.48 520 562.48 520 474.74 520 c 128,-1,24
 387 520 387 520 321 550.5 c 128,-1,25
 255 581 255 581 203 637.5 c 0,26,27
 86 764.625 86 764.625 86 954 c 0,28,29
 86 1164.66666667 86 1164.66666667 187.5 1300 c 0,30,31
 291.891428571 1439.18857143 291.891428571 1439.18857143 473 1451 c 1,32,-1
 473 1376 l 1,33,34
 318 1341.55555556 318 1341.55555556 318 977 c 0,35,36
 318 683.126760563 318 683.126760563 430.5 624.5 c 0,18,19
723 794 m 0,37,38
 723 976 723 976 708.5 1083 c 128,-1,39
 694 1190 694 1190 671 1252 c 0,40,41
 632.715189873 1355.20253165 632.715189873 1355.20253165 556 1375 c 1,42,-1
 556 1449 l 1,43,44
 734.196850394 1427.78608924 734.196850394 1427.78608924 840 1273 c 0,45,46
 956 1103.2962963 956 1103.2962963 956 809 c 0,47,48
 956 423.666666667 956 423.666666667 837 205.5 c 0,49,50
 723.069346734 -3.37286432161 723.069346734 -3.37286432161 524 -28 c 1,51,-1
 524 54 l 1,52,53
 624.787250996 91.7952191235 624.787250996 91.7952191235 671.5 253 c 0,54,55
 723 430.725490196 723 430.725490196 723 794 c 0,37,38
EndSplineSet
EndChar

StartChar: colon
Encoding: 58 58 29
Width: 528
GlyphClass: 2
Flags: MW
LayerCount: 2
Fore
SplineSet
210 950.5 m 0,0,1
 235 961 235 961 263.5 961 c 128,-1,2
 292 961 292 961 317 950.5 c 128,-1,3
 342 940 342 940 360 922 c 0,4,5
 399 883 399 883 399 825 c 256,6,7
 399 734.8 399 734.8 317 702 c 0,8,9
 292 692 292 692 263.5 692 c 128,-1,10
 235 692 235 692 210 702 c 128,-1,11
 185 712 185 712 166.5 729.5 c 0,12,13
 127 766.864864865 127 766.864864865 127 825 c 256,14,15
 127 915.64 127 915.64 210 950.5 c 0,0,1
210 237.5 m 0,16,17
 235 248 235 248 263.5 248 c 128,-1,18
 292 248 292 248 317 237.5 c 128,-1,19
 342 227 342 227 360 209 c 0,20,21
 399 170 399 170 399 113 c 256,22,23
 399 22.8 399 22.8 317 -10 c 0,24,25
 292 -20 292 -20 263.5 -20 c 128,-1,26
 235 -20 235 -20 210 -10 c 128,-1,27
 185 0 185 0 166.5 17.5 c 0,28,29
 127 54.8648648649 127 54.8648648649 127 113 c 256,30,31
 127 202.64 127 202.64 210 237.5 c 0,16,17
EndSplineSet
EndChar

StartChar: semicolon
Encoding: 59 59 30
Width: 528
GlyphClass: 2
Flags: MW
LayerCount: 2
Fore
SplineSet
147 -338 m 1,0,1
 188 -291 188 -291 217.5 -240 c 128,-1,2
 247 -189 247 -189 247 -143 c 0,3,4
 247 -65.9230769231 247 -65.9230769231 223 -5 c 1,5,6
 183 6 183 6 156 36.5 c 128,-1,7
 129 67 129 67 129 122 c 128,-1,8
 129 177 129 177 164 212.5 c 128,-1,9
 199 248 199 248 245.5 248 c 128,-1,10
 292 248 292 248 320.5 236.5 c 128,-1,11
 349 225 349 225 370.5 199.5 c 0,12,13
 417 144.348837209 417 144.348837209 417 37.6744186047 c 0,14,15
 417 -183 417 -183 231 -381 c 1,16,-1
 147 -338 l 1,0,1
210 950.5 m 0,17,18
 235 961 235 961 263.5 961 c 128,-1,19
 292 961 292 961 317 950.5 c 128,-1,20
 342 940 342 940 360 922 c 0,21,22
 399 883 399 883 399 825 c 256,23,24
 399 734.8 399 734.8 317 702 c 0,25,26
 292 692 292 692 263.5 692 c 128,-1,27
 235 692 235 692 210 702 c 128,-1,28
 185 712 185 712 166.5 729.5 c 0,29,30
 127 766.864864865 127 766.864864865 127 825 c 256,31,32
 127 915.64 127 915.64 210 950.5 c 0,17,18
EndSplineSet
EndChar

StartChar: less
Encoding: 60 60 31
Width: 1425
GlyphClass: 2
Flags: MW
LayerCount: 2
Fore
SplineSet
143 416 m 1,0,-1
 143 559 l 1,1,-1
 1280 989 l 1,2,-1
 1280 848 l 1,3,-1
 143 416 l 1,0,-1
432 451 m 1,4,-1
 1280 133 l 1,5,-1
 1280 -8 l 1,6,-1
 247 380 l 1,7,-1
 432 451 l 1,4,-1
EndSplineSet
EndChar

StartChar: equal
Encoding: 61 61 32
Width: 1425
GlyphClass: 2
Flags: MW
LayerCount: 2
Fore
SplineSet
1280 596 m 1,0,-1
 143 596 l 1,1,-1
 143 733 l 1,2,-1
 1280 733 l 1,3,-1
 1280 596 l 1,0,-1
1280 248 m 1,4,-1
 143 248 l 1,5,-1
 143 385 l 1,6,-1
 1280 385 l 1,7,-1
 1280 248 l 1,4,-1
EndSplineSet
EndChar

StartChar: greater
Encoding: 62 62 33
Width: 1425
GlyphClass: 2
Flags: MW
LayerCount: 2
Fore
SplineSet
1280 565 m 1,0,-1
 1280 422 l 1,1,-1
 143 -8 l 1,2,-1
 143 133 l 1,3,-1
 1280 565 l 1,0,-1
991 530 m 1,4,-1
 143 848 l 1,5,-1
 143 989 l 1,6,-1
 1176 601 l 1,7,-1
 991 530 l 1,4,-1
EndSplineSet
EndChar

StartChar: question
Encoding: 63 63 34
Width: 924
GlyphClass: 2
Flags: MW
LayerCount: 2
Fore
SplineSet
398 1365 m 1,0,1
 324.4 1365 324.4 1365 276 1326.5 c 0,2,3
 231.070422535 1290.76056338 231.070422535 1290.76056338 229 1239 c 1,4,5
 291 1226 291 1226 326 1191 c 128,-1,6
 361 1156 361 1156 361 1106 c 128,-1,7
 361 1056 361 1056 329 1024.5 c 128,-1,8
 297 993 297 993 235.5 993 c 128,-1,9
 174 993 174 993 134.5 1033 c 128,-1,10
 95 1073 95 1073 95 1141.5 c 128,-1,11
 95 1210 95 1210 116 1260 c 128,-1,12
 137 1310 137 1310 176 1349.5 c 0,13,14
 258.74884654 1433.30972919 258.74884654 1433.30972919 398 1449 c 1,15,-1
 398 1365 l 1,0,1
608 1118 m 0,16,17
 608 1299.75438596 608 1299.75438596 481 1351 c 1,18,-1
 481 1452 l 1,19,20
 650.162237408 1446.23310554 650.162237408 1446.23310554 754 1343.5 c 0,21,22
 850 1248.5212766 850 1248.5212766 850 1118 c 0,23,24
 850 988 850 988 750 888 c 0,25,26
 707 845 707 845 656.5 807 c 128,-1,27
 606 769 606 769 563 725 c 0,28,29
 463 622.674418605 463 622.674418605 463 489 c 2,30,-1
 463 403 l 1,31,-1
 368 403 l 1,32,-1
 368 510 l 2,33,34
 368 629.981132075 368 629.981132075 430.5 725.5 c 0,35,36
 457 766 457 766 488 802.5 c 128,-1,37
 519 839 519 839 545.5 882.5 c 0,38,39
 608 985.094339623 608 985.094339623 608 1118 c 0,16,17
507.5 211.5 m 0,40,41
 558 161 558 161 558 121 c 128,-1,42
 558 81 558 81 548 57.5 c 128,-1,43
 538 34 538 34 520.5 16.5 c 0,44,45
 484 -20 484 -20 441 -20 c 128,-1,46
 398 -20 398 -20 373.5 -10.5 c 128,-1,47
 349 -1 349 -1 331.5 16 c 0,48,49
 295 51.4571428571 295 51.4571428571 295 108.728571429 c 128,-1,50
 295 166 295 166 331.5 203 c 128,-1,51
 368 240 368 240 423.5 240 c 128,-1,52
 479 240 479 240 507.5 211.5 c 0,40,41
EndSplineSet
EndChar

StartChar: at
Encoding: 64 64 35
Width: 1899
GlyphClass: 2
Flags: MW
LayerCount: 2
Fore
SplineSet
556 61 m 1,0,1
 766.975508796 63.6705760607 766.975508796 63.6705760607 930.5 124 c 0,2,3
 982 143 982 143 1035 166 c 1,4,-1
 1065 92 l 1,5,6
 847.795454545 8.16666666667 847.795454545 8.16666666667 739.897727273 -9.41666666667 c 128,-1,7
 632 -27 632 -27 556 -30 c 1,8,-1
 556 61 l 1,0,1
473 -30 m 1,9,10
 91.6027874564 -18.4425087108 91.6027874564 -18.4425087108 -155 203.5 c 0,11,12
 -388 413.2 -388 413.2 -388 678 c 0,13,14
 -388 1013.09170306 -388 1013.09170306 -145.5 1227 c 0,15,16
 94.7554232009 1438.92836457 94.7554232009 1438.92836457 473 1451 c 1,17,-1
 473 1369 l 1,18,19
 195.272 1354.272 195.272 1354.272 17.5 1176.5 c 0,20,21
 -175 984 -175 984 -175 668 c 0,22,23
 -175 437.235294118 -175 437.235294118 4 263.5 c 0,24,25
 188.325323056 84.5960099751 188.325323056 84.5960099751 473 63 c 1,26,-1
 473 -30 l 1,9,10
818 467 m 0,27,28
 818 389 818 389 911 389 c 0,29,30
 1044.92857143 389 1044.92857143 389 1137.5 533 c 0,31,32
 1221 662.888888889 1221 662.888888889 1221 817 c 0,33,34
 1221 1028.21008403 1221 1028.21008403 1033.5 1190.5 c 0,35,36
 840.842564372 1357.25391487 840.842564372 1357.25391487 556 1369 c 1,37,-1
 556 1451 l 1,38,39
 887.299212598 1440.96062992 887.299212598 1440.96062992 1111 1262 c 0,40,41
 1216 1178 1216 1178 1276 1064.5 c 128,-1,42
 1336 951 1336 951 1336 819 c 0,43,44
 1336 636.582278481 1336 636.582278481 1215.5 481 c 0,45,46
 1080.73529412 307 1080.73529412 307 872 307 c 0,47,48
 781 307 781 307 724 346 c 128,-1,49
 667 385 667 385 655 446 c 1,50,-1
 650 446 l 1,51,52
 578.754208754 377.129068462 578.754208754 377.129068462 533.877104377 353.064534231 c 0,53,54
 447.972972973 307 447.972972973 307 379.486486486 307 c 128,-1,55
 311 307 311 307 265.5 323 c 128,-1,56
 220 339 220 339 187.5 372 c 0,57,58
 120 440.538461538 120 440.538461538 120 575 c 0,59,60
 120 691.75 120 691.75 183 812.5 c 0,61,62
 245.36988111 932.042272127 245.36988111 932.042272127 352 1009.5 c 0,63,64
 465.571428571 1092 465.571428571 1092 598 1092 c 0,65,66
 684.739130435 1092 684.739130435 1092 739 1044 c 1,67,-1
 716 955 l 1,68,69
 684.421052632 995 684.421052632 995 629.210526316 995 c 128,-1,70
 574 995 574 995 518 963 c 128,-1,71
 462 931 462 931 414 874 c 0,72,73
 303 742.1875 303 742.1875 303 573 c 0,74,75
 303 490 303 490 339 446.5 c 128,-1,76
 375 403 375 403 431 403 c 128,-1,77
 487 403 487 403 533.5 439.5 c 128,-1,78
 580 476 580 476 619.5 532 c 0,79,80
 698.358607224 643.799544419 698.358607224 643.799544419 737 787 c 2,81,-1
 813 1067 l 1,82,-1
 987 1067 l 1,83,-1
 833 551 l 2,84,85
 818 501.714285714 818 501.714285714 818 467 c 0,27,28
EndSplineSet
EndChar

StartChar: A
Encoding: 65 65 36
Width: 1254
GlyphClass: 2
Flags: MW
LayerCount: 2
Fore
SplineSet
711 451 m 1,0,-1
 407 451 l 1,1,-1
 432 543 l 1,2,-1
 681 543 l 1,3,-1
 711 451 l 1,0,-1
513 1003 m 1,4,-1
 278 301 l 1,5,6
 247 212 247 212 248 167.5 c 128,-1,7
 249 123 249 123 262 109 c 128,-1,8
 275 95 275 95 296 89 c 128,-1,9
 317 83 317 83 344 79 c 128,-1,10
 371 75 371 75 399 61 c 1,11,-1
 399 0 l 1,12,-1
 -36 0 l 1,13,-1
 -36 61 l 1,14,15
 -15 73 -15 73 8 80 c 128,-1,16
 31 87 31 87 51.5 96 c 0,17,18
 100.73326572 117.614604462 100.73326572 117.614604462 115 162 c 2,19,-1
 453 1165 l 1,20,-1
 513 1003 l 1,4,-1
488 1267 m 1,21,22
 434.153846154 1285.84615385 434.153846154 1285.84615385 415 1305 c 1,23,24
 417 1326 417 1326 420.5 1344.5 c 128,-1,25
 424 1363 424 1363 427.5 1381.5 c 128,-1,26
 431 1400 431 1400 435 1412 c 1,27,28
 625 1452 625 1452 655 1452 c 1,29,30
 676.048387097 1435.16129032 676.048387097 1435.16129032 694 1389 c 1,31,-1
 1133 178 l 2,32,33
 1154.59322034 118.203389831 1154.59322034 118.203389831 1199 96 c 0,34,35
 1219 86 1219 86 1241.5 79.5 c 128,-1,36
 1264 73 1264 73 1289 61 c 1,37,-1
 1289 0 l 1,38,-1
 748 0 l 1,39,-1
 748 61 l 1,40,41
 771 72 771 72 796 76.5 c 128,-1,42
 821 81 821 81 841.5 86 c 0,43,44
 888 97.3414634146 888 97.3414634146 888 131 c 0,45,46
 888 161.470588235 888 161.470588235 840 293.235294118 c 128,-1,47
 792 425 792 425 755 528.5 c 0,48,49
 651.950413223 816.760330579 651.950413223 816.760330579 553 1106 c 1,50,-1
 488 1267 l 1,21,22
EndSplineSet
EndChar

StartChar: B
Encoding: 66 66 37
Width: 1341
GlyphClass: 2
Flags: MW
LayerCount: 2
Fore
SplineSet
628 1339 m 0,0,1
 580.5 1339 580.5 1339 556 1332 c 1,2,-1
 556 1421 l 1,3,-1
 660 1421 l 2,4,5
 922.548387097 1421 922.548387097 1421 1056 1322.5 c 0,6,7
 1178 1232.45238095 1178 1232.45238095 1178 1071 c 0,8,9
 1178 942.644444444 1178 942.644444444 1084 857 c 0,10,11
 990.808398024 772.092095977 990.808398024 772.092095977 832 754 c 1,12,-1
 832 750 l 1,13,14
 1128.50489237 709.567514677 1128.50489237 709.567514677 1218.5 536.5 c 0,15,16
 1251 474 1251 474 1251 390.5 c 128,-1,17
 1251 307 1251 307 1222 236 c 128,-1,18
 1193 165 1193 165 1132 112.5 c 0,19,20
 1001.28571429 4.26325641456e-14 1001.28571429 4.26325641456e-14 751 0 c 2,21,-1
 556 0 l 1,22,-1
 556 88 l 1,23,24
 577.6 82 577.6 82 646 82 c 0,25,26
 819 82 819 82 900 152 c 128,-1,27
 981 222 981 222 981 377 c 256,28,29
 981 532 981 532 893.5 615 c 128,-1,30
 806 698 806 698 628 698 c 2,31,-1
 556 698 l 1,32,-1
 556 786 l 1,33,-1
 594 786 l 2,34,35
 907 786 907 786 907 1069 c 0,36,37
 907 1339 907 1339 628 1339 c 0,0,1
473 0 m 1,38,-1
 84 0 l 1,39,-1
 84 59 l 1,40,41
 111 71 111 71 136.5 78 c 128,-1,42
 162 85 162 85 181.5 96 c 0,43,44
 224 119.974358974 224 119.974358974 224 184 c 2,45,-1
 224 1237 l 2,46,47
 224 1301.02564103 224 1301.02564103 181.5 1325 c 0,48,49
 162 1336 162 1336 136.5 1343 c 128,-1,50
 111 1350 111 1350 84 1362 c 1,51,-1
 84 1421 l 1,52,-1
 473 1421 l 1,53,-1
 473 0 l 1,38,-1
EndSplineSet
EndChar

StartChar: C
Encoding: 67 67 38
Width: 1321
GlyphClass: 2
Flags: MW
LayerCount: 2
Fore
SplineSet
1047 1352 m 0,0,1
 1082.68 1352 1082.68 1352 1106 1405 c 1,2,-1
 1194 1405 l 1,3,-1
 1194 905 l 1,4,-1
 1126 905 l 1,5,6
 1086.30496454 943.326241135 1086.30496454 943.326241135 1055.15248227 1029.66312057 c 128,-1,7
 1024 1116 1024 1116 1004 1166 c 128,-1,8
 984 1216 984 1216 954.5 1257.5 c 0,9,10
 888.004244997 1351.04487568 888.004244997 1351.04487568 771 1367 c 1,11,-1
 771 1449 l 1,12,13
 896.636363636 1437.03463203 896.636363636 1437.03463203 1013 1365 c 0,14,15
 1034 1352 1034 1352 1047 1352 c 0,0,1
771 65 m 1,16,17
 991.368421053 65 991.368421053 65 1084 285 c 0,18,19
 1116 361 1116 361 1130 467 c 1,20,-1
 1225 444 l 1,21,22
 1194 211 1194 211 1082 95.5 c 128,-1,23
 970 -20 970 -20 771 -30 c 1,24,-1
 771 65 l 1,16,17
688 -30 m 1,25,26
 417.174649604 -15.8524070689 417.174649604 -15.8524070689 252.5 183 c 0,27,28
 86 384.056603774 86 384.056603774 86 711 c 0,29,30
 86 1029.2173913 86 1029.2173913 257.5 1238 c 0,31,32
 426.628409091 1443.89545455 426.628409091 1443.89545455 688 1452 c 1,33,-1
 688 1368 l 1,34,35
 466.633802817 1346.57746479 466.633802817 1346.57746479 394 1013 c 0,36,37
 367 889 367 889 367 715.5 c 128,-1,38
 367 542 367 542 394 427 c 128,-1,39
 421 312 421 312 465.5 237 c 0,40,41
 547.905004859 98.1151603499 547.905004859 98.1151603499 688 71 c 1,42,-1
 688 -30 l 1,25,26
EndSplineSet
EndChar

StartChar: D
Encoding: 68 68 39
Width: 1451
GlyphClass: 2
Flags: MW
LayerCount: 2
Fore
SplineSet
826.5 1315.5 m 0,0,1
 748 1346 748 1346 673.333333333 1346 c 128,-1,2
 598.666666667 1346 598.666666667 1346 572 1341 c 1,3,-1
 572 1421 l 1,4,-1
 670 1421 l 2,5,6
 989.744680851 1421 989.744680851 1421 1173 1223 c 0,7,8
 1351 1030.67816092 1351 1030.67816092 1351 711 c 0,9,10
 1351 390.32183908 1351 390.32183908 1173 198 c 0,11,12
 989.744680851 7.1054273576e-14 989.744680851 7.1054273576e-14 670 0 c 2,13,-1
 572 0 l 1,14,-1
 572 81 l 1,15,16
 612 76 612 76 680 76 c 128,-1,17
 748 76 748 76 826.5 106.5 c 128,-1,18
 905 137 905 137 959 210.5 c 0,19,20
 1069 360.222222222 1069 360.222222222 1069 711 c 256,21,22
 1069 1221.28025478 1069 1221.28025478 826.5 1315.5 c 0,0,1
489 0 m 1,23,-1
 84 0 l 1,24,-1
 84 59 l 1,25,26
 111 71 111 71 136.5 78 c 128,-1,27
 162 85 162 85 181.5 96 c 0,28,29
 224 119.974358974 224 119.974358974 224 184 c 2,30,-1
 224 1237 l 2,31,32
 224 1301.02564103 224 1301.02564103 181.5 1325 c 0,33,34
 162 1336 162 1336 136.5 1343 c 128,-1,35
 111 1350 111 1350 84 1362 c 1,36,-1
 84 1421 l 1,37,-1
 489 1421 l 1,38,-1
 489 0 l 1,23,-1
EndSplineSet
EndChar

StartChar: E
Encoding: 69 69 40
Width: 1253
GlyphClass: 2
Flags: MW
LayerCount: 2
Fore
SplineSet
84 0 m 1,0,-1
 84 59 l 1,1,2
 108.268181818 74.3272727273 108.268181818 74.3272727273 138.634090909 82.1636363636 c 128,-1,3
 169 90 169 90 182 97 c 128,-1,4
 195 104 195 104 204.5 119 c 0,5,6
 224 149.789473684 224 149.789473684 224 233 c 2,7,-1
 224 1186 l 2,8,9
 224 1270.21052632 224 1270.21052632 209.5 1293.10526316 c 128,-1,10
 195 1316 195 1316 182.5 1322.5 c 128,-1,11
 170 1329 170 1329 154.5 1333.5 c 0,12,13
 104.392241379 1348.04741379 104.392241379 1348.04741379 84 1362 c 1,14,-1
 84 1421 l 1,15,-1
 473 1421 l 1,16,-1
 473 0 l 1,17,-1
 84 0 l 1,0,-1
556 82 m 1,18,-1
 575 81 l 1,19,20
 800.37037037 81 800.37037037 81 893.5 128 c 0,21,22
 992.557683936 177.991728341 992.557683936 177.991728341 1034 326 c 0,23,24
 1043 357 1043 357 1049.5 382.5 c 128,-1,25
 1056 408 1056 408 1063.5 429 c 0,26,27
 1079.33333333 473.333333333 1079.33333333 473.333333333 1106 500 c 1,28,-1
 1171 500 l 1,29,-1
 1171 0 l 1,30,-1
 556 0 l 1,31,-1
 556 82 l 1,18,-1
926 1421 m 2,32,33
 988 1421 988 1421 1126 1436 c 1,34,-1
 1126 946 l 1,35,-1
 1056 946 l 1,36,37
 1021 991 1021 991 1002 1047 c 128,-1,38
 983 1103 983 1103 963 1156 c 128,-1,39
 943 1209 943 1209 923 1241 c 128,-1,40
 903 1273 903 1273 873 1295 c 0,41,42
 813 1339 813 1339 710.5 1339 c 128,-1,43
 608 1339 608 1339 556 1324 c 1,44,-1
 556 1421 l 1,45,-1
 926 1421 l 2,32,33
556 846 m 1,46,-1
 848 846 l 1,47,-1
 848 658 l 1,48,-1
 556 658 l 1,49,-1
 556 846 l 1,46,-1
EndSplineSet
EndChar

StartChar: F
Encoding: 70 70 41
Width: 1142
GlyphClass: 2
Flags: MW
LayerCount: 2
Fore
SplineSet
792 1320 m 128,-1,1
 745 1333 745 1333 670.5 1333 c 128,-1,2
 596 1333 596 1333 556 1325 c 1,3,-1
 556 1421 l 1,4,-1
 893 1421 l 2,5,6
 960 1421 960 1421 1104 1436 c 1,7,-1
 1104 946 l 1,8,-1
 1038 946 l 1,9,10
 1002.24957841 983.984822934 1002.24957841 983.984822934 985.124789207 1044.49241147 c 128,-1,11
 968 1105 968 1105 956 1143.5 c 128,-1,12
 944 1182 944 1182 923.5 1219 c 128,-1,13
 903 1256 903 1256 871 1281.5 c 128,-1,0
 839 1307 839 1307 792 1320 c 128,-1,1
473 227 m 2,14,15
 473 148 473 148 488 125.5 c 128,-1,16
 503 103 503 103 517 96.5 c 128,-1,17
 531 90 531 90 549 85.5 c 128,-1,18
 567 81 567 81 588.5 76 c 128,-1,19
 610 71 610 71 635 59 c 1,20,-1
 635 0 l 1,21,-1
 84 0 l 1,22,-1
 84 59 l 1,23,24
 108.268181818 74.3272727273 108.268181818 74.3272727273 138.634090909 82.1636363636 c 128,-1,25
 169 90 169 90 182 97 c 128,-1,26
 195 104 195 104 204.5 119 c 0,27,28
 224 149.789473684 224 149.789473684 224 233 c 2,29,-1
 224 1186 l 2,30,31
 224 1270.21052632 224 1270.21052632 209.5 1293.10526316 c 128,-1,32
 195 1316 195 1316 182.5 1322.5 c 128,-1,33
 170 1329 170 1329 154.5 1333.5 c 0,34,35
 104.392241379 1348.04741379 104.392241379 1348.04741379 84 1362 c 1,36,-1
 84 1421 l 1,37,-1
 473 1421 l 1,38,-1
 473 227 l 2,14,15
556 834 m 1,39,-1
 848 834 l 1,40,-1
 848 646 l 1,41,-1
 556 646 l 1,42,-1
 556 834 l 1,39,-1
EndSplineSet
EndChar

StartChar: G
Encoding: 71 71 42
Width: 1363
GlyphClass: 2
Flags: MW
LayerCount: 2
Fore
SplineSet
1024 1356 m 0,0,1
 1059.04 1356 1059.04 1356 1076 1409 c 1,2,-1
 1161 1409 l 1,3,-1
 1161 911 l 1,4,-1
 1094 911 l 1,5,6
 1052.09259259 963.722222222 1052.09259259 963.722222222 1022.0462963 1053.86111111 c 128,-1,7
 992 1144 992 1144 973.5 1191 c 128,-1,8
 955 1238 955 1238 925 1275.5 c 0,9,10
 858.233532934 1358.95808383 858.233532934 1358.95808383 735 1366 c 1,11,-1
 735 1451 l 1,12,13
 825.210332103 1444.77859779 825.210332103 1444.77859779 892.605166052 1413.88929889 c 128,-1,14
 960 1383 960 1383 985 1369.5 c 128,-1,15
 1010 1356 1010 1356 1024 1356 c 0,0,1
1190 242 m 2,16,17
 1190 149.823529412 1190 149.823529412 1223 78 c 1,18,-1
 1185 55 l 1,19,20
 1081.36363636 25 1081.36363636 25 895 25 c 0,21,22
 885 25 885 25 850 12.5 c 0,23,24
 783 -11.4285714286 783 -11.4285714286 735 -20 c 1,25,-1
 735 52 l 1,26,27
 847.908629442 57.8401015228 847.908629442 57.8401015228 896 142 c 0,28,29
 941 220.75 941 220.75 941 391 c 0,30,31
 941 483.6 941 483.6 935 520.8 c 128,-1,32
 929 558 929 558 912 572.5 c 128,-1,33
 895 587 895 587 871.5 595.5 c 128,-1,34
 848 604 848 604 821 609 c 128,-1,35
 794 614 794 614 770 623 c 1,36,-1
 770 690 l 1,37,-1
 1294 690 l 1,38,39
 1289 654 1289 654 1272.5 633 c 128,-1,40
 1256 612 1256 612 1237.5 591.5 c 0,41,42
 1190 538.864864865 1190 538.864864865 1190 467 c 2,43,-1
 1190 242 l 2,16,17
652 1361 m 1,44,45
 370 1304.6 370 1304.6 370 705 c 0,46,47
 370 215.388349515 370 215.388349515 541.5 100.5 c 0,48,49
 593 66 593 66 652 56 c 1,50,-1
 652 -25 l 1,51,52
 393.974093264 -25 393.974093264 -25 240.5 176.5 c 0,53,54
 88 376.721088435 88 376.721088435 88 711 c 0,55,56
 88 1010.03355705 88 1010.03355705 244.5 1218 c 0,57,58
 404.291670219 1430.34060875 404.291670219 1430.34060875 652 1450 c 1,59,-1
 652 1361 l 1,44,45
EndSplineSet
EndChar

StartChar: H
Encoding: 72 72 43
Width: 1450
GlyphClass: 2
Flags: MW
LayerCount: 2
Fore
SplineSet
983 1200 m 2,0,1
 983 1274.36842105 983 1274.36842105 968 1295.68421053 c 128,-1,2
 953 1317 953 1317 940 1323 c 128,-1,3
 927 1329 927 1329 911.5 1333.5 c 0,4,5
 862.941908714 1347.59751037 862.941908714 1347.59751037 843 1362 c 1,6,-1
 843 1421 l 1,7,-1
 1368 1421 l 1,8,-1
 1368 1362 l 1,9,10
 1341 1350 1341 1350 1316.5 1343 c 128,-1,11
 1292 1336 1292 1336 1273 1325 c 0,12,13
 1232 1301.26315789 1232 1301.26315789 1232 1237 c 2,14,-1
 1232 184 l 2,15,16
 1232 119.736842105 1232 119.736842105 1273 96 c 0,17,18
 1292 85 1292 85 1316.5 78 c 128,-1,19
 1341 71 1341 71 1368 59 c 1,20,-1
 1368 0 l 1,21,-1
 843 0 l 1,22,-1
 843 59 l 1,23,24
 959.239905919 75.2195217562 959.239905919 75.2195217562 977 165.5 c 0,25,26
 983 196 983 196 983 236 c 2,27,-1
 983 1200 l 2,0,1
465 227 m 2,28,29
 465 117.5 465 117.5 507 96.5 c 0,30,31
 520.666666667 89.6666666667 520.666666667 89.6666666667 553.333333333 80.3333333333 c 128,-1,32
 586 71 586 71 605 59 c 1,33,-1
 605 0 l 1,34,-1
 81 0 l 1,35,-1
 81 59 l 1,36,37
 108 71 108 71 132 78 c 128,-1,38
 156 85 156 85 175 96 c 0,39,40
 216 119.736842105 216 119.736842105 216 184 c 2,41,-1
 216 1237 l 2,42,43
 216 1301.26315789 216 1301.26315789 175 1325 c 0,44,45
 156 1336 156 1336 132 1343 c 128,-1,46
 108 1350 108 1350 81 1362 c 1,47,-1
 81 1421 l 1,48,-1
 605 1421 l 1,49,-1
 605 1362 l 1,50,51
 581.86440678 1346.96186441 581.86440678 1346.96186441 549.93220339 1337.9809322 c 128,-1,52
 518 1329 518 1329 505.5 1322.5 c 128,-1,53
 493 1316 493 1316 484 1301 c 0,54,55
 465 1269.33333333 465 1269.33333333 465 1190 c 2,56,-1
 465 227 l 2,28,29
900 694 m 1,57,-1
 548 694 l 1,58,-1
 548 786 l 1,59,-1
 900 786 l 1,60,-1
 900 694 l 1,57,-1
EndSplineSet
EndChar

StartChar: I
Encoding: 73 73 44
Width: 725
GlyphClass: 2
Flags: MW
LayerCount: 2
Fore
SplineSet
630 1421 m 1,0,-1
 630 1362 l 1,1,2
 601 1350 601 1350 575 1343 c 128,-1,3
 549 1336 549 1336 529.5 1325 c 0,4,5
 487 1301.02564103 487 1301.02564103 487 1237 c 2,6,-1
 487 184 l 2,7,8
 487 119.65 487 119.65 530 96 c 0,9,10
 550 85 550 85 576 78 c 128,-1,11
 602 71 602 71 632 59 c 1,12,-1
 632 0 l 1,13,-1
 93 0 l 1,14,-1
 93 59 l 1,15,16
 122 71 122 71 148 78 c 128,-1,17
 174 85 174 85 194 96 c 0,18,19
 238 120.2 238 120.2 238 184 c 2,20,-1
 238 1237 l 2,21,22
 238 1300.8 238 1300.8 194 1325 c 0,23,24
 174 1336 174 1336 148 1343 c 128,-1,25
 122 1350 122 1350 93 1362 c 1,26,-1
 93 1421 l 1,27,-1
 630 1421 l 1,0,-1
EndSplineSet
EndChar

StartChar: J
Encoding: 74 74 45
Width: 966
GlyphClass: 2
Flags: MW
LayerCount: 2
Fore
SplineSet
323 -30 m 1,0,1
 178.661865999 -24.3024420789 178.661865999 -24.3024420789 96.5 48 c 0,2,3
 21 114.44 21 114.44 21 207.22 c 128,-1,4
 21 300 21 300 60.5 341.5 c 128,-1,5
 100 383 100 383 161.5 383 c 128,-1,6
 223 383 223 383 256.5 349.5 c 128,-1,7
 290 316 290 316 290 272 c 128,-1,8
 290 228 290 228 281 208 c 128,-1,9
 272 188 272 188 258 175.5 c 0,10,11
 243.188405797 162.275362319 243.188405797 162.275362319 195 143 c 1,12,13
 197 105 197 105 231 78 c 128,-1,14
 265 51 265 51 323 46 c 1,15,-1
 323 -30 l 1,0,1
499 1243 m 2,16,17
 499 1303.39130435 499 1303.39130435 447 1326 c 0,18,19
 424 1336 424 1336 395 1343 c 128,-1,20
 366 1350 366 1350 337 1362 c 1,21,-1
 337 1421 l 1,22,-1
 888 1421 l 1,23,-1
 888 1362 l 1,24,25
 862 1350 862 1350 837.5 1343 c 128,-1,26
 813 1336 813 1336 793.5 1326 c 0,27,28
 750 1303.69230769 750 1303.69230769 750 1243 c 2,29,-1
 750 350 l 2,30,31
 750 166 750 166 664 74.5 c 128,-1,32
 578 -17 578 -17 406 -29 c 1,33,-1
 406 52 l 1,34,35
 458 66 458 66 479 110.5 c 128,-1,36
 500 155 500 155 500 238 c 2,37,-1
 499 1243 l 2,16,17
EndSplineSet
EndChar

StartChar: K
Encoding: 75 75 46
Width: 1341
GlyphClass: 2
Flags: MW
LayerCount: 2
Fore
SplineSet
556 808 m 1,0,-1
 869 1184 l 2,1,2
 882 1199 882 1199 896 1214 c 128,-1,3
 910 1229 910 1229 922 1243 c 0,4,5
 950 1275.66666667 950 1275.66666667 950 1293.33333333 c 128,-1,6
 950 1311 950 1311 937 1319.5 c 128,-1,7
 924 1328 924 1328 903.5 1333.5 c 128,-1,8
 883 1339 883 1339 858.5 1343.5 c 128,-1,9
 834 1348 834 1348 812 1360 c 1,10,-1
 812 1421 l 1,11,-1
 1303 1421 l 1,12,-1
 1303 1360 l 1,13,14
 1288 1348 1288 1348 1265.5 1341.5 c 128,-1,15
 1243 1335 1243 1335 1214.5 1326 c 0,16,17
 1140.06880734 1302.49541284 1140.06880734 1302.49541284 1085 1249 c 1,18,-1
 760 864 l 1,19,-1
 1204 172 l 1,20,21
 1236.23728814 115.584745763 1236.23728814 115.584745763 1289 94 c 0,22,23
 1311 85 1311 85 1332.5 79 c 128,-1,24
 1354 73 1354 73 1375 61 c 1,25,-1
 1375 0 l 1,26,-1
 814 0 l 1,27,-1
 814 61 l 1,28,29
 831 73 831 73 853 78.5 c 128,-1,30
 875 84 875 84 895 90 c 0,31,32
 943 104.4 943 104.4 943 133 c 0,33,34
 943 153 943 153 930 175.5 c 128,-1,35
 917 198 917 198 895 236 c 1,36,-1
 556 757 l 1,37,-1
 556 808 l 1,0,-1
473 223 m 2,38,39
 473 143.4375 473 143.4375 495.5 116.71875 c 0,40,41
 532.704647676 72.5382308846 532.704647676 72.5382308846 612 59 c 1,42,-1
 612 0 l 1,43,-1
 84 0 l 1,44,-1
 84 59 l 1,45,46
 111 71 111 71 136.5 78 c 128,-1,47
 162 85 162 85 181.5 96 c 0,48,49
 224 119.974358974 224 119.974358974 224 184 c 2,50,-1
 224 1194 l 2,51,52
 224 1272.73684211 224 1272.73684211 209.5 1294.86842105 c 128,-1,53
 195 1317 195 1317 182 1323 c 128,-1,54
 169 1329 169 1329 153.5 1333.5 c 0,55,56
 103.269709544 1348.08298755 103.269709544 1348.08298755 84 1362 c 1,57,-1
 84 1421 l 1,58,-1
 612 1421 l 1,59,-1
 612 1362 l 1,60,61
 530.152643336 1346.02978407 530.152643336 1346.02978407 507.576321668 1318.51489203 c 0,62,63
 473 1276.375 473 1276.375 473 1196 c 2,64,-1
 473 223 l 2,38,39
EndSplineSet
EndChar

StartChar: L
Encoding: 76 76 47
Width: 1142
GlyphClass: 2
Flags: MW
LayerCount: 2
Fore
SplineSet
90 0 m 1,0,-1
 90 59 l 1,1,2
 108 71 108 71 129.5 76 c 128,-1,3
 151 81 151 81 170.5 87.5 c 0,4,5
 216.577464789 102.85915493 216.577464789 102.85915493 223 143 c 0,6,7
 230 183.25 230 183.25 230 246 c 2,8,-1
 230 1176 l 2,9,10
 230 1293.27586207 230 1293.27586207 204.5 1313.5 c 0,11,12
 182.511940299 1330.93880597 182.511940299 1330.93880597 145.255970149 1340.46940299 c 128,-1,13
 108 1350 108 1350 90 1362 c 1,14,-1
 90 1421 l 1,15,-1
 627 1421 l 1,16,-1
 627 1362 l 1,17,18
 605 1350 605 1350 582 1344.5 c 128,-1,19
 559 1339 559 1339 539 1332 c 0,20,21
 491.679738562 1315.4379085 491.679738562 1315.4379085 487 1278 c 1,22,23
 480 1237.75 480 1237.75 480 1178 c 2,24,-1
 480 0 l 1,25,-1
 90 0 l 1,0,-1
563 83 m 1,26,27
 578 82 578 82 594 82 c 2,28,-1
 627 82 l 2,29,30
 815.247058824 82 815.247058824 82 897.5 200.5 c 0,31,32
 934.934373319 254.430876815 934.934373319 254.430876815 955.967186659 323.715438408 c 128,-1,33
 977 393 977 393 986 418 c 0,34,35
 1005.32227488 471.672985782 1005.32227488 471.672985782 1033 508 c 1,36,-1
 1096 508 l 1,37,-1
 1096 0 l 1,38,-1
 563 0 l 1,39,-1
 563 83 l 1,26,27
EndSplineSet
EndChar

StartChar: M
Encoding: 77 77 48
Width: 1715
GlyphClass: 2
Flags: MW
LayerCount: 2
Fore
SplineSet
904 512 m 1,0,-1
 1173 1421 l 1,1,-1
 1622 1421 l 1,2,-1
 1622 1362 l 1,3,4
 1598 1350 1598 1350 1574 1343.5 c 128,-1,5
 1550 1337 1550 1337 1531 1327.5 c 0,6,7
 1489 1306.5 1489 1306.5 1489 1253 c 2,8,-1
 1489 184 l 2,9,10
 1489 121.974358974 1489 121.974358974 1531.5 98 c 0,11,12
 1551 87 1551 87 1576 79 c 128,-1,13
 1601 71 1601 71 1629 59 c 1,14,-1
 1629 0 l 1,15,-1
 1106 0 l 1,16,-1
 1106 59 l 1,17,18
 1130 71 1130 71 1153.5 79 c 128,-1,19
 1177 87 1177 87 1196 98 c 0,20,21
 1239 122.894736842 1239 122.894736842 1239 184 c 2,22,-1
 1239 1278 l 1,23,-1
 1235 1278 l 1,24,-1
 957 337 l 1,25,-1
 904 512 l 1,0,-1
338 1181 m 1,26,-1
 338 213 l 2,27,28
 338 134.756097561 338 134.756097561 384.5 103 c 0,29,30
 405 89 405 89 431.5 80.5 c 128,-1,31
 458 72 458 72 485 59 c 1,32,-1
 485 0 l 1,33,-1
 84 0 l 1,34,-1
 84 59 l 1,35,36
 108 71 108 71 133 78.5 c 128,-1,37
 158 86 158 86 178 99.5 c 0,38,39
 224 130.55 224 130.55 224 211 c 2,40,-1
 224 1224 l 1,41,-1
 338 1181 l 1,26,-1
342 1257 m 1,42,43
 130.973684211 1337.57368421 130.973684211 1337.57368421 84 1362 c 1,44,-1
 84 1421 l 1,45,-1
 535 1421 l 1,46,-1
 918 206 l 1,47,-1
 857 0 l 1,48,-1
 739 0 l 1,49,-1
 342 1257 l 1,42,43
EndSplineSet
EndChar

StartChar: N
Encoding: 78 78 49
Width: 1429
GlyphClass: 2
Flags: MW
LayerCount: 2
Fore
SplineSet
1101 532 m 1,0,-1
 1101 1237 l 2,1,2
 1101 1291.09090909 1101 1291.09090909 1051 1319.5 c 0,3,4
 1029 1332 1029 1332 1001.5 1342 c 128,-1,5
 974 1352 974 1352 947 1364 c 1,6,-1
 947 1423 l 1,7,-1
 1365 1423 l 1,8,-1
 1365 1364 l 1,9,10
 1340 1352 1340 1352 1313.5 1342 c 128,-1,11
 1287 1332 1287 1332 1265.5 1319.5 c 0,12,13
 1216 1290.72093023 1216 1290.72093023 1216 1237 c 2,14,-1
 1216 352 l 1,15,-1
 1101 532 l 1,0,-1
326 1062 m 1,16,-1
 326 186 l 2,17,18
 326 130.893617021 326 130.893617021 377.5 103.5 c 0,19,20
 401 91 401 91 431.5 81 c 128,-1,21
 462 71 462 71 494 59 c 1,22,-1
 494 0 l 1,23,-1
 54 0 l 1,24,-1
 54 59 l 1,25,26
 82 71 82 71 110 81 c 128,-1,27
 138 91 138 91 160.5 103.5 c 0,28,29
 211 131.555555556 211 131.555555556 211 186 c 2,30,-1
 211 1212 l 1,31,-1
 326 1062 l 1,16,-1
330 1186 m 1,32,33
 222.529884032 1312.16057092 222.529884032 1312.16057092 116 1344.5 c 0,34,35
 88 1353 88 1353 61 1362 c 1,36,-1
 61 1421 l 1,37,-1
 451 1421 l 1,38,-1
 1216 211 l 1,39,-1
 1216 -8 l 1,40,-1
 1069 -8 l 1,41,-1
 330 1186 l 1,32,33
EndSplineSet
EndChar

StartChar: O
Encoding: 79 79 50
Width: 1429
GlyphClass: 2
Flags: MW
LayerCount: 2
Fore
SplineSet
671 -30 m 1,0,1
 415.010214505 -12.2776302349 415.010214505 -12.2776302349 248.5 201.5 c 0,2,3
 86 410.129032258 86 410.129032258 86 711 c 0,4,5
 86 1009.87096774 86 1009.87096774 248.5 1218.5 c 0,6,7
 415.010214505 1432.27763023 415.010214505 1432.27763023 671 1450 c 1,8,-1
 671 1368 l 1,9,10
 523.585265894 1353.04488205 523.585265894 1353.04488205 450.5 1211.5 c 0,11,12
 367 1049.78481013 367 1049.78481013 367 711 c 256,13,14
 367 213.169642857 367 213.169642857 546 96.5 c 0,15,16
 602 60 602 60 671 53 c 1,17,-1
 671 -30 l 1,0,1
754 53 m 1,18,19
 977.738858106 75.6981450253 977.738858106 75.6981450253 1036.5 410.5 c 0,20,21
 1058 533 1058 533 1058 711 c 256,22,23
 1058 1206.83035714 1058 1206.83035714 879 1323.5 c 0,24,25
 823 1360 823 1360 754 1368 c 1,26,-1
 754 1451 l 1,27,28
 1011.99152955 1433.2753911 1011.99152955 1433.2753911 1178.5 1219.5 c 0,29,30
 1341 1010.87096774 1341 1010.87096774 1341 711 c 128,-1,31
 1341 411.129032258 1341 411.129032258 1178.5 202.5 c 0,32,33
 1011.99152955 -11.2753910999 1011.99152955 -11.2753910999 754 -29 c 1,34,-1
 754 53 l 1,18,19
EndSplineSet
EndChar

StartChar: P
Encoding: 80 80 51
Width: 1230
GlyphClass: 2
Flags: MW
LayerCount: 2
Fore
SplineSet
917 1049 m 0,0,1
 917 1346 917 1346 641 1346 c 0,2,3
 597 1346 597 1346 563 1340 c 1,4,-1
 563 1421 l 1,5,-1
 650 1421 l 2,6,7
 1042.13380282 1421 1042.13380282 1421 1158.5 1217 c 0,8,9
 1199 1146 1199 1146 1199 1056.5 c 128,-1,10
 1199 967 1199 967 1166.5 898 c 128,-1,11
 1134 829 1134 829 1069 778 c 0,12,13
 928.803921569 668 928.803921569 668 679 668 c 2,14,-1
 563 668 l 1,15,-1
 563 743 l 1,16,17
 745.394366197 743 745.394366197 743 827.5 808.5 c 0,18,19
 917 879.898876404 917 879.898876404 917 1049 c 0,0,1
480 238 m 2,20,21
 480 169 480 169 485.5 144.5 c 128,-1,22
 491 120 491 120 508 107.5 c 128,-1,23
 525 95 525 95 549 88.5 c 128,-1,24
 573 82 573 82 601 76.5 c 128,-1,25
 629 71 629 71 655 59 c 1,26,-1
 655 0 l 1,27,-1
 90 0 l 1,28,-1
 90 59 l 1,29,30
 107 71 107 71 128.5 76 c 128,-1,31
 150 81 150 81 170 87.5 c 0,32,33
 217.594936709 102.96835443 217.594936709 102.96835443 223.797468354 144.484177215 c 128,-1,34
 230 186 230 186 230 240 c 2,35,-1
 230 1182 l 2,36,37
 230 1293.27586207 230 1293.27586207 204.5 1313.5 c 0,38,39
 182.511940299 1330.93880597 182.511940299 1330.93880597 145.255970149 1340.46940299 c 128,-1,40
 108 1350 108 1350 90 1362 c 1,41,-1
 90 1421 l 1,42,-1
 480 1421 l 1,43,-1
 480 238 l 2,20,21
EndSplineSet
EndChar

StartChar: Q
Encoding: 81 81 52
Width: 1429
GlyphClass: 2
Flags: MW
LayerCount: 2
Fore
SplineSet
754 53 m 1,0,1
 977.738858106 75.6981450253 977.738858106 75.6981450253 1036.5 410.5 c 0,2,3
 1058 533 1058 533 1058 711 c 256,4,5
 1058 1206.83035714 1058 1206.83035714 879 1323.5 c 0,6,7
 823 1360 823 1360 754 1368 c 1,8,-1
 754 1451 l 1,9,10
 1011.99152955 1433.2753911 1011.99152955 1433.2753911 1178.5 1219.5 c 0,11,12
 1341 1010.87096774 1341 1010.87096774 1341 711 c 0,13,14
 1341 456.017241379 1341 456.017241379 1220 262 c 0,15,16
 1097.70290146 65.902928199 1097.70290146 65.902928199 896 0 c 1,17,18
 966 -39 966 -39 1021.5 -74.5 c 128,-1,19
 1077 -110 1077 -110 1120.5 -137 c 0,20,21
 1213.94444444 -195 1213.94444444 -195 1250.47222222 -195 c 128,-1,22
 1287 -195 1287 -195 1303 -190.5 c 128,-1,23
 1319 -186 1319 -186 1331 -178 c 128,-1,24
 1343 -170 1343 -170 1353.5 -159.5 c 128,-1,25
 1364 -149 1364 -149 1378 -138 c 1,26,-1
 1449 -203 l 1,27,28
 1390.46341463 -298.12195122 1390.46341463 -298.12195122 1279.5 -331 c 0,29,30
 1239 -343 1239 -343 1172.5 -343 c 128,-1,31
 1106 -343 1106 -343 1040.5 -311.5 c 128,-1,32
 975 -280 975 -280 923.5 -233 c 128,-1,33
 872 -186 872 -186 831 -131 c 128,-1,34
 790 -76 790 -76 754 -29 c 1,35,-1
 754 53 l 1,0,1
671 -30 m 1,36,37
 415.010214505 -12.2776302349 415.010214505 -12.2776302349 248.5 201.5 c 0,38,39
 86 410.129032258 86 410.129032258 86 711 c 0,40,41
 86 1009.87096774 86 1009.87096774 248.5 1218.5 c 0,42,43
 415.010214505 1432.27763023 415.010214505 1432.27763023 671 1450 c 1,44,-1
 671 1368 l 1,45,46
 523.585265894 1353.04488205 523.585265894 1353.04488205 450.5 1211.5 c 0,47,48
 367 1049.78481013 367 1049.78481013 367 711 c 256,49,50
 367 213.169642857 367 213.169642857 546 96.5 c 0,51,52
 602 60 602 60 671 53 c 1,53,-1
 671 -30 l 1,36,37
EndSplineSet
EndChar

StartChar: R
Encoding: 82 82 53
Width: 1341
GlyphClass: 2
Flags: MW
LayerCount: 2
Fore
SplineSet
600 1421 m 2,0,1
 1187 1421 1187 1421 1187 1067 c 0,2,3
 1187 922.807692308 1187 922.807692308 1081 827 c 0,4,5
 970.142337426 726.801728058 970.142337426 726.801728058 779 719 c 1,6,-1
 779 715 l 1,7,8
 883.165839126 689.923038729 883.165839126 689.923038729 940 610 c 0,9,10
 969.678111588 568.450643777 969.678111588 568.450643777 1005.83905579 476.725321888 c 128,-1,11
 1042 385 1042 385 1063 331.5 c 128,-1,12
 1084 278 1084 278 1105 235 c 0,13,14
 1152.37209302 138 1152.37209302 138 1188 138 c 0,15,16
 1203 138 1203 138 1214 151.5 c 128,-1,17
 1225 165 1225 165 1236.5 181.5 c 0,18,19
 1266.81818182 225 1266.81818182 225 1292 225 c 0,20,21
 1295 225 1295 225 1306 219.5 c 128,-1,22
 1317 214 1317 214 1317 198 c 128,-1,23
 1317 182 1317 182 1310 164 c 1,24,25
 1253.17073171 73.0731707317 1253.17073171 73.0731707317 1224.08536585 44.5365853659 c 0,26,27
 1162.38461538 -16 1162.38461538 -16 1086.69230769 -16 c 128,-1,28
 1011 -16 1011 -16 966.5 8 c 128,-1,29
 922 32 922 32 892 72.5 c 128,-1,30
 862 113 862 113 843.5 166 c 128,-1,31
 825 219 825 219 810.5 277 c 128,-1,32
 796 335 796 335 782 394 c 128,-1,33
 768 453 768 453 747 505.5 c 0,34,35
 699.065989848 625.335025381 699.065989848 625.335025381 614 667 c 0,36,37
 593 677.5 593 677.5 563 690 c 1,38,-1
 563 772 l 1,39,40
 846.236363636 772 846.236363636 772 905.5 931 c 0,41,42
 926 986 926 986 926 1061 c 0,43,44
 926 1196 926 1196 847 1271 c 128,-1,45
 768 1346 768 1346 605 1346 c 0,46,47
 576.5 1346 576.5 1346 563 1343 c 1,48,-1
 563 1421 l 1,49,-1
 600 1421 l 2,0,1
480 238 m 2,50,51
 480 172.333333333 480 172.333333333 484 145.166666667 c 128,-1,52
 488 118 488 118 502.5 106 c 128,-1,53
 517 94 517 94 537 87.5 c 128,-1,54
 557 81 557 81 579 76 c 128,-1,55
 601 71 601 71 620 59 c 1,56,-1
 620 0 l 1,57,-1
 90 0 l 1,58,-1
 90 59 l 1,59,60
 105 71 105 71 126 76 c 128,-1,61
 147 81 147 81 167.5 87.5 c 0,62,63
 217.664953751 103.405960946 217.664953751 103.405960946 223.832476876 144.702980473 c 128,-1,64
 230 186 230 186 230 240 c 2,65,-1
 230 1182 l 2,66,67
 230 1293.27586207 230 1293.27586207 204.5 1313.5 c 0,68,69
 182.511940299 1330.93880597 182.511940299 1330.93880597 145.255970149 1340.46940299 c 128,-1,70
 108 1350 108 1350 90 1362 c 1,71,-1
 90 1421 l 1,72,-1
 480 1421 l 1,73,-1
 480 238 l 2,50,51
EndSplineSet
EndChar

StartChar: S
Encoding: 83 83 54
Width: 1164
GlyphClass: 2
Flags: MW
LayerCount: 2
Fore
SplineSet
592 1449 m 1,0,1
 665.644444444 1441.63555556 665.644444444 1441.63555556 718.322222222 1414.81777778 c 128,-1,2
 771 1388 771 1388 790.5 1377 c 128,-1,3
 810 1366 810 1366 823.5 1366 c 128,-1,4
 837 1366 837 1366 846 1372 c 128,-1,5
 855 1378 855 1378 862 1386 c 128,-1,6
 869 1394 869 1394 874 1403.5 c 128,-1,7
 879 1413 879 1413 884 1421 c 1,8,-1
 976 1421 l 1,9,-1
 976 952 l 1,10,-1
 904 952 l 1,11,12
 881.702169625 975.471400394 881.702169625 975.471400394 853.851084813 1052.7357002 c 128,-1,13
 826 1130 826 1130 806.5 1176 c 128,-1,14
 787 1222 787 1222 758.5 1261.5 c 0,15,16
 694 1350.89473684 694 1350.89473684 592 1367 c 1,17,-1
 592 1449 l 1,0,1
306 43.5 m 128,-1,19
 282 55 282 55 256.714285714 55 c 128,-1,20
 231.428571429 55 231.428571429 55 200 0 c 1,21,-1
 107 0 l 1,22,-1
 107 494 l 1,23,-1
 176 494 l 1,24,25
 198 471 198 471 215.5 431 c 128,-1,26
 233 391 233 391 252.5 344.5 c 128,-1,27
 272 298 272 298 295 249 c 128,-1,28
 318 200 318 200 351 158.5 c 0,29,30
 424.97443299 65.4715463918 424.97443299 65.4715463918 539 53 c 1,31,-1
 539 -29 l 1,32,33
 449.036144578 -21.1084337349 449.036144578 -21.1084337349 389.518072289 5.44578313253 c 128,-1,18
 330 32 330 32 306 43.5 c 128,-1,19
622 54 m 1,34,35
 730.13164557 67.2793248945 730.13164557 67.2793248945 789 142.5 c 0,36,37
 841 208.944444444 841 208.944444444 841 295.472222222 c 128,-1,38
 841 382 841 382 810 434.5 c 128,-1,39
 779 487 779 487 728.5 527.5 c 128,-1,40
 678 568 678 568 613 601 c 128,-1,41
 548 634 548 634 480.5 666.5 c 128,-1,42
 413 699 413 699 348.5 734.5 c 128,-1,43
 284 770 284 770 233.5 816.5 c 0,44,45
 121 920.089108911 121 920.089108911 121 1069 c 0,46,47
 121 1220.42574257 121 1220.42574257 224.5 1327 c 0,48,49
 333.564770391 1439.30431803 333.564770391 1439.30431803 509 1451 c 1,50,-1
 509 1368 l 1,51,52
 385.046224961 1351.69029276 385.046224961 1351.69029276 342 1241 c 0,53,54
 328 1205 328 1205 328 1151 c 128,-1,55
 328 1097 328 1097 360 1050 c 128,-1,56
 392 1003 392 1003 444 966 c 128,-1,57
 496 929 496 929 562.5 898 c 128,-1,58
 629 867 629 867 698.5 835 c 128,-1,59
 768 803 768 803 834.5 766 c 128,-1,60
 901 729 901 729 953 679.5 c 0,61,62
 1069 569.076923077 1069 569.076923077 1069 412 c 0,63,64
 1069 242.188034188 1069 242.188034188 946.5 115.5 c 0,65,66
 817.01180658 -18.4151402031 817.01180658 -18.4151402031 622 -30 c 1,67,-1
 622 54 l 1,34,35
EndSplineSet
EndChar

StartChar: T
Encoding: 84 84 55
Width: 1187
GlyphClass: 2
Flags: MW
LayerCount: 2
Fore
SplineSet
717 1421 m 1,0,-1
 717 229 l 2,1,2
 717 149.818181818 717 149.818181818 734 127.409090909 c 128,-1,3
 751 105 751 105 765.5 98.5 c 128,-1,4
 780 92 780 92 798 87.5 c 0,5,6
 848.571428571 74.8571428571 848.571428571 74.8571428571 875 59 c 1,7,-1
 875 0 l 1,8,-1
 313 0 l 1,9,-1
 313 59 l 1,10,11
 334.755725191 73.141221374 334.755725191 73.141221374 370.377862595 82.570610687 c 128,-1,12
 406 92 406 92 420.5 98 c 128,-1,13
 435 104 435 104 445.5 118.5 c 0,14,15
 467 148.19047619 467 148.19047619 467 229 c 2,16,-1
 467 1421 l 1,17,-1
 717 1421 l 1,0,-1
1014 1421 m 2,18,19
 1055 1421 1055 1421 1151 1436 c 1,20,-1
 1151 963 l 1,21,-1
 1083 963 l 1,22,23
 1069 1001 1069 1001 1058.5 1043.5 c 128,-1,24
 1048 1086 1048 1086 1035 1127.5 c 128,-1,25
 1022 1169 1022 1169 1005 1207.5 c 128,-1,26
 988 1246 988 1246 961 1275 c 0,27,28
 901.413793103 1339 901.413793103 1339 800 1339 c 1,29,-1
 800 1421 l 1,30,-1
 1014 1421 l 2,18,19
36 1436 m 1,31,32
 84 1421 84 1421 109 1421 c 2,33,-1
 384 1421 l 1,34,-1
 384 1339 l 1,35,36
 239.727272727 1339 239.727272727 1339 179.5 1206.5 c 0,37,38
 150.658536585 1143.04878049 150.658536585 1143.04878049 133.829268293 1071.52439024 c 128,-1,39
 117 1000 117 1000 104 963 c 1,40,-1
 34 963 l 1,41,-1
 34 1434 l 1,42,-1
 36 1436 l 1,31,32
EndSplineSet
PairPos2: "'kern' Horizontal Kerning in Latin lookup 0 per glyph data 1" scaron dx=0 dy=0 dh=-34 dv=0 dx=0 dy=0 dh=0 dv=0
PairPos2: "'kern' Horizontal Kerning in Latin lookup 0 per glyph data 1" scaron dx=0 dy=0 dh=-34 dv=0 dx=0 dy=0 dh=0 dv=0
PairPos2: "'kern' Horizontal Kerning in Latin lookup 0 per glyph data 1" oe dx=0 dy=0 dh=-131 dv=0 dx=0 dy=0 dh=0 dv=0
PairPos2: "'kern' Horizontal Kerning in Latin lookup 0 per glyph data 1" oe dx=0 dy=0 dh=-131 dv=0 dx=0 dy=0 dh=0 dv=0
PairPos2: "'kern' Horizontal Kerning in Latin lookup 0 per glyph data 1" ydieresis dx=0 dy=0 dh=-131 dv=0 dx=0 dy=0 dh=0 dv=0
PairPos2: "'kern' Horizontal Kerning in Latin lookup 0 per glyph data 1" ydieresis dx=0 dy=0 dh=-131 dv=0 dx=0 dy=0 dh=0 dv=0
PairPos2: "'kern' Horizontal Kerning in Latin lookup 0 per glyph data 1" yacute dx=0 dy=0 dh=-131 dv=0 dx=0 dy=0 dh=0 dv=0
PairPos2: "'kern' Horizontal Kerning in Latin lookup 0 per glyph data 1" yacute dx=0 dy=0 dh=-131 dv=0 dx=0 dy=0 dh=0 dv=0
PairPos2: "'kern' Horizontal Kerning in Latin lookup 0 per glyph data 1" udieresis dx=0 dy=0 dh=-66 dv=0 dx=0 dy=0 dh=0 dv=0
PairPos2: "'kern' Horizontal Kerning in Latin lookup 0 per glyph data 1" udieresis dx=0 dy=0 dh=-66 dv=0 dx=0 dy=0 dh=0 dv=0
PairPos2: "'kern' Horizontal Kerning in Latin lookup 0 per glyph data 1" ucircumflex dx=0 dy=0 dh=-131 dv=0 dx=0 dy=0 dh=0 dv=0
PairPos2: "'kern' Horizontal Kerning in Latin lookup 0 per glyph data 1" ucircumflex dx=0 dy=0 dh=-131 dv=0 dx=0 dy=0 dh=0 dv=0
PairPos2: "'kern' Horizontal Kerning in Latin lookup 0 per glyph data 1" uacute dx=0 dy=0 dh=-131 dv=0 dx=0 dy=0 dh=0 dv=0
PairPos2: "'kern' Horizontal Kerning in Latin lookup 0 per glyph data 1" uacute dx=0 dy=0 dh=-131 dv=0 dx=0 dy=0 dh=0 dv=0
PairPos2: "'kern' Horizontal Kerning in Latin lookup 0 per glyph data 1" ugrave dx=0 dy=0 dh=-97 dv=0 dx=0 dy=0 dh=0 dv=0
PairPos2: "'kern' Horizontal Kerning in Latin lookup 0 per glyph data 1" ugrave dx=0 dy=0 dh=-97 dv=0 dx=0 dy=0 dh=0 dv=0
PairPos2: "'kern' Horizontal Kerning in Latin lookup 0 per glyph data 1" oslash dx=0 dy=0 dh=-131 dv=0 dx=0 dy=0 dh=0 dv=0
PairPos2: "'kern' Horizontal Kerning in Latin lookup 0 per glyph data 1" oslash dx=0 dy=0 dh=-131 dv=0 dx=0 dy=0 dh=0 dv=0
PairPos2: "'kern' Horizontal Kerning in Latin lookup 0 per glyph data 1" odieresis dx=0 dy=0 dh=-66 dv=0 dx=0 dy=0 dh=0 dv=0
PairPos2: "'kern' Horizontal Kerning in Latin lookup 0 per glyph data 1" odieresis dx=0 dy=0 dh=-66 dv=0 dx=0 dy=0 dh=0 dv=0
PairPos2: "'kern' Horizontal Kerning in Latin lookup 0 per glyph data 1" otilde dx=0 dy=0 dh=-131 dv=0 dx=0 dy=0 dh=0 dv=0
PairPos2: "'kern' Horizontal Kerning in Latin lookup 0 per glyph data 1" otilde dx=0 dy=0 dh=-131 dv=0 dx=0 dy=0 dh=0 dv=0
PairPos2: "'kern' Horizontal Kerning in Latin lookup 0 per glyph data 1" ocircumflex dx=0 dy=0 dh=-97 dv=0 dx=0 dy=0 dh=0 dv=0
PairPos2: "'kern' Horizontal Kerning in Latin lookup 0 per glyph data 1" ocircumflex dx=0 dy=0 dh=-97 dv=0 dx=0 dy=0 dh=0 dv=0
PairPos2: "'kern' Horizontal Kerning in Latin lookup 0 per glyph data 1" oacute dx=0 dy=0 dh=-131 dv=0 dx=0 dy=0 dh=0 dv=0
PairPos2: "'kern' Horizontal Kerning in Latin lookup 0 per glyph data 1" oacute dx=0 dy=0 dh=-131 dv=0 dx=0 dy=0 dh=0 dv=0
PairPos2: "'kern' Horizontal Kerning in Latin lookup 0 per glyph data 1" ograve dx=0 dy=0 dh=-97 dv=0 dx=0 dy=0 dh=0 dv=0
PairPos2: "'kern' Horizontal Kerning in Latin lookup 0 per glyph data 1" ograve dx=0 dy=0 dh=-97 dv=0 dx=0 dy=0 dh=0 dv=0
PairPos2: "'kern' Horizontal Kerning in Latin lookup 0 per glyph data 1" iacute dx=0 dy=0 dh=-21 dv=0 dx=0 dy=0 dh=0 dv=0
PairPos2: "'kern' Horizontal Kerning in Latin lookup 0 per glyph data 1" iacute dx=0 dy=0 dh=-21 dv=0 dx=0 dy=0 dh=0 dv=0
PairPos2: "'kern' Horizontal Kerning in Latin lookup 0 per glyph data 1" edieresis dx=0 dy=0 dh=-66 dv=0 dx=0 dy=0 dh=0 dv=0
PairPos2: "'kern' Horizontal Kerning in Latin lookup 0 per glyph data 1" edieresis dx=0 dy=0 dh=-66 dv=0 dx=0 dy=0 dh=0 dv=0
PairPos2: "'kern' Horizontal Kerning in Latin lookup 0 per glyph data 1" ecircumflex dx=0 dy=0 dh=-66 dv=0 dx=0 dy=0 dh=0 dv=0
PairPos2: "'kern' Horizontal Kerning in Latin lookup 0 per glyph data 1" ecircumflex dx=0 dy=0 dh=-66 dv=0 dx=0 dy=0 dh=0 dv=0
PairPos2: "'kern' Horizontal Kerning in Latin lookup 0 per glyph data 1" eacute dx=0 dy=0 dh=-131 dv=0 dx=0 dy=0 dh=0 dv=0
PairPos2: "'kern' Horizontal Kerning in Latin lookup 0 per glyph data 1" eacute dx=0 dy=0 dh=-131 dv=0 dx=0 dy=0 dh=0 dv=0
PairPos2: "'kern' Horizontal Kerning in Latin lookup 0 per glyph data 1" egrave dx=0 dy=0 dh=-66 dv=0 dx=0 dy=0 dh=0 dv=0
PairPos2: "'kern' Horizontal Kerning in Latin lookup 0 per glyph data 1" egrave dx=0 dy=0 dh=-66 dv=0 dx=0 dy=0 dh=0 dv=0
PairPos2: "'kern' Horizontal Kerning in Latin lookup 0 per glyph data 1" ae dx=0 dy=0 dh=-131 dv=0 dx=0 dy=0 dh=0 dv=0
PairPos2: "'kern' Horizontal Kerning in Latin lookup 0 per glyph data 1" ae dx=0 dy=0 dh=-131 dv=0 dx=0 dy=0 dh=0 dv=0
PairPos2: "'kern' Horizontal Kerning in Latin lookup 0 per glyph data 1" aring dx=0 dy=0 dh=-66 dv=0 dx=0 dy=0 dh=0 dv=0
PairPos2: "'kern' Horizontal Kerning in Latin lookup 0 per glyph data 1" aring dx=0 dy=0 dh=-66 dv=0 dx=0 dy=0 dh=0 dv=0
PairPos2: "'kern' Horizontal Kerning in Latin lookup 0 per glyph data 1" adieresis dx=0 dy=0 dh=-131 dv=0 dx=0 dy=0 dh=0 dv=0
PairPos2: "'kern' Horizontal Kerning in Latin lookup 0 per glyph data 1" adieresis dx=0 dy=0 dh=-131 dv=0 dx=0 dy=0 dh=0 dv=0
PairPos2: "'kern' Horizontal Kerning in Latin lookup 0 per glyph data 1" atilde dx=0 dy=0 dh=-34 dv=0 dx=0 dy=0 dh=0 dv=0
PairPos2: "'kern' Horizontal Kerning in Latin lookup 0 per glyph data 1" atilde dx=0 dy=0 dh=-34 dv=0 dx=0 dy=0 dh=0 dv=0
PairPos2: "'kern' Horizontal Kerning in Latin lookup 0 per glyph data 1" acircumflex dx=0 dy=0 dh=-34 dv=0 dx=0 dy=0 dh=0 dv=0
PairPos2: "'kern' Horizontal Kerning in Latin lookup 0 per glyph data 1" acircumflex dx=0 dy=0 dh=-34 dv=0 dx=0 dy=0 dh=0 dv=0
PairPos2: "'kern' Horizontal Kerning in Latin lookup 0 per glyph data 1" aacute dx=0 dy=0 dh=-131 dv=0 dx=0 dy=0 dh=0 dv=0
PairPos2: "'kern' Horizontal Kerning in Latin lookup 0 per glyph data 1" aacute dx=0 dy=0 dh=-131 dv=0 dx=0 dy=0 dh=0 dv=0
PairPos2: "'kern' Horizontal Kerning in Latin lookup 0 per glyph data 1" agrave dx=0 dy=0 dh=-34 dv=0 dx=0 dy=0 dh=0 dv=0
PairPos2: "'kern' Horizontal Kerning in Latin lookup 0 per glyph data 1" agrave dx=0 dy=0 dh=-34 dv=0 dx=0 dy=0 dh=0 dv=0
PairPos2: "'kern' Horizontal Kerning in Latin lookup 0 per glyph data 1" AE dx=0 dy=0 dh=-131 dv=0 dx=0 dy=0 dh=0 dv=0
PairPos2: "'kern' Horizontal Kerning in Latin lookup 0 per glyph data 1" AE dx=0 dy=0 dh=-131 dv=0 dx=0 dy=0 dh=0 dv=0
PairPos2: "'kern' Horizontal Kerning in Latin lookup 0 per glyph data 1" Aring dx=0 dy=0 dh=-131 dv=0 dx=0 dy=0 dh=0 dv=0
PairPos2: "'kern' Horizontal Kerning in Latin lookup 0 per glyph data 1" Aring dx=0 dy=0 dh=-131 dv=0 dx=0 dy=0 dh=0 dv=0
PairPos2: "'kern' Horizontal Kerning in Latin lookup 0 per glyph data 1" Adieresis dx=0 dy=0 dh=-131 dv=0 dx=0 dy=0 dh=0 dv=0
PairPos2: "'kern' Horizontal Kerning in Latin lookup 0 per glyph data 1" Adieresis dx=0 dy=0 dh=-131 dv=0 dx=0 dy=0 dh=0 dv=0
PairPos2: "'kern' Horizontal Kerning in Latin lookup 0 per glyph data 1" Atilde dx=0 dy=0 dh=-131 dv=0 dx=0 dy=0 dh=0 dv=0
PairPos2: "'kern' Horizontal Kerning in Latin lookup 0 per glyph data 1" Atilde dx=0 dy=0 dh=-131 dv=0 dx=0 dy=0 dh=0 dv=0
PairPos2: "'kern' Horizontal Kerning in Latin lookup 0 per glyph data 1" Acircumflex dx=0 dy=0 dh=-131 dv=0 dx=0 dy=0 dh=0 dv=0
PairPos2: "'kern' Horizontal Kerning in Latin lookup 0 per glyph data 1" Acircumflex dx=0 dy=0 dh=-131 dv=0 dx=0 dy=0 dh=0 dv=0
PairPos2: "'kern' Horizontal Kerning in Latin lookup 0 per glyph data 1" Aacute dx=0 dy=0 dh=-131 dv=0 dx=0 dy=0 dh=0 dv=0
PairPos2: "'kern' Horizontal Kerning in Latin lookup 0 per glyph data 1" Aacute dx=0 dy=0 dh=-131 dv=0 dx=0 dy=0 dh=0 dv=0
PairPos2: "'kern' Horizontal Kerning in Latin lookup 0 per glyph data 1" Agrave dx=0 dy=0 dh=-131 dv=0 dx=0 dy=0 dh=0 dv=0
PairPos2: "'kern' Horizontal Kerning in Latin lookup 0 per glyph data 1" Agrave dx=0 dy=0 dh=-131 dv=0 dx=0 dy=0 dh=0 dv=0
PairPos2: "'kern' Horizontal Kerning in Latin lookup 0 per glyph data 1" y dx=0 dy=0 dh=-131 dv=0 dx=0 dy=0 dh=0 dv=0
PairPos2: "'kern' Horizontal Kerning in Latin lookup 0 per glyph data 1" y dx=0 dy=0 dh=-131 dv=0 dx=0 dy=0 dh=0 dv=0
PairPos2: "'kern' Horizontal Kerning in Latin lookup 0 per glyph data 1" w dx=0 dy=0 dh=-176 dv=0 dx=0 dy=0 dh=0 dv=0
PairPos2: "'kern' Horizontal Kerning in Latin lookup 0 per glyph data 1" w dx=0 dy=0 dh=-176 dv=0 dx=0 dy=0 dh=0 dv=0
PairPos2: "'kern' Horizontal Kerning in Latin lookup 0 per glyph data 1" u dx=0 dy=0 dh=-131 dv=0 dx=0 dy=0 dh=0 dv=0
PairPos2: "'kern' Horizontal Kerning in Latin lookup 0 per glyph data 1" u dx=0 dy=0 dh=-131 dv=0 dx=0 dy=0 dh=0 dv=0
PairPos2: "'kern' Horizontal Kerning in Latin lookup 0 per glyph data 1" s dx=0 dy=0 dh=-131 dv=0 dx=0 dy=0 dh=0 dv=0
PairPos2: "'kern' Horizontal Kerning in Latin lookup 0 per glyph data 1" s dx=0 dy=0 dh=-131 dv=0 dx=0 dy=0 dh=0 dv=0
PairPos2: "'kern' Horizontal Kerning in Latin lookup 0 per glyph data 1" r dx=0 dy=0 dh=-131 dv=0 dx=0 dy=0 dh=0 dv=0
PairPos2: "'kern' Horizontal Kerning in Latin lookup 0 per glyph data 1" r dx=0 dy=0 dh=-131 dv=0 dx=0 dy=0 dh=0 dv=0
PairPos2: "'kern' Horizontal Kerning in Latin lookup 0 per glyph data 1" o dx=0 dy=0 dh=-131 dv=0 dx=0 dy=0 dh=0 dv=0
PairPos2: "'kern' Horizontal Kerning in Latin lookup 0 per glyph data 1" o dx=0 dy=0 dh=-131 dv=0 dx=0 dy=0 dh=0 dv=0
PairPos2: "'kern' Horizontal Kerning in Latin lookup 0 per glyph data 1" i dx=0 dy=0 dh=-43 dv=0 dx=0 dy=0 dh=0 dv=0
PairPos2: "'kern' Horizontal Kerning in Latin lookup 0 per glyph data 1" i dx=0 dy=0 dh=-43 dv=0 dx=0 dy=0 dh=0 dv=0
PairPos2: "'kern' Horizontal Kerning in Latin lookup 0 per glyph data 1" e dx=0 dy=0 dh=-131 dv=0 dx=0 dy=0 dh=0 dv=0
PairPos2: "'kern' Horizontal Kerning in Latin lookup 0 per glyph data 1" e dx=0 dy=0 dh=-131 dv=0 dx=0 dy=0 dh=0 dv=0
PairPos2: "'kern' Horizontal Kerning in Latin lookup 0 per glyph data 1" c dx=0 dy=0 dh=-131 dv=0 dx=0 dy=0 dh=0 dv=0
PairPos2: "'kern' Horizontal Kerning in Latin lookup 0 per glyph data 1" c dx=0 dy=0 dh=-131 dv=0 dx=0 dy=0 dh=0 dv=0
PairPos2: "'kern' Horizontal Kerning in Latin lookup 0 per glyph data 1" a dx=0 dy=0 dh=-131 dv=0 dx=0 dy=0 dh=0 dv=0
PairPos2: "'kern' Horizontal Kerning in Latin lookup 0 per glyph data 1" a dx=0 dy=0 dh=-131 dv=0 dx=0 dy=0 dh=0 dv=0
PairPos2: "'kern' Horizontal Kerning in Latin lookup 0 per glyph data 1" A dx=0 dy=0 dh=-131 dv=0 dx=0 dy=0 dh=0 dv=0
PairPos2: "'kern' Horizontal Kerning in Latin lookup 0 per glyph data 1" A dx=0 dy=0 dh=-131 dv=0 dx=0 dy=0 dh=0 dv=0
PairPos2: "'kern' Horizontal Kerning in Latin lookup 0 per glyph data 1" semicolon dx=0 dy=0 dh=-88 dv=0 dx=0 dy=0 dh=0 dv=0
PairPos2: "'kern' Horizontal Kerning in Latin lookup 0 per glyph data 1" semicolon dx=0 dy=0 dh=-88 dv=0 dx=0 dy=0 dh=0 dv=0
PairPos2: "'kern' Horizontal Kerning in Latin lookup 0 per glyph data 1" colon dx=0 dy=0 dh=-88 dv=0 dx=0 dy=0 dh=0 dv=0
PairPos2: "'kern' Horizontal Kerning in Latin lookup 0 per glyph data 1" colon dx=0 dy=0 dh=-88 dv=0 dx=0 dy=0 dh=0 dv=0
PairPos2: "'kern' Horizontal Kerning in Latin lookup 0 per glyph data 1" period dx=0 dy=0 dh=-176 dv=0 dx=0 dy=0 dh=0 dv=0
PairPos2: "'kern' Horizontal Kerning in Latin lookup 0 per glyph data 1" period dx=0 dy=0 dh=-176 dv=0 dx=0 dy=0 dh=0 dv=0
PairPos2: "'kern' Horizontal Kerning in Latin lookup 0 per glyph data 1" hyphen dx=0 dy=0 dh=-131 dv=0 dx=0 dy=0 dh=0 dv=0
PairPos2: "'kern' Horizontal Kerning in Latin lookup 0 per glyph data 1" hyphen dx=0 dy=0 dh=-131 dv=0 dx=0 dy=0 dh=0 dv=0
PairPos2: "'kern' Horizontal Kerning in Latin lookup 0 per glyph data 1" comma dx=0 dy=0 dh=-176 dv=0 dx=0 dy=0 dh=0 dv=0
PairPos2: "'kern' Horizontal Kerning in Latin lookup 0 per glyph data 1" comma dx=0 dy=0 dh=-176 dv=0 dx=0 dy=0 dh=0 dv=0
EndChar

StartChar: U
Encoding: 85 85 56
Width: 1405
GlyphClass: 2
Flags: MW
LayerCount: 2
Fore
SplineSet
793 52 m 1,0,1
 1003.33303505 61.4178970917 1003.33303505 61.4178970917 1068.5 216 c 0,2,3
 1090 267 1090 267 1090 334 c 2,4,-1
 1090 1225 l 2,5,6
 1090 1308.33333333 1090 1308.33333333 992 1341 c 0,7,8
 965 1350 965 1350 938 1362 c 1,9,-1
 938 1421 l 1,10,-1
 1358 1421 l 1,11,-1
 1358 1362 l 1,12,13
 1331 1350 1331 1350 1303.5 1341 c 128,-1,14
 1276 1332 1276 1332 1254 1318.5 c 0,15,16
 1204 1287.81818182 1204 1287.81818182 1204 1225 c 2,17,-1
 1204 365 l 2,18,19
 1204 1.35714285714 1204 1.35714285714 793 -28 c 1,20,-1
 793 52 l 1,0,1
710 -31 m 1,21,22
 335.751633987 -31 335.751633987 -31 233.5 202.5 c 0,23,24
 200 279 200 279 200 379 c 2,25,-1
 200 1237 l 2,26,27
 200 1301.16666667 200 1301.16666667 161 1325 c 0,28,29
 143 1336 143 1336 118 1343 c 128,-1,30
 93 1350 93 1350 64 1362 c 1,31,-1
 64 1421 l 1,32,-1
 587 1421 l 1,33,-1
 587 1362 l 1,34,35
 557 1350 557 1350 532 1343 c 128,-1,36
 507 1336 507 1336 488.5 1325 c 0,37,38
 449 1301.51351351 449 1301.51351351 449 1237 c 2,39,-1
 449 332 l 2,40,41
 449 215.208955224 449 215.208955224 519.5 140.5 c 0,42,43
 587.657610129 68.2732788183 587.657610129 68.2732788183 710 54 c 1,44,-1
 710 -31 l 1,21,22
EndSplineSet
EndChar

StartChar: V
Encoding: 86 86 57
Width: 1187
GlyphClass: 2
Flags: MW
LayerCount: 2
Fore
SplineSet
701 427 m 1,0,1
 701 434.72972973 701 434.72972973 731 519.864864865 c 128,-1,2
 761 605 761 605 784.5 672 c 128,-1,3
 808 739 808 739 832.5 810 c 128,-1,4
 857 881 857 881 880.5 952 c 128,-1,5
 904 1023 904 1023 922.5 1084 c 0,6,7
 964 1220.83783784 964 1220.83783784 964 1256.41891892 c 128,-1,8
 964 1292 964 1292 951.5 1306.5 c 128,-1,9
 939 1321 939 1321 920 1327 c 128,-1,10
 901 1333 901 1333 879 1338 c 128,-1,11
 857 1343 857 1343 838 1358 c 1,12,-1
 838 1421 l 1,13,-1
 1232 1421 l 1,14,-1
 1232 1358 l 1,15,16
 1216 1348 1216 1348 1197 1341 c 128,-1,17
 1178 1334 1178 1334 1158.5 1323.5 c 0,18,19
 1112.20869565 1298.57391304 1112.20869565 1298.57391304 1092 1243 c 2,20,-1
 750 257 l 1,21,-1
 701 427 l 1,0,1
715 156 m 1,22,-1
 653 -23 l 1,23,-1
 530 -23 l 1,24,-1
 101 1270 l 2,25,26
 84.4411764706 1317.60661765 84.4411764706 1317.60661765 14 1340.5 c 0,27,28
 -6 1347 -6 1347 -27 1358 c 1,29,-1
 -27 1421 l 1,30,-1
 489 1421 l 1,31,-1
 489 1358 l 1,32,33
 464 1348 464 1348 440 1342 c 128,-1,34
 416 1336 416 1336 397.5 1328.5 c 0,35,36
 356 1311.67567568 356 1311.67567568 356 1282.33783784 c 128,-1,37
 356 1253 356 1253 367.5 1222 c 128,-1,38
 379 1191 379 1191 392 1151 c 2,39,-1
 715 156 l 1,22,-1
EndSplineSet
EndChar

StartChar: W
Encoding: 87 87 58
Width: 1715
GlyphClass: 2
Flags: MW
LayerCount: 2
Fore
SplineSet
1294 470 m 1,0,1
 1335.14285714 605.428571429 1335.14285714 605.428571429 1386.57142857 786.714285714 c 128,-1,2
 1438 968 1438 968 1458 1038 c 128,-1,3
 1478 1108 1478 1108 1494.5 1164.5 c 128,-1,4
 1511 1221 1511 1221 1511 1256 c 128,-1,5
 1511 1291 1511 1291 1499.5 1306 c 128,-1,6
 1488 1321 1488 1321 1469.5 1329.5 c 128,-1,7
 1451 1338 1451 1338 1428 1343.5 c 128,-1,8
 1405 1349 1405 1349 1382 1358 c 1,9,-1
 1382 1421 l 1,10,-1
 1765 1421 l 1,11,-1
 1765 1358 l 1,12,13
 1751 1348 1751 1348 1733.5 1342 c 128,-1,14
 1716 1336 1716 1336 1699 1328.5 c 0,15,16
 1656.63212435 1309.80829016 1656.63212435 1309.80829016 1644.31606218 1282.40414508 c 0,17,18
 1626.50948688 1242.78320409 1626.50948688 1242.78320409 1608 1178 c 2,19,-1
 1346 292 l 1,20,-1
 1294 470 l 1,0,1
1309 168 m 1,21,-1
 1253 -23 l 1,22,-1
 1128 -23 l 1,23,-1
 857 897 l 1,24,-1
 852 897 l 1,25,-1
 676 277 l 1,26,-1
 625 462 l 1,27,-1
 767 954 l 2,28,29
 778 993 778 993 788 1022 c 128,-1,30
 798 1051 798 1051 802 1077 c 1,31,32
 785.1424 1176.0384 785.1424 1176.0384 760.0712 1238.5192 c 128,-1,33
 735 1301 735 1301 720.5 1312.5 c 128,-1,34
 706 1324 706 1324 690 1331 c 128,-1,35
 674 1338 674 1338 658 1343 c 128,-1,36
 642 1348 642 1348 630 1358 c 1,37,-1
 630 1421 l 1,38,-1
 1106 1421 l 1,39,-1
 1106 1358 l 1,40,41
 1087 1349 1087 1349 1066 1344 c 128,-1,42
 1045 1339 1045 1339 1027 1332 c 0,43,44
 985 1315.66666667 985 1315.66666667 985 1286.83333333 c 128,-1,45
 985 1258 985 1258 994.5 1228 c 128,-1,46
 1004 1198 1004 1198 1018 1153 c 2,47,-1
 1309 168 l 1,21,-1
641 153 m 1,48,-1
 591 -23 l 1,49,-1
 460 -23 l 1,50,-1
 102 1214 l 1,51,52
 72.2 1310.85 72.2 1310.85 47 1324.5 c 0,53,54
 35 1331 35 1331 21.5 1335.5 c 0,55,56
 -14.95 1347.65 -14.95 1347.65 -23 1358 c 1,57,-1
 -23 1421 l 1,58,-1
 444 1421 l 1,59,-1
 444 1358 l 1,60,61
 426 1348 426 1348 405.5 1342.5 c 128,-1,62
 385 1337 385 1337 367.5 1330 c 0,63,64
 326 1313.4 326 1313.4 326 1283.7 c 128,-1,65
 326 1254 326 1254 336 1225 c 128,-1,66
 346 1196 346 1196 356 1161 c 2,67,-1
 641 153 l 1,48,-1
EndSplineSet
EndChar

StartChar: X
Encoding: 88 88 59
Width: 1230
GlyphClass: 2
Flags: MW
LayerCount: 2
Fore
SplineSet
699 961 m 1,0,1
 749 1034 749 1034 785.5 1087 c 128,-1,2
 822 1140 822 1140 846 1178.5 c 0,3,4
 893 1253.89583333 893 1253.89583333 893 1280.94791667 c 128,-1,5
 893 1308 893 1308 882 1318 c 128,-1,6
 871 1328 871 1328 853.5 1334 c 128,-1,7
 836 1340 836 1340 814.5 1344.5 c 128,-1,8
 793 1349 793 1349 772 1358 c 1,9,-1
 772 1421 l 1,10,-1
 1216 1421 l 1,11,-1
 1216 1358 l 1,12,13
 1195.53461538 1345.96153846 1195.53461538 1345.96153846 1154.76730769 1336.48076923 c 0,14,15
 1084.50743494 1320.14126394 1084.50743494 1320.14126394 1060 1294 c 0,16,17
 973.195652174 1199.30434783 973.195652174 1199.30434783 829 975 c 0,18,19
 793 919 793 919 754 862 c 1,20,-1
 699 961 l 1,0,1
535 555 m 1,21,22
 480 472 480 472 440 413 c 128,-1,23
 400 354 400 354 373 313 c 128,-1,24
 346 272 346 272 329.5 246 c 128,-1,25
 313 220 313 220 304 203 c 0,26,27
 289 174.666666667 289 174.666666667 289 146.833333333 c 128,-1,28
 289 119 289 119 301 106.5 c 128,-1,29
 313 94 313 94 331.5 89 c 128,-1,30
 350 84 350 84 373.5 80.5 c 128,-1,31
 397 77 397 77 420 61 c 1,32,-1
 420 0 l 1,33,-1
 -23 0 l 1,34,-1
 -23 61 l 1,35,36
 -6.375 75.25 -6.375 75.25 28.3125 84.625 c 0,37,38
 94.2382739212 102.442776735 94.2382739212 102.442776735 112.619136961 122.721388368 c 0,39,40
 151.163622331 165.245433496 151.163622331 165.245433496 169 192 c 2,41,-1
 472 654 l 1,42,-1
 535 555 l 1,21,22
194 1231 m 2,43,44
 183 1250 183 1250 170.5 1266 c 128,-1,45
 158 1282 158 1282 147 1298 c 1,46,47
 128.6 1321 128.6 1321 96.3 1329.5 c 128,-1,48
 64 1338 64 1338 44 1343 c 128,-1,49
 24 1348 24 1348 7 1358 c 1,50,-1
 7 1421 l 1,51,-1
 539 1421 l 1,52,-1
 539 1364 l 1,53,54
 519 1353 519 1353 500 1347 c 128,-1,55
 481 1341 481 1341 465 1335 c 0,56,57
 430 1321.875 430 1321.875 430 1294 c 0,58,59
 430 1274.82352941 430 1274.82352941 456 1232 c 2,60,-1
 1027 278 l 1,61,62
 1052.83783784 232.783783784 1052.83783784 232.783783784 1093.41891892 177.391891892 c 128,-1,63
 1134 122 1134 122 1153.5 109 c 128,-1,64
 1173 96 1173 96 1190.5 89 c 128,-1,65
 1208 82 1208 82 1224 77 c 128,-1,66
 1240 72 1240 72 1253 61 c 1,67,-1
 1253 0 l 1,68,-1
 707 0 l 1,69,-1
 707 61 l 1,70,71
 728 72 728 72 751.5 76.5 c 128,-1,72
 775 81 775 81 795 87 c 0,73,74
 841 100.8 841 100.8 841 137 c 0,75,76
 841 159 841 159 801 223 c 1,77,-1
 194 1231 l 2,43,44
EndSplineSet
EndChar

StartChar: Y
Encoding: 89 89 60
Width: 1187
GlyphClass: 2
Flags: MW
LayerCount: 2
Fore
SplineSet
709 792 m 1,0,1
 903.318181818 1169.84090909 903.318181818 1169.84090909 917.159090909 1206.42045455 c 0,2,3
 934 1250.92857143 934 1250.92857143 934 1273.46428571 c 128,-1,4
 934 1296 934 1296 921 1309.5 c 128,-1,5
 908 1323 908 1323 888.5 1330.5 c 128,-1,6
 869 1338 869 1338 845 1343.5 c 128,-1,7
 821 1349 821 1349 800 1358 c 1,8,-1
 800 1421 l 1,9,-1
 1230 1421 l 1,10,-1
 1230 1358 l 1,11,12
 1214.23828125 1346.44140625 1214.23828125 1346.44140625 1174.11914062 1333.72070312 c 128,-1,13
 1134 1321 1134 1321 1115.5 1311.5 c 128,-1,14
 1097 1302 1097 1302 1070 1261.5 c 128,-1,15
 1043 1221 1043 1221 1003 1148.5 c 128,-1,16
 963 1076 963 1076 924 998.5 c 128,-1,17
 885 921 885 921 846.5 841.5 c 128,-1,18
 808 762 808 762 769 685 c 1,19,-1
 709 792 l 1,0,1
727 603 m 1,20,-1
 717 588 l 1,21,-1
 717 231 l 2,22,23
 717 118.4375 717 118.4375 771 96.5 c 0,24,25
 787 90 787 90 805 85.5 c 0,26,27
 859.8 71.8 859.8 71.8 879 59 c 1,28,-1
 879 0 l 1,29,-1
 306 0 l 1,30,-1
 306 59 l 1,31,32
 327.694029851 72.7014925373 327.694029851 72.7014925373 363.347014925 80.8507462687 c 128,-1,33
 399 89 399 89 415 95.5 c 128,-1,34
 431 102 431 102 442.5 117.5 c 0,35,36
 467 150.52173913 467 150.52173913 467 236 c 2,37,-1
 467 592 l 1,38,-1
 120 1257 l 2,39,40
 91.0625686059 1312.8079034 91.0625686059 1312.8079034 8.5 1341 c 0,41,42
 -12 1348 -12 1348 -31 1358 c 1,43,-1
 -31 1421 l 1,44,-1
 528 1421 l 1,45,-1
 528 1358 l 1,46,47
 504 1348 504 1348 479.5 1343 c 128,-1,48
 455 1338 455 1338 435.5 1331.5 c 0,49,50
 392 1317 392 1317 392 1282 c 0,51,52
 392 1255.64864865 392 1255.64864865 423 1195.32432432 c 128,-1,53
 454 1135 454 1135 484.5 1075.5 c 128,-1,54
 515 1016 515 1016 560.5 928 c 128,-1,55
 606 840 606 840 670 715 c 2,56,-1
 727 603 l 1,20,-1
EndSplineSet
EndChar

StartChar: Z
Encoding: 90 90 61
Width: 1164
GlyphClass: 2
Flags: MW
LayerCount: 2
Fore
SplineSet
434 88 m 1,0,1
 570 88 570 88 668.5 102.5 c 128,-1,2
 767 117 767 117 811.5 142 c 128,-1,3
 856 167 856 167 885 201 c 128,-1,4
 914 235 914 235 931 276 c 128,-1,5
 948 317 948 317 961.5 358.5 c 0,6,7
 999.597573306 475.614762386 999.597573306 475.614762386 1024 510 c 1,8,-1
 1094 510 l 1,9,-1
 1094 0 l 1,10,-1
 384 0 l 1,11,-1
 434 88 l 1,0,1
123 1436 m 1,12,13
 190.5 1421 190.5 1421 283 1421 c 2,14,-1
 753 1421 l 1,15,-1
 703 1333 l 1,16,17
 480.604651163 1333 480.604651163 1333 399.5 1295.5 c 0,18,19
 313.487320212 1255.73069644 313.487320212 1255.73069644 275.5 1176.5 c 0,20,21
 252.745657568 1129.04094293 252.745657568 1129.04094293 230.872828784 1061.52047146 c 128,-1,22
 209 994 209 994 190 967 c 1,23,-1
 123 967 l 1,24,-1
 123 1436 l 1,12,13
844 1421 m 1,25,-1
 1076 1421 l 1,26,-1
 1076 1346 l 1,27,-1
 284 0 l 1,28,-1
 59 0 l 1,29,-1
 59 92 l 1,30,-1
 844 1421 l 1,25,-1
EndSplineSet
EndChar

StartChar: bracketleft
Encoding: 91 91 62
Width: 988
GlyphClass: 2
Flags: MW
LayerCount: 2
Fore
SplineSet
335 1438 m 1,0,-1
 732 1438 l 1,1,-1
 732 1368 l 2,2,3
 732 1357 732 1357 717.5 1353.5 c 128,-1,4
 703 1350 703 1350 677 1343 c 1,5,6
 579.382022472 1334.86516854 579.382022472 1334.86516854 557.691011236 1318.43258427 c 128,-1,7
 536 1302 536 1302 530.5 1281.5 c 128,-1,8
 525 1261 525 1261 525 1229 c 2,9,-1
 525 -160 l 2,10,11
 525 -225 525 -225 547 -241 c 0,12,13
 581.423529412 -266.035294118 581.423529412 -266.035294118 677 -274 c 1,14,15
 703 -279 703 -279 717.5 -283 c 128,-1,16
 732 -287 732 -287 732 -299 c 2,17,-1
 732 -367 l 1,18,-1
 335 -367 l 1,19,-1
 335 1438 l 1,0,-1
EndSplineSet
EndChar

StartChar: backslash
Encoding: 92 92 63
Width: 594
GlyphClass: 2
Flags: MW
LayerCount: 2
Fore
SplineSet
55 1452 m 1,0,-1
 705 -31 l 1,1,-1
 537 -31 l 1,2,-1
 -113 1452 l 1,3,-1
 55 1452 l 1,0,-1
EndSplineSet
EndChar

StartChar: bracketright
Encoding: 93 93 64
Width: 988
GlyphClass: 2
Flags: MW
LayerCount: 2
Fore
SplineSet
653 -367 m 1,0,-1
 256 -367 l 1,1,-1
 256 -299 l 2,2,3
 256 -287 256 -287 270 -283 c 128,-1,4
 284 -279 284 -279 321 -274.5 c 128,-1,5
 358 -270 358 -270 388 -263.5 c 128,-1,6
 418 -257 418 -257 434.5 -245 c 0,7,8
 462 -225 462 -225 462 -160 c 2,9,-1
 462 1229 l 2,10,11
 462 1293.66666667 462 1293.66666667 440 1310.33333333 c 0,12,13
 407.617977528 1334.86516854 407.617977528 1334.86516854 310 1343 c 1,14,15
 284 1350 284 1350 270 1353.5 c 128,-1,16
 256 1357 256 1357 256 1368 c 2,17,-1
 256 1438 l 1,18,-1
 653 1438 l 1,19,-1
 653 -367 l 1,0,-1
EndSplineSet
EndChar

StartChar: asciicircum
Encoding: 94 94 65
Width: 1425
GlyphClass: 2
Flags: MW
LayerCount: 2
Fore
SplineSet
211 680 m 1,0,-1
 639 1421 l 1,1,-1
 786 1421 l 1,2,-1
 1214 680 l 1,3,-1
 1035 680 l 1,4,-1
 712 1247 l 1,5,-1
 388 680 l 1,6,-1
 211 680 l 1,0,-1
EndSplineSet
EndChar

StartChar: underscore
Encoding: 95 95 66
Width: 1187
GlyphClass: 2
Flags: MW
LayerCount: 2
Fore
SplineSet
0 -256 m 1,0,-1
 0 -154 l 1,1,-1
 1187 -154 l 1,2,-1
 1187 -256 l 1,3,-1
 0 -256 l 1,0,-1
EndSplineSet
EndChar

StartChar: grave
Encoding: 96 96 67
Width: 637
GlyphClass: 2
Flags: MW
LayerCount: 2
Fore
SplineSet
394 1096 m 1,0,-1
 55 1296 l 2,1,2
 -9 1333.16129032 -9 1333.16129032 -9 1376 c 0,3,4
 -9 1419.10344828 -9 1419.10344828 36.5 1439.5 c 0,5,6
 51 1446 51 1446 78.5 1446 c 0,7,8
 120.933333333 1446 120.933333333 1446 202 1370 c 1,9,-1
 489 1096 l 1,10,-1
 394 1096 l 1,0,-1
EndSplineSet
EndChar

StartChar: a
Encoding: 97 97 68
Width: 1054
GlyphClass: 2
Flags: MW
LayerCount: 2
Fore
SplineSet
572 510 m 1,0,1
 304 412.545454545 304 412.545454545 304 227 c 0,2,3
 304 152 304 152 340 106.5 c 128,-1,4
 376 61 376 61 447.5 61 c 128,-1,5
 519 61 519 61 572 114 c 1,6,-1
 572 19 l 1,7,8
 494.636363636 -27 494.636363636 -27 397.818181818 -27 c 128,-1,9
 301 -27 301 -27 242.5 -8 c 128,-1,10
 184 11 184 11 143.5 44 c 0,11,12
 61 111.222222222 61 111.222222222 61 221 c 0,13,14
 61 447.842105263 61 447.842105263 464 564.5 c 0,15,16
 521 581 521 581 572 594 c 1,17,-1
 572 510 l 1,0,1
335 868 m 1,18,19
 390 847.137931034 390 847.137931034 390 772 c 0,20,21
 390 724 390 724 356 695 c 128,-1,22
 322 666 322 666 264.5 666 c 128,-1,23
 207 666 207 666 173.5 697 c 128,-1,24
 140 728 140 728 140 777 c 128,-1,25
 140 826 140 826 163 865 c 128,-1,26
 186 904 186 904 227.5 934 c 0,27,28
 314.609026798 996.970380818 314.609026798 996.970380818 447 1007 c 1,29,-1
 447 931 l 1,30,31
 366 923 366 923 335 868 c 1,18,19
930 99 m 256,32,33
 985.185185185 99 985.185185185 99 1000 199 c 1,34,-1
 1051 172 l 1,35,36
 1041 75 1041 75 997.5 24 c 128,-1,37
 954 -27 954 -27 859 -27 c 0,38,39
 784.513513514 -27 784.513513514 -27 748.756756757 0 c 0,40,41
 690.649122807 43.8771929825 690.649122807 43.8771929825 655 133 c 1,42,-1
 655 756 l 2,43,44
 655 818 655 818 622.5 863.5 c 128,-1,45
 590 909 590 909 530 925 c 1,46,-1
 530 1007 l 1,47,48
 869 988.968085106 869 988.968085106 869 649 c 2,49,-1
 869 176 l 2,50,51
 869 99 869 99 930 99 c 256,32,33
EndSplineSet
EndChar

StartChar: b
Encoding: 98 98 69
Width: 1097
GlyphClass: 2
Flags: MW
LayerCount: 2
Fore
SplineSet
740.5 7 m 128,-1,1
 660 -27 660 -27 584.357142857 -27 c 128,-1,2
 508.714285714 -27 508.714285714 -27 453 -12 c 1,3,-1
 453 87 l 1,4,5
 494.066666667 59 494.066666667 59 546 59 c 0,6,7
 779 59 779 59 779 483 c 0,8,9
 779 821.278481013 779 821.278481013 653.5 888 c 0,10,11
 614 909 614 909 572 909 c 128,-1,12
 530 909 530 909 504 890.5 c 128,-1,13
 478 872 478 872 453 849 c 1,14,-1
 453 966 l 1,15,16
 523.736842105 1008 523.736842105 1008 600.368421053 1008 c 128,-1,17
 677 1008 677 1008 751 977 c 128,-1,18
 825 946 825 946 884.5 882.5 c 0,19,20
 1019 738.957983193 1019 738.957983193 1019 489 c 0,21,22
 1019 251.774193548 1019 251.774193548 883 107 c 0,23,0
 821 41 821 41 740.5 7 c 128,-1,1
143 -8 m 1,24,25
 157 90 157 90 157 219 c 2,26,-1
 157 1247 l 2,27,28
 157 1306.8 157 1306.8 117.5 1330.5 c 0,29,30
 100 1341 100 1341 79 1347.5 c 128,-1,31
 58 1354 58 1354 38 1366 c 1,32,-1
 38 1427 l 1,33,-1
 370 1427 l 1,34,-1
 370 13 l 1,35,36
 318.695652174 33.5217391304 318.695652174 33.5217391304 296 60 c 1,37,38
 268.171641791 47.3507462687 268.171641791 47.3507462687 249.085820896 23.1753731343 c 128,-1,39
 230 -1 230 -1 224 -8 c 1,40,-1
 143 -8 l 1,24,25
EndSplineSet
EndChar

StartChar: c
Encoding: 99 99 70
Width: 967
GlyphClass: 2
Flags: MW
LayerCount: 2
Fore
SplineSet
727 846 m 1,0,1
 698.706806283 914.712041885 698.706806283 914.712041885 602 925 c 1,2,-1
 602 1006 l 1,3,4
 735.042821159 998.608732158 735.042821159 998.608732158 814.5 918 c 0,5,6
 883 848.507246377 883 848.507246377 883 759 c 0,7,8
 883 667.468085106 883 667.468085106 811.5 634 c 0,9,10
 788 623 788 623 747 623 c 128,-1,11
 706 623 706 623 673.5 653.5 c 128,-1,12
 641 684 641 684 641 724 c 128,-1,13
 641 764 641 764 650 783 c 128,-1,14
 659 802 659 802 672 814 c 128,-1,15
 685 826 685 826 700 833 c 128,-1,16
 715 840 715 840 727 846 c 1,0,1
602 64 m 1,17,18
 724.361904762 81.8444444444 724.361904762 81.8444444444 782.5 217.5 c 0,19,20
 799 256 799 256 812 295 c 1,21,-1
 895 270 l 1,22,23
 839.372380553 76.9394383906 839.372380553 76.9394383906 712.5 11.5 c 0,24,25
 665 -13 665 -13 602 -22 c 1,26,-1
 602 64 l 1,17,18
310 492 m 0,27,28
 310 100.347826087 310 100.347826087 519 64 c 1,29,-1
 519 -27 l 1,30,31
 329.686378036 -22.793030623 329.686378036 -22.793030623 204.5 108.5 c 0,32,33
 71 248.512195122 71 248.512195122 71 481 c 0,34,35
 71 685.677966102 71 685.677966102 195 837 c 0,36,37
 323.066597908 993.284661854 323.066597908 993.284661854 519 1007 c 1,38,-1
 519 919 l 1,39,40
 368.767857143 883.839285714 368.767857143 883.839285714 325 665 c 0,41,42
 310 590 310 590 310 492 c 0,27,28
EndSplineSet
EndChar

StartChar: d
Encoding: 100 100 71
Width: 1097
GlyphClass: 2
Flags: MW
LayerCount: 2
Fore
SplineSet
727 1262 m 2,0,1
 727 1315.61111111 727 1315.61111111 687 1334.5 c 0,2,3
 669 1343 669 1343 646 1348.5 c 128,-1,4
 623 1354 623 1354 600 1366 c 1,5,-1
 600 1427 l 1,6,-1
 940 1427 l 1,7,-1
 940 182 l 2,8,9
 940 101.707317073 940 101.707317073 1019.5 76.5 c 0,10,11
 1040 70 1040 70 1058 59 c 1,12,-1
 1058 0 l 1,13,-1
 727 0 l 1,14,-1
 727 1262 l 2,0,1
532 909 m 0,15,16
 318 909 318 909 318 484 c 128,-1,17
 318 59 318 59 520 59 c 0,18,19
 579.866666667 59 579.866666667 59 644 133 c 1,20,-1
 644 14 l 1,21,22
 578.4 -27 578.4 -27 488.2 -27 c 128,-1,23
 398 -27 398 -27 325 7 c 128,-1,24
 252 41 252 41 197.5 106.5 c 0,25,26
 79 248.917431193 79 248.917431193 79 481 c 0,27,28
 79 713.36036036 79 713.36036036 196.5 860.5 c 0,29,30
 314.287769784 1008 314.287769784 1008 493 1008 c 0,31,32
 572.470588235 1008 572.470588235 1008 644 970 c 1,33,-1
 644 875 l 1,34,35
 596 909 596 909 532 909 c 0,15,16
EndSplineSet
EndChar

StartChar: e
Encoding: 101 101 72
Width: 1050
GlyphClass: 2
Flags: MW
LayerCount: 2
Fore
SplineSet
720 596 m 1,0,1
 720 884 720 884 576 920 c 1,2,-1
 576 1006 l 1,3,4
 762.536585366 988.512195122 762.536585366 988.512195122 864 849 c 0,5,6
 959 718.375 959 718.375 959 508 c 1,7,-1
 393 508 l 1,8,-1
 393 596 l 1,9,-1
 720 596 l 1,0,1
580 61 m 1,10,11
 754.160990712 68.9164086687 754.160990712 68.9164086687 827 225 c 0,12,13
 848 270 848 270 863 317 c 1,14,-1
 949 285 l 1,15,16
 892.560592851 75.8421970357 892.560592851 75.8421970357 720.5 4.5 c 0,17,18
 659 -21 659 -21 580 -26 c 1,19,-1
 580 61 l 1,10,11
309 553 m 0,20,21
 309 122.714285714 309 122.714285714 497 69 c 1,22,-1
 497 -23 l 1,23,24
 301.225543478 -1.2472826087 301.225543478 -1.2472826087 185.5 139.5 c 0,25,26
 71 278.756756757 71 278.756756757 71 489 c 0,27,28
 71 709.818181818 71 709.818181818 186 852 c 0,29,30
 301.696999032 995.043562439 301.696999032 995.043562439 493 1007 c 1,31,-1
 493 924 l 1,32,33
 309 901.56097561 309 901.56097561 309 553 c 0,20,21
EndSplineSet
EndChar

StartChar: f
Encoding: 102 102 73
Width: 660
GlyphClass: 2
Flags: MW
LayerCount: 2
Fore
SplineSet
415 221 m 2,0,1
 415 110.720930233 415 110.720930233 460.5 88.5 c 0,2,3
 482 78 482 78 511 74 c 128,-1,4
 540 70 540 70 575 53 c 1,5,-1
 575 0 l 1,6,-1
 55 0 l 1,7,-1
 55 53 l 1,8,9
 74.8 66.2 74.8 66.2 108.4 74.6 c 128,-1,10
 142 83 142 83 156 88.5 c 128,-1,11
 170 94 170 94 180.5 107 c 0,12,13
 202 133.619047619 202 133.619047619 202 203 c 2,14,-1
 202 893 l 1,15,-1
 41 893 l 1,16,-1
 41 950 l 1,17,18
 54.6064257028 964.843373494 54.6064257028 964.843373494 98.3032128514 970.421686747 c 0,19,20
 179.829268293 980.829268293 179.829268293 980.829268293 200 1001 c 1,21,22
 210.662211422 1203.58201701 210.662211422 1203.58201701 244.331105711 1277.79100851 c 128,-1,23
 278 1352 278 1352 317 1386.5 c 128,-1,24
 356 1421 356 1421 415 1437 c 1,25,-1
 415 221 l 2,0,1
660 1320 m 1,26,27
 639 1376 639 1376 530 1376 c 0,28,29
 515 1376 515 1376 498 1371 c 1,30,-1
 498 1450 l 1,31,32
 520 1452 520 1452 559 1452 c 128,-1,33
 598 1452 598 1452 642.5 1439.5 c 128,-1,34
 687 1427 687 1427 719.5 1403.5 c 0,35,36
 789 1353.24615385 789 1353.24615385 789 1270 c 0,37,38
 789 1216.06451613 789 1216.06451613 753.5 1184 c 0,39,40
 723.607142857 1157 723.607142857 1157 690.803571429 1157 c 128,-1,41
 658 1157 658 1157 640.5 1162.5 c 128,-1,42
 623 1168 623 1168 609.5 1178.5 c 0,43,44
 580 1201.44444444 580 1201.44444444 580 1241 c 0,45,46
 580 1299.04761905 580 1299.04761905 660 1320 c 1,26,27
498 981 m 1,47,-1
 628 981 l 1,48,-1
 628 893 l 1,49,-1
 498 893 l 1,50,-1
 498 981 l 1,47,-1
EndSplineSet
EndChar

StartChar: g
Encoding: 103 103 74
Width: 1033
GlyphClass: 2
Flags: MW
LayerCount: 2
Fore
SplineSet
356 320 m 1,0,1
 329 268.25 329 268.25 329 211 c 0,2,3
 329 207 329 207 357.5 207.5 c 128,-1,4
 386 208 386 208 432.5 207.5 c 128,-1,5
 479 207 479 207 538.5 204.5 c 128,-1,6
 598 202 598 202 660 193.5 c 128,-1,7
 722 185 722 185 781.5 168 c 128,-1,8
 841 151 841 151 887.5 122 c 0,9,10
 991 57.4516129032 991 57.4516129032 991 -55 c 0,11,12
 991 -182.513513514 991 -182.513513514 875.5 -272 c 0,13,14
 756.573436313 -364.141301595 756.573436313 -364.141301595 566 -372 c 1,15,-1
 566 -306 l 1,16,17
 685.705919198 -298.399624178 685.705919198 -298.399624178 761 -237.5 c 0,18,19
 830 -181.691176471 830 -181.691176471 830 -102.845588235 c 128,-1,20
 830 -24 830 -24 752.5 21 c 128,-1,21
 675 66 675 66 548 66 c 128,-1,22
 421 66 421 66 343 57 c 1,23,24
 274.726986625 32.4217151849 274.726986625 32.4217151849 265 -53.5 c 0,25,26
 262 -80 262 -80 262 -113.5 c 128,-1,27
 262 -147 262 -147 278.5 -180.5 c 128,-1,28
 295 -214 295 -214 323.5 -240 c 0,29,30
 383.616075886 -294.842735896 383.616075886 -294.842735896 473 -305 c 1,31,-1
 473 -372 l 1,32,33
 300.243027888 -362.402390438 300.243027888 -362.402390438 196.5 -280.5 c 0,34,35
 101 -205.105263158 101 -205.105263158 101 -102 c 0,36,37
 101 13.7924528302 101 13.7924528302 200.5 79.5 c 0,38,39
 227 97 227 97 253 106 c 1,40,-1
 253 111 l 1,41,42
 201.615384615 123.846153846 201.615384615 123.846153846 176 195 c 0,43,44
 167 220 167 220 167 244.5 c 128,-1,45
 167 269 167 269 175 284.5 c 128,-1,46
 183 300 183 300 196.5 313.5 c 0,47,48
 220.333333333 337.333333333 220.333333333 337.333333333 260 363 c 1,49,-1
 356 320 l 1,0,1
342 680 m 256,50,51
 342 455.153846154 342 455.153846154 464 427 c 1,52,-1
 464 358 l 1,53,54
 377.23255814 364.197674419 377.23255814 364.197674419 293.61627907 412.098837209 c 0,55,56
 122 510.412460019 122 510.412460019 122 688 c 0,57,58
 122 815.444444444 122 815.444444444 217 902 c 0,59,60
 311.321670832 987.937522313 311.321670832 987.937522313 464 1002 c 1,61,-1
 464 933 l 1,62,63
 342 904.846153846 342 904.846153846 342 680 c 256,50,51
838 933.5 m 128,-1,65
 816 954 816 954 816 974.375 c 128,-1,66
 816 994.75 816 994.75 831 1036 c 1,67,68
 770 1033 770 1033 759 942 c 1,69,70
 830.840490798 884.527607362 830.840490798 884.527607362 853.920245399 843.263803681 c 0,71,72
 892 775.181818182 892 775.181818182 892 697.590909091 c 128,-1,73
 892 620 892 620 867 562 c 128,-1,74
 842 504 842 504 796 461 c 0,75,76
 700.986422267 372.182959946 700.986422267 372.182959946 547 358 c 1,77,-1
 547 426 l 1,78,79
 674 454.222222222 674 454.222222222 674 680 c 128,-1,80
 674 905.777777778 674 905.777777778 547 934 c 1,81,-1
 547 1003 l 1,82,83
 619.088235294 997.970588235 619.088235294 997.970588235 688 975 c 1,84,85
 714.573529412 1114 714.573529412 1114 861 1114 c 0,86,87
 916.75 1114 916.75 1114 944.875 1091.5 c 0,88,89
 992 1053.8 992 1053.8 992 1011.9 c 128,-1,90
 992 970 992 970 970 941.5 c 128,-1,91
 948 913 948 913 904 913 c 128,-1,64
 860 913 860 913 838 933.5 c 128,-1,65
EndSplineSet
EndChar

StartChar: h
Encoding: 104 104 75
Width: 1188
GlyphClass: 2
Flags: MW
LayerCount: 2
Fore
SplineSet
411 158 m 2,0,1
 411 110.810810811 411 110.810810811 452.5 89.5 c 0,2,3
 471 80 471 80 493.5 72.5 c 128,-1,4
 516 65 516 65 537 53 c 1,5,-1
 537 0 l 1,6,-1
 71 0 l 1,7,-1
 71 53 l 1,8,9
 93 65 93 65 115.5 72.5 c 128,-1,10
 138 80 138 80 156 89.5 c 0,11,12
 197 111.138888889 197 111.138888889 197 158 c 2,13,-1
 197 1262 l 2,14,15
 197 1315.61111111 197 1315.61111111 157 1334.5 c 0,16,17
 139 1343 139 1343 116 1348.5 c 128,-1,18
 93 1354 93 1354 69 1366 c 1,19,-1
 69 1427 l 1,20,-1
 411 1427 l 1,21,-1
 411 158 l 2,0,1
644 901 m 0,22,23
 562.413793103 901 562.413793103 901 494 839 c 1,24,-1
 494 948 l 1,25,26
 581.692307692 1008 581.692307692 1008 698 1008 c 256,27,28
 831.704225352 1008 831.704225352 1008 918.5 935.5 c 0,29,30
 1011 858.235294118 1011 858.235294118 1011 725 c 2,31,-1
 1011 158 l 2,32,33
 1011 111.666666667 1011 111.666666667 1053 89.5 c 0,34,35
 1071 80 1071 80 1093 72.5 c 128,-1,36
 1115 65 1115 65 1135 53 c 1,37,-1
 1135 0 l 1,38,-1
 748 0 l 1,39,-1
 748 72 l 2,40,41
 748 90 748 90 756 99.5 c 128,-1,42
 764 109 764 109 773 118.5 c 0,43,44
 798 144.888888889 798 144.888888889 798 176 c 2,45,-1
 798 729 l 2,46,47
 798 901 798 901 644 901 c 0,22,23
EndSplineSet
EndChar

StartChar: i
Encoding: 105 105 76
Width: 636
GlyphClass: 2
Flags: MW
LayerCount: 2
Fore
SplineSet
437 993 m 1,0,-1
 437 158 l 2,1,2
 437 110.810810811 437 110.810810811 478.5 89.5 c 0,3,4
 497 80 497 80 519 72.5 c 128,-1,5
 541 65 541 65 562 53 c 1,6,-1
 562 0 l 1,7,-1
 97 0 l 1,8,-1
 97 53 l 1,9,10
 118 65 118 65 140.5 72.5 c 128,-1,11
 163 80 163 80 181.5 89.5 c 0,12,13
 224 111.324324324 224 111.324324324 224 158 c 2,14,-1
 224 827 l 2,15,16
 224 880 224 880 184 900 c 0,17,18
 166 909 166 909 143 914.5 c 128,-1,19
 120 920 120 920 97 932 c 1,20,-1
 97 987 l 1,21,-1
 437 993 l 1,0,-1
224 1396.5 m 128,-1,23
 261 1432 261 1432 304.5 1432 c 128,-1,24
 348 1432 348 1432 372.5 1422.5 c 128,-1,25
 397 1413 397 1413 415 1396 c 0,26,27
 453 1360.11111111 453 1360.11111111 453 1303 c 256,28,29
 453 1246.88888889 453 1246.88888889 415 1211 c 0,30,31
 377.941176471 1176 377.941176471 1176 319.470588235 1176 c 128,-1,32
 261 1176 261 1176 224 1211 c 128,-1,33
 187 1246 187 1246 187 1303.5 c 128,-1,22
 187 1361 187 1361 224 1396.5 c 128,-1,23
EndSplineSet
EndChar

StartChar: j
Encoding: 106 106 77
Width: 548
GlyphClass: 2
Flags: MW
LayerCount: 2
Fore
SplineSet
100 -416 m 1,0,1
 91 -417 91 -417 82.5 -417 c 2,2,-1
 65 -417 l 2,3,4
 -96.3333333333 -417 -96.3333333333 -417 -149.5 -315.5 c 0,5,6
 -166 -284 -166 -284 -166 -238.5 c 128,-1,7
 -166 -193 -166 -193 -134.5 -163 c 128,-1,8
 -103 -133 -103 -133 -62.5 -133 c 128,-1,9
 -22 -133 -22 -133 -1.5 -143.5 c 128,-1,10
 19 -154 19 -154 31.5 -170.5 c 0,11,12
 54 -200.2 54 -200.2 54 -232.6 c 0,13,14
 54 -301 54 -301 29 -301 c 1,15,16
 39 -324 39 -324 86 -324 c 2,17,-1
 100 -324 l 1,18,-1
 100 -416 l 1,0,1
183 819 m 2,19,20
 183 867 183 867 137.5 891.5 c 0,21,22
 118 902 118 902 94.5 910 c 128,-1,23
 71 918 71 918 50 932 c 1,24,-1
 50 993 l 1,25,-1
 397 993 l 1,26,-1
 397 10 l 2,27,28
 397 -250.573170732 397 -250.573170732 287 -348.5 c 0,29,30
 246 -385 246 -385 183 -402 c 1,31,-1
 183 819 l 2,19,20
270 1432 m 256,32,33
 328 1432 328 1432 365.5 1396.5 c 128,-1,34
 403 1361 403 1361 403 1303.5 c 128,-1,35
 403 1246 403 1246 365.5 1211 c 128,-1,36
 328 1176 328 1176 270 1176 c 256,37,38
 212 1176 212 1176 175 1211 c 128,-1,39
 138 1246 138 1246 138 1303.5 c 128,-1,40
 138 1361 138 1361 175 1396.5 c 128,-1,41
 212 1432 212 1432 270 1432 c 256,32,33
EndSplineSet
EndChar

StartChar: k
Encoding: 107 107 78
Width: 1076
GlyphClass: 2
Flags: MW
LayerCount: 2
Fore
SplineSet
392 201 m 2,0,1
 392 108.833333333 392 108.833333333 432 90.5 c 0,2,3
 444 85 444 85 458 80.5 c 0,4,5
 499.164179104 67.2686567164 499.164179104 67.2686567164 517 53 c 1,6,-1
 517 0 l 1,7,-1
 52 0 l 1,8,-1
 52 53 l 1,9,10
 74 71 74 71 97 76 c 128,-1,11
 120 81 120 81 138 90.5 c 0,12,13
 179 112.138888889 179 112.138888889 179 201 c 2,14,-1
 179 1217 l 2,15,16
 179 1316.75 179 1316.75 140 1333 c 0,17,18
 128 1338 128 1338 114 1341.5 c 0,19,20
 70 1352.5 70 1352.5 52 1366 c 1,21,-1
 52 1427 l 1,22,-1
 392 1427 l 1,23,-1
 392 201 l 2,0,1
475 598 m 1,24,-1
 653 764 l 2,25,26
 722 827.951219512 722 827.951219512 722 858 c 0,27,28
 722 887.651162791 722 887.651162791 641.5 904.5 c 0,29,30
 620 909 620 909 601 918 c 1,31,-1
 601 981 l 1,32,-1
 1045 981 l 1,33,-1
 1045 922 l 1,34,35
 1022 911 1022 911 995 899.5 c 128,-1,36
 968 888 968 888 934.5 868.5 c 0,37,38
 854.1 821.7 854.1 821.7 764 735 c 2,39,-1
 650 625 l 1,40,-1
 950 139 l 2,41,42
 975.846153846 95.3846153846 975.846153846 95.3846153846 1006.42307692 85.1923076923 c 128,-1,43
 1037 75 1037 75 1055 70.5 c 128,-1,44
 1073 66 1073 66 1092 55 c 1,45,-1
 1092 0 l 1,46,-1
 653 0 l 1,47,-1
 653 53 l 1,48,49
 701.681462141 75.7180156658 701.681462141 75.7180156658 703.5 123 c 0,50,51
 704 136 704 136 698 147 c 2,52,-1
 475 538 l 1,53,-1
 475 598 l 1,24,-1
EndSplineSet
EndChar

StartChar: l
Encoding: 108 108 79
Width: 570
GlyphClass: 2
Flags: MW
LayerCount: 2
Fore
SplineSet
397 1427 m 1,0,-1
 397 158 l 2,1,2
 397 111.138888889 397 111.138888889 438 89.5 c 0,3,4
 456 80 456 80 478.5 72.5 c 128,-1,5
 501 65 501 65 523 53 c 1,6,-1
 523 0 l 1,7,-1
 57 0 l 1,8,-1
 57 53 l 1,9,10
 78 65 78 65 100.5 72.5 c 128,-1,11
 123 80 123 80 141 89.5 c 0,12,13
 183 111.666666667 183 111.666666667 183 158 c 2,14,-1
 183 1260 l 2,15,16
 183 1307.36842105 183 1307.36842105 140 1330 c 0,17,18
 121 1340 121 1340 98 1347 c 128,-1,19
 75 1354 75 1354 54 1366 c 1,20,-1
 54 1427 l 1,21,-1
 397 1427 l 1,0,-1
EndSplineSet
EndChar

StartChar: m
Encoding: 109 109 80
Width: 1714
GlyphClass: 2
Flags: MW
LayerCount: 2
Fore
SplineSet
480 949 m 1,0,1
 566.230769231 1008 566.230769231 1008 677 1008 c 256,2,3
 854.666666667 1008 854.666666667 1008 936 886 c 0,4,5
 960 850 960 850 971 809 c 1,6,-1
 971 158 l 2,7,8
 971 108.942857143 971 108.942857143 1010.5 87.5 c 0,9,10
 1028 78 1028 78 1049 71.5 c 128,-1,11
 1070 65 1070 65 1090 53 c 1,12,-1
 1090 0 l 1,13,-1
 707 0 l 1,14,-1
 707 68 l 2,15,16
 707 86.8888888889 707 86.8888888889 724 102.944444444 c 128,-1,17
 741 119 741 119 749 130.5 c 128,-1,18
 757 142 757 142 757 164 c 2,19,-1
 757 741 l 2,20,21
 757 901 757 901 617 901 c 0,22,23
 535.12 901 535.12 901 480 848 c 1,24,-1
 480 949 l 1,0,1
1190 901 m 0,25,26
 1113.65217391 901 1113.65217391 901 1054 852 c 1,27,-1
 1054 950 l 1,28,29
 1144.46153846 1006 1144.46153846 1006 1231.73076923 1006 c 128,-1,30
 1319 1006 1319 1006 1372.5 989 c 128,-1,31
 1426 972 1426 972 1464.5 937 c 0,32,33
 1545 863.818181818 1545 863.818181818 1545 721 c 2,34,-1
 1545 158 l 2,35,36
 1545 109.485714286 1545 109.485714286 1585.5 87.5 c 0,37,38
 1603 78 1603 78 1624.5 71.5 c 128,-1,39
 1646 65 1646 65 1667 53 c 1,40,-1
 1667 0 l 1,41,-1
 1282 0 l 1,42,-1
 1282 68 l 2,43,44
 1282 87 1282 87 1299 104 c 0,45,46
 1332 137 1332 137 1332 166 c 2,47,-1
 1332 750 l 2,48,49
 1332 901 1332 901 1190 901 c 0,25,26
397 158 m 2,50,51
 397 111.138888889 397 111.138888889 438 89.5 c 0,52,53
 456 80 456 80 478.5 72.5 c 128,-1,54
 501 65 501 65 523 53 c 1,55,-1
 523 0 l 1,56,-1
 57 0 l 1,57,-1
 57 53 l 1,58,59
 78 65 78 65 100.5 72.5 c 128,-1,60
 123 80 123 80 141 89.5 c 0,61,62
 183 111.666666667 183 111.666666667 183 158 c 2,63,-1
 183 778 l 2,64,65
 183 876.75 183 876.75 144 893 c 0,66,67
 132 898 132 898 117.5 901.5 c 0,68,69
 73.7467248908 912.061135371 73.7467248908 912.061135371 54 926 c 1,70,-1
 54 987 l 1,71,-1
 397 987 l 1,72,-1
 397 158 l 2,50,51
EndSplineSet
EndChar

StartChar: n
Encoding: 110 110 81
Width: 1188
GlyphClass: 2
Flags: MW
LayerCount: 2
Fore
SplineSet
646 901 m 0,0,1
 563.333333333 901 563.333333333 901 494 836 c 1,2,-1
 494 945 l 1,3,4
 581.75 1008 581.75 1008 701 1008 c 0,5,6
 838.746478873 1008 838.746478873 1008 923.5 935.5 c 0,7,8
 1011 860.65060241 1011 860.65060241 1011 725 c 2,9,-1
 1011 199 l 2,10,11
 1011 104.25 1011 104.25 1050 88 c 0,12,13
 1062 83 1062 83 1076 79.5 c 0,14,15
 1113.63636364 70.0909090909 1113.63636364 70.0909090909 1135 53 c 1,16,-1
 1135 0 l 1,17,-1
 748 0 l 1,18,-1
 748 68 l 2,19,20
 748 86.8888888889 748 86.8888888889 765 102.944444444 c 128,-1,21
 782 119 782 119 790 130.5 c 128,-1,22
 798 142 798 142 798 164 c 2,23,-1
 798 735 l 2,24,25
 798 901 798 901 646 901 c 0,0,1
411 203 m 2,26,27
 411 108.833333333 411 108.833333333 451 90.5 c 0,28,29
 463 85 463 85 477 80.5 c 0,30,31
 517.833333333 67.375 517.833333333 67.375 537 53 c 1,32,-1
 537 0 l 1,33,-1
 71 0 l 1,34,-1
 71 53 l 1,35,36
 88.8358208955 67.2686567164 88.8358208955 67.2686567164 116.417910448 76.1343283582 c 128,-1,37
 144 85 144 85 156.5 90 c 128,-1,38
 169 95 169 95 178 107.5 c 0,39,40
 197 133.888888889 197 133.888888889 197 201 c 2,41,-1
 197 778 l 2,42,43
 197 876.75 197 876.75 158 893 c 0,44,45
 146 898 146 898 132 901.5 c 0,46,47
 88.1935483871 912.451612903 88.1935483871 912.451612903 69 926 c 1,48,-1
 69 987 l 1,49,-1
 411 987 l 1,50,-1
 411 203 l 2,26,27
EndSplineSet
EndChar

StartChar: o
Encoding: 111 111 82
Width: 1053
GlyphClass: 2
Flags: MW
LayerCount: 2
Fore
SplineSet
483 -25 m 1,0,1
 311.982188295 -7.89821882952 311.982188295 -7.89821882952 201.5 120.5 c 0,2,3
 79 262.864864865 79 262.864864865 79 489 c 0,4,5
 79 717.232142857 79 717.232142857 202 860 c 0,6,7
 312.948581182 988.779603158 312.948581182 988.779603158 483 1006 c 1,8,-1
 483 928 l 1,9,10
 395.127733598 911.262425447 395.127733598 911.262425447 354.5 813 c 0,11,12
 310 705.372093023 310 705.372093023 310 489 c 256,13,14
 310 171.846153846 310 171.846153846 408.5 88.5 c 0,15,16
 441 61 441 61 483 53 c 1,17,-1
 483 -25 l 1,0,1
566 52 m 1,18,19
 743 81.5 743 81.5 743 489 c 0,20,21
 743 811.984848485 743 811.984848485 639 895.5 c 0,22,23
 606 922 606 922 566 929 c 1,24,-1
 566 1007 l 1,25,26
 736.383341956 994.059493016 736.383341956 994.059493016 850 863.5 c 0,27,28
 976 718.710526316 976 718.710526316 976 489 c 0,29,30
 976 260.230088496 976 260.230088496 851.5 117 c 0,31,32
 738.293544458 -13.2375152253 738.293544458 -13.2375152253 566 -26 c 1,33,-1
 566 52 l 1,18,19
EndSplineSet
EndChar

StartChar: p
Encoding: 112 112 83
Width: 1097
GlyphClass: 2
Flags: MW
LayerCount: 2
Fore
SplineSet
370 868 m 1,0,-1
 370 -233 l 1,1,2
 371.701770736 -280.649580615 371.701770736 -280.649580615 414.5 -301.5 c 0,3,4
 434 -311 434 -311 458 -318.5 c 128,-1,5
 482 -326 482 -326 508 -338 c 1,6,-1
 508 -391 l 1,7,-1
 31 -391 l 1,8,-1
 31 -338 l 1,9,10
 52 -326 52 -326 74.5 -318.5 c 128,-1,11
 97 -311 97 -311 115 -301.5 c 0,12,13
 156 -279.861111111 156 -279.861111111 156 -233 c 2,14,-1
 156 827 l 2,15,16
 156 879.685714286 156 879.685714286 116.5 900 c 0,17,18
 99 909 99 909 76.5 914.5 c 128,-1,19
 54 920 54 920 31 932 c 1,20,-1
 31 993 l 1,21,-1
 363 993 l 1,22,-1
 370 868 l 1,0,-1
604.714285714 -27 m 0,23,24
 519.428571429 -27 519.428571429 -27 453 3 c 1,25,-1
 454 92 l 1,26,27
 502.529411765 59 502.529411765 59 557.264705882 59 c 128,-1,28
 612 59 612 59 652.5 84.5 c 128,-1,29
 693 110 693 110 721 162.5 c 0,30,31
 779 271.25 779 271.25 779 483 c 0,32,33
 779 815.445945946 779 815.445945946 655 887.5 c 0,34,35
 618 909 618 909 584.5 909 c 128,-1,36
 551 909 551 909 531.5 899.5 c 128,-1,37
 512 890 512 890 497 876 c 0,38,39
 478.927710843 859.13253012 478.927710843 859.13253012 453 817 c 1,40,-1
 453 958 l 1,41,42
 526.913043478 1008 526.913043478 1008 617.456521739 1008 c 128,-1,43
 708 1008 708 1008 781 967.5 c 128,-1,44
 854 927 854 927 907 856.5 c 0,45,46
 1019 707.518867925 1019 707.518867925 1019 489 c 0,47,48
 1019 251.288288288 1019 251.288288288 901.5 110.5 c 0,49,50
 786.744360902 -27 786.744360902 -27 604.714285714 -27 c 0,23,24
EndSplineSet
EndChar

StartChar: q
Encoding: 113 113 84
Width: 1097
GlyphClass: 2
Flags: MW
LayerCount: 2
Fore
SplineSet
954 987 m 1,0,1
 940 858.2 940 858.2 940 760 c 2,2,-1
 940 -233 l 2,3,4
 940 -280.189189189 940 -280.189189189 981.5 -301.5 c 0,5,6
 1000 -311 1000 -311 1022.5 -318.5 c 128,-1,7
 1045 -326 1045 -326 1067 -338 c 1,8,-1
 1067 -391 l 1,9,-1
 589 -391 l 1,10,-1
 589 -338 l 1,11,12
 615 -326 615 -326 639.5 -319 c 128,-1,13
 664 -312 664 -312 683.5 -302 c 0,14,15
 727 -279.692307692 727 -279.692307692 727 -233 c 2,16,-1
 727 935 l 1,17,18
 740.235294118 929.117647059 740.235294118 929.117647059 761.117647059 923.058823529 c 128,-1,19
 782 917 782 917 794 913 c 1,20,-1
 869 987 l 1,21,-1
 954 987 l 1,0,1
534 59 m 0,22,23
 601.565217391 59 601.565217391 59 644 120 c 1,24,-1
 644 2 l 1,25,26
 581.857142857 -27 581.857142857 -27 497.428571429 -27 c 128,-1,27
 413 -27 413 -27 335 8 c 128,-1,28
 257 43 257 43 200 109 c 0,29,30
 79 249.105263158 79 249.105263158 79 487 c 0,31,32
 79 715.62295082 79 715.62295082 213 865 c 0,33,34
 341.279411765 1008 341.279411765 1008 520 1008 c 0,35,36
 583.333333333 1008 583.333333333 1008 644 980 c 1,37,-1
 644 886 l 1,38,39
 606.846153846 909 606.846153846 909 550.923076923 909 c 128,-1,40
 495 909 495 909 452.5 884 c 128,-1,41
 410 859 410 859 380 807 c 0,42,43
 318 699.533333333 318 699.533333333 318 481 c 0,44,45
 318 59 318 59 534 59 c 0,22,23
EndSplineSet
EndChar

StartChar: r
Encoding: 114 114 85
Width: 812
GlyphClass: 2
Flags: MW
LayerCount: 2
Fore
SplineSet
406 750 m 1,0,-1
 406 197 l 2,1,2
 406 106.785714286 406 106.785714286 450 89.5 c 0,3,4
 464 84 464 84 480.5 79.5 c 0,5,6
 532.704918033 65.262295082 532.704918033 65.262295082 555 53 c 1,7,-1
 555 0 l 1,8,-1
 73 0 l 1,9,-1
 73 53 l 1,10,11
 92 65 92 65 113 72.5 c 128,-1,12
 134 80 134 80 152 89.5 c 0,13,14
 193 111.138888889 193 111.138888889 193 158 c 2,15,-1
 193 737 l 2,16,17
 193 852.37037037 193 852.37037037 174.5 870.185185185 c 128,-1,18
 156 888 156 888 138.5 896 c 128,-1,19
 121 904 121 904 102 909.5 c 128,-1,20
 83 915 83 915 69 926 c 1,21,-1
 69 987 l 1,22,-1
 394 987 l 1,23,-1
 406 750 l 1,0,-1
643 739 m 128,-1,25
 618 760 618 760 618 791.142857143 c 128,-1,26
 618 822.285714286 618 822.285714286 644 852 c 1,27,28
 635 858 635 858 621 858 c 0,29,30
 553.41626347 857.431501437 553.41626347 857.431501437 489 762 c 1,31,-1
 489 916 l 1,32,33
 562.6 1008 562.6 1008 657 1008 c 0,34,35
 765.224137931 1008 765.224137931 1008 802.5 914 c 0,36,37
 814 885 814 885 814 836 c 128,-1,38
 814 787 814 787 785 752.5 c 128,-1,39
 756 718 756 718 712 718 c 128,-1,24
 668 718 668 718 643 739 c 128,-1,25
EndSplineSet
EndChar

StartChar: s
Encoding: 115 115 86
Width: 900
GlyphClass: 2
Flags: MWO
LayerCount: 2
Fore
SplineSet
473 53 m 1,0,1
 548 64 548 64 593.5 108.5 c 128,-1,2
 639 153 639 153 639 212 c 128,-1,3
 639 271 639 271 615.5 303.5 c 128,-1,4
 592 336 592 336 553.5 359.5 c 128,-1,5
 515 383 515 383 466 401.5 c 128,-1,6
 417 420 417 420 366 438.5 c 128,-1,7
 315 457 315 457 266 480 c 128,-1,8
 217 503 217 503 178.5 535 c 0,9,10
 93 606.064935065 93 606.064935065 93 721 c 0,11,12
 93 823.5 93 823.5 171 904.5 c 0,13,14
 258.900843882 995.78164557 258.900843882 995.78164557 401 1007 c 1,15,-1
 401 928 l 1,16,17
 343 917 343 917 308.5 880 c 128,-1,18
 274 843 274 843 274 793 c 128,-1,19
 274 743 274 743 298 713.5 c 128,-1,20
 322 684 322 684 361.5 662.5 c 128,-1,21
 401 641 401 641 451.5 623.5 c 128,-1,22
 502 606 502 606 555 586.5 c 128,-1,23
 608 567 608 567 658.5 543.5 c 128,-1,24
 709 520 709 520 748.5 485 c 0,25,26
 836 407.46835443 836 407.46835443 836 283 c 0,27,28
 836 173.813953488 836 173.813953488 754 88 c 0,29,30
 655.644031451 -14.9306647605 655.644031451 -14.9306647605 473 -26 c 1,31,-1
 473 53 l 1,0,1
541 772 m 0,32,33
 541 847.137931034 541 847.137931034 596 868 c 1,34,35
 565 923 565 923 484 931 c 1,36,-1
 484 1007 l 1,37,38
 616.390973202 996.970380818 616.390973202 996.970380818 703.5 934 c 0,39,40
 791 870.746987952 791 870.746987952 791 782 c 0,41,42
 791 728 791 728 757.5 697 c 128,-1,43
 724 666 724 666 666.5 666 c 128,-1,44
 609 666 609 666 575 695 c 128,-1,45
 541 724 541 724 541 772 c 0,32,33
333 209 m 0,46,47
 333 133.862068966 333 133.862068966 278 113 c 1,48,49
 309 58 309 58 390 50 c 1,50,-1
 390 -26 l 1,51,52
 260.637816979 -18.1598676957 260.637816979 -18.1598676957 170.5 47 c 0,53,54
 83 110.253012048 83 110.253012048 83 199 c 0,55,56
 83 253 83 253 116.5 284 c 128,-1,57
 150 315 150 315 207.5 315 c 128,-1,58
 265 315 265 315 299 286 c 128,-1,59
 333 257 333 257 333 209 c 0,46,47
EndSplineSet
EndChar

StartChar: t
Encoding: 116 116 87
Width: 703
GlyphClass: 2
Flags: MW
LayerCount: 2
Fore
SplineSet
473 969 m 1,0,-1
 637 969 l 1,1,-1
 637 881 l 1,2,-1
 473 881 l 1,3,-1
 473 969 l 1,0,-1
390 -26 m 1,4,5
 217.2127585 -17.6393270242 217.2127585 -17.6393270242 186 127.5 c 0,6,7
 176 174 176 174 176 231 c 2,8,-1
 176 881 l 1,9,-1
 41 881 l 1,10,-1
 41 942 l 1,11,12
 56 955 56 955 73.5 963.5 c 128,-1,13
 91 972 91 972 108.5 980.5 c 0,14,15
 151.835214447 1001.54853273 151.835214447 1001.54853273 171.917607223 1033.27426637 c 128,-1,16
 192 1065 192 1065 205.5 1101.5 c 128,-1,17
 219 1138 219 1138 228.5 1174.5 c 128,-1,18
 238 1211 238 1211 246.5 1246 c 128,-1,19
 255 1281 255 1281 268 1315 c 1,20,-1
 390 1321 l 1,21,-1
 390 -26 l 1,4,5
473 65 m 1,22,23
 547.848484848 65 547.848484848 65 590 172 c 0,24,25
 603 205 603 205 615 244 c 1,26,-1
 679 229 l 1,27,28
 651.726180945 50.2049639712 651.726180945 50.2049639712 555.5 0 c 0,29,30
 521 -18 521 -18 473 -24 c 1,31,-1
 473 65 l 1,22,23
EndSplineSet
EndChar

StartChar: u
Encoding: 117 117 88
Width: 1164
GlyphClass: 2
Flags: MW
LayerCount: 2
Fore
SplineSet
539 80 m 0,0,1
 620.793103448 80 620.793103448 80 687 144 c 1,2,-1
 687 29 l 1,3,4
 597.4 -27 597.4 -27 465 -27 c 0,5,6
 247.23364486 -27 247.23364486 -27 194.5 125.5 c 0,7,8
 176 179 176 179 176 254 c 2,9,-1
 176 821 l 2,10,11
 176 873.352941176 176 873.352941176 137 894 c 0,12,13
 120 903 120 903 99 908.5 c 128,-1,14
 78 914 78 914 59 926 c 1,15,-1
 59 987 l 1,16,-1
 390 987 l 1,17,-1
 390 236 l 2,18,19
 390 80 390 80 539 80 c 0,0,1
770 821 m 2,20,21
 770 874 770 874 730 894 c 0,22,23
 712 903 712 903 690 908.5 c 128,-1,24
 668 914 668 914 646 926 c 1,25,-1
 646 987 l 1,26,-1
 983 987 l 1,27,-1
 983 164 l 2,28,29
 983 112.5 983 112.5 1024 92 c 0,30,31
 1042 83 1042 83 1063 77 c 128,-1,32
 1084 71 1084 71 1103 59 c 1,33,-1
 1103 0 l 1,34,-1
 784 0 l 1,35,-1
 770 106 l 1,36,-1
 770 821 l 2,20,21
EndSplineSet
EndChar

StartChar: v
Encoding: 118 118 89
Width: 924
GlyphClass: 2
Flags: MW
LayerCount: 2
Fore
SplineSet
552 339 m 1,0,-1
 685 702 l 2,1,2
 727 816.545454545 727 816.545454545 727 843.272727273 c 128,-1,3
 727 870 727 870 713.5 881 c 128,-1,4
 700 892 700 892 680.5 897.5 c 128,-1,5
 661 903 661 903 639.5 906.5 c 128,-1,6
 618 910 618 910 601 918 c 1,7,-1
 601 981 l 1,8,-1
 969 981 l 1,9,-1
 969 918 l 1,10,11
 957 909 957 909 940.5 905 c 128,-1,12
 924 901 924 901 906.5 894 c 0,13,14
 855.022727273 873.409090909 855.022727273 873.409090909 836 810 c 0,15,16
 833 800 833 800 829 791 c 2,17,-1
 605 203 l 1,18,-1
 552 339 l 1,0,-1
570 108 m 1,19,-1
 521 -20 l 1,20,-1
 406 -20 l 1,21,-1
 74 840 l 2,22,23
 60.7217391304 875.408695652 60.7217391304 875.408695652 18 893 c 0,24,25
 -31.4840764331 913.375796178 -31.4840764331 913.375796178 -47 930 c 1,26,-1
 -47 981 l 1,27,-1
 420 981 l 1,28,-1
 420 920 l 1,29,30
 403 911 403 911 382 907 c 128,-1,31
 361 903 361 903 342.5 897.5 c 0,32,33
 299 884.567567568 299 884.567567568 299 854 c 256,34,35
 299 834 299 834 307.5 814 c 128,-1,36
 316 794 316 794 329.5 755 c 128,-1,37
 343 716 343 716 362.5 663.5 c 128,-1,38
 382 611 382 611 405 549 c 128,-1,39
 428 487 428 487 455 414 c 128,-1,40
 482 341 482 341 515 254 c 2,41,-1
 570 108 l 1,19,-1
EndSplineSet
EndChar

StartChar: w
Encoding: 119 119 90
Width: 1450
GlyphClass: 2
Flags: MW
LayerCount: 2
Fore
SplineSet
491 -20 m 1,0,-1
 385 -20 l 1,1,-1
 83 844 l 2,2,3
 66.2709923664 892.328244275 66.2709923664 892.328244275 -2.5 909 c 0,4,5
 -19 913 -19 913 -34 924 c 1,6,-1
 -34 981 l 1,7,-1
 427 981 l 1,8,-1
 427 926 l 1,9,10
 412 915 412 915 390.5 910.5 c 128,-1,11
 369 906 369 906 349.5 900.5 c 0,12,13
 303 887.384615385 303 887.384615385 303 852 c 0,14,15
 303 833 303 833 313.5 802 c 128,-1,16
 324 771 324 771 358 670.5 c 128,-1,17
 392 570 392 570 440.5 424 c 128,-1,18
 489 278 489 278 540 132 c 1,19,-1
 491 -20 l 1,0,-1
1104 379 m 1,20,-1
 1210 707 l 2,21,22
 1226 756 1226 756 1237.5 787 c 128,-1,23
 1249 818 1249 818 1249 843 c 128,-1,24
 1249 868 1249 868 1235.5 879 c 128,-1,25
 1222 890 1222 890 1202.5 896 c 128,-1,26
 1183 902 1183 902 1161 906 c 128,-1,27
 1139 910 1139 910 1121 918 c 1,28,-1
 1121 981 l 1,29,-1
 1488 981 l 1,30,-1
 1488 928 l 1,31,32
 1478.82978723 909.659574468 1478.82978723 909.659574468 1454.41489362 903.329787234 c 128,-1,33
 1430 897 1430 897 1417.5 892 c 128,-1,34
 1405 887 1405 887 1384.5 853 c 128,-1,35
 1364 819 1364 819 1333.5 748 c 128,-1,36
 1303 677 1303 677 1273.5 594.5 c 0,37,38
 1226.18120805 462.167785235 1226.18120805 462.167785235 1154 236 c 1,39,-1
 1104 379 l 1,20,-1
1123 140 m 1,40,41
 1101.74074074 73.1851851852 1101.74074074 73.1851851852 1069 -20 c 1,42,-1
 969 -20 l 1,43,-1
 722 678 l 1,44,-1
 716 678 l 1,45,-1
 572 231 l 1,46,-1
 521 379 l 1,47,-1
 659 805 l 1,48,49
 652.342105263 844.947368421 652.342105263 844.947368421 635.171052632 875.473684211 c 0,50,51
 604 930.888888889 604 930.888888889 604 948.944444444 c 2,52,-1
 604 971.5 l 2,53,54
 604 976 604 976 605 981 c 1,55,-1
 921 981 l 1,56,-1
 936 905 l 1,57,58
 877 905 877 905 877 877 c 1,59,60
 894.075471698 800.160377358 894.075471698 800.160377358 960.037735849 612.580188679 c 128,-1,61
 1026 425 1026 425 1071 293 c 2,62,-1
 1123 140 l 1,40,41
EndSplineSet
EndChar

StartChar: x
Encoding: 120 120 91
Width: 1033
GlyphClass: 2
Flags: MW
LayerCount: 2
Fore
SplineSet
595 667 m 1,0,1
 625 707 625 707 649.5 736.5 c 128,-1,2
 674 766 674 766 690.5 788.5 c 0,3,4
 725 835.545454545 725 835.545454545 725 854.772727273 c 128,-1,5
 725 874 725 874 715 882 c 128,-1,6
 705 890 705 890 689.5 896 c 128,-1,7
 674 902 674 902 656 907 c 128,-1,8
 638 912 638 912 623 918 c 1,9,-1
 623 981 l 1,10,-1
 1026 981 l 1,11,-1
 1026 926 l 1,12,13
 1012 916 1012 916 995.5 911 c 128,-1,14
 979 906 979 906 960.5 900 c 0,15,16
 913.09375 884.625 913.09375 884.625 893.046875 863.8125 c 128,-1,17
 873 843 873 843 861 831 c 128,-1,18
 849 819 849 819 839 807 c 2,19,-1
 659 587 l 1,20,-1
 595 667 l 1,0,1
448 335 m 1,21,22
 382 251 382 251 343 199 c 128,-1,23
 304 147 304 147 304 127.5 c 128,-1,24
 304 108 304 108 315 98.5 c 128,-1,25
 326 89 326 89 341.5 82.5 c 128,-1,26
 357 76 357 76 374.5 71 c 128,-1,27
 392 66 392 66 406 57 c 1,28,-1
 406 0 l 1,29,-1
 -9 0 l 1,30,-1
 -9 57 l 1,31,32
 12 70 12 70 35 76.5 c 128,-1,33
 58 83 58 83 85 96 c 0,34,35
 151.422053232 127.980988593 151.422053232 127.980988593 214 205 c 2,36,-1
 386 416 l 1,37,-1
 448 335 l 1,21,22
623 207 m 1,38,39
 573 272 573 272 524.5 336.5 c 128,-1,40
 476 401 476 401 425 465 c 1,41,-1
 159 821 l 1,42,43
 109.42338252 889.976163451 109.42338252 889.976163451 47 906.5 c 0,44,45
 30 911 30 911 12 920 c 1,46,-1
 12 981 l 1,47,-1
 487 981 l 1,48,-1
 487 918 l 1,49,50
 473 911 473 911 455.5 907.5 c 128,-1,51
 438 904 438 904 423 900 c 0,52,53
 388 890.666666667 388 890.666666667 388 868 c 128,-1,54
 388 845.408163265 388 845.408163265 443 770.204081633 c 128,-1,55
 498 695 498 695 524 661.5 c 0,56,57
 589 577.75 589 577.75 620 539 c 1,58,-1
 904 158 l 2,59,60
 936.923273657 112.534526854 936.923273657 112.534526854 971.961636829 96.7672634271 c 128,-1,61
 1007 81 1007 81 1025.5 75 c 128,-1,62
 1044 69 1044 69 1061 57 c 1,63,-1
 1061 0 l 1,64,-1
 563 0 l 1,65,-1
 563 55 l 1,66,67
 580 64 580 64 599 70 c 128,-1,68
 618 76 618 76 633.5 82 c 0,69,70
 670 96.1290322581 670 96.1290322581 670 119.564516129 c 128,-1,71
 670 143 670 143 622 207 c 1,72,-1
 623 207 l 1,38,39
EndSplineSet
EndChar

StartChar: y
Encoding: 121 121 92
Width: 924
GlyphClass: 2
Flags: MW
LayerCount: 2
Fore
SplineSet
561 365 m 1,0,1
 594 459 594 459 622.5 537.5 c 128,-1,2
 651 616 651 616 673 677 c 0,3,4
 720 807.318181818 720 807.318181818 720 839.659090909 c 128,-1,5
 720 872 720 872 709 881.5 c 128,-1,6
 698 891 698 891 681.5 896.5 c 128,-1,7
 665 902 665 902 645 906.5 c 128,-1,8
 625 911 625 911 607 920 c 1,9,-1
 607 981 l 1,10,-1
 961 981 l 1,11,-1
 961 920 l 1,12,13
 945 910 945 910 928.5 905 c 128,-1,14
 912 900 912 900 897 893.5 c 0,15,16
 861.253731343 878.009950249 861.253731343 878.009950249 847 840 c 2,17,-1
 618 235 l 1,18,-1
 561 365 l 1,0,1
197 -170.5 m 128,-1,20
 205 -188 205 -188 205 -217.027777778 c 128,-1,21
 205 -246.055555556 205 -246.055555556 170 -283 c 1,22,23
 185 -303 185 -303 209 -303 c 0,24,25
 269 -303 269 -303 323.5 -225.5 c 128,-1,26
 378 -148 378 -148 420 -6 c 1,27,-1
 77 850 l 2,28,29
 60.4149443561 893.535771065 60.4149443561 893.535771065 -7.5 910 c 0,30,31
 -24 914 -24 914 -38 920 c 1,32,-1
 -38 981 l 1,33,-1
 420 981 l 1,34,-1
 420 922 l 1,35,36
 399 914 399 914 378 908.5 c 128,-1,37
 357 903 357 903 340 896.5 c 0,38,39
 301 881.588235294 301 881.588235294 301 858 c 0,40,41
 301 843.6 301 843.6 342 737 c 1,42,-1
 343 736 l 1,43,44
 403 585 403 585 461.5 435.5 c 128,-1,45
 520 286 520 286 580 136 c 1,46,-1
 463 -168 l 1,47,48
 366.117647059 -412 366.117647059 -412 174 -412 c 0,49,50
 44.1538461538 -412 44.1538461538 -412 0 -309.5 c 0,51,52
 -14 -277 -14 -277 -14 -227 c 128,-1,53
 -14 -177 -14 -177 19.5 -145 c 128,-1,54
 53 -113 53 -113 89 -113 c 128,-1,55
 125 -113 125 -113 143 -120.5 c 128,-1,56
 161 -128 161 -128 175 -140.5 c 128,-1,19
 189 -153 189 -153 197 -170.5 c 128,-1,20
EndSplineSet
EndChar

StartChar: z
Encoding: 122 122 93
Width: 924
GlyphClass: 2
Flags: MW
LayerCount: 2
Fore
SplineSet
393 82 m 1,0,1
 425 84 425 84 456 85 c 128,-1,2
 487 86 487 86 529.5 89 c 128,-1,3
 572 92 572 92 609.5 108.5 c 128,-1,4
 647 125 647 125 671.5 148.5 c 128,-1,5
 696 172 696 172 711 200.5 c 128,-1,6
 726 229 726 229 738 259 c 0,7,8
 772.382978723 344.957446809 772.382978723 344.957446809 793 371 c 1,9,-1
 859 371 l 1,10,-1
 859 0 l 1,11,-1
 339 0 l 1,12,-1
 393 82 l 1,0,1
847 898 m 1,13,-1
 236 1 l 1,14,-1
 60 1 l 1,15,-1
 60 95 l 1,16,17
 214 318 214 318 364.5 539.5 c 128,-1,18
 515 761 515 761 671 981 c 1,19,-1
 847 981 l 1,20,-1
 847 898 l 1,13,-1
517 900 m 1,21,22
 478.818181818 897.818181818 478.818181818 897.818181818 413.909090909 891.409090909 c 128,-1,23
 349 885 349 885 317 870 c 128,-1,24
 285 855 285 855 264.5 833.5 c 128,-1,25
 244 812 244 812 232 786.5 c 128,-1,26
 220 761 220 761 210.5 735.5 c 0,27,28
 184.721227621 666.304347826 184.721227621 666.304347826 168 646 c 1,29,-1
 102 646 l 1,30,-1
 102 982 l 1,31,-1
 577 982 l 1,32,-1
 517 900 l 1,21,22
EndSplineSet
EndChar

StartChar: braceleft
Encoding: 123 123 94
Width: 987
GlyphClass: 2
Flags: MW
LayerCount: 2
Fore
SplineSet
349 281 m 2,0,1
 349 394.65 349 394.65 322 435.825 c 128,-1,2
 295 477 295 477 260 498.5 c 128,-1,3
 225 520 225 520 170 535 c 1,4,5
 276.28113879 563.985765125 276.28113879 563.985765125 315 624 c 0,6,7
 349 676.7 349 676.7 349 791 c 2,8,-1
 349 1167 l 2,9,10
 349 1355.07446809 349 1355.07446809 445 1423.5 c 0,11,12
 522.865671642 1479 522.865671642 1479 716 1479 c 1,13,-1
 716 1425 l 1,14,15
 571.163905841 1399.93221447 571.163905841 1399.93221447 547 1262.5 c 0,16,17
 539 1217 539 1217 539 1159 c 2,18,-1
 539 821 l 2,19,20
 539 694 539 694 510.5 646.5 c 128,-1,21
 482 599 482 599 445 575 c 128,-1,22
 408 551 408 551 349 537 c 1,23,-1
 349 532 l 1,24,25
 460.703557312 505.494071146 460.703557312 505.494071146 503 435 c 0,26,27
 539 375 539 375 539 248 c 2,28,-1
 539 -90 l 2,29,30
 539 -212.243902439 539 -212.243902439 567.5 -258.12195122 c 128,-1,31
 596 -304 596 -304 630 -324.5 c 128,-1,32
 664 -345 664 -345 716 -354 c 1,33,-1
 716 -408 l 1,34,35
 524.268656716 -408 524.268656716 -408 445 -351.5 c 0,36,37
 349 -283.074468085 349 -283.074468085 349 -96 c 2,38,-1
 349 281 l 2,0,1
EndSplineSet
EndChar

StartChar: bar
Encoding: 124 124 95
Width: 527
GlyphClass: 2
Flags: MW
LayerCount: 2
Fore
SplineSet
183 1421 m 1,0,-1
 342 1421 l 1,1,-1
 342 0 l 1,2,-1
 183 0 l 1,3,-1
 183 1421 l 1,0,-1
EndSplineSet
EndChar

StartChar: braceright
Encoding: 125 125 96
Width: 988
GlyphClass: 2
Flags: MW
LayerCount: 2
Fore
SplineSet
639 791 m 2,0,1
 639 676.7 639 676.7 666 634.85 c 128,-1,2
 693 593 693 593 727.5 571.5 c 128,-1,3
 762 550 762 550 818 535 c 1,4,5
 712.502840909 506.741832386 712.502840909 506.741832386 673 446.5 c 0,6,7
 639 394.65 639 394.65 639 281 c 2,8,-1
 639 -96 l 2,9,10
 639 -283.074468085 639 -283.074468085 543 -351.5 c 0,11,12
 463.731343284 -408 463.731343284 -408 270 -408 c 1,13,-1
 270 -354 l 1,14,15
 372.442708333 -336.26953125 372.442708333 -336.26953125 412 -271 c 0,16,17
 449 -209.95 449 -209.95 449 -90 c 2,18,-1
 449 248 l 2,19,20
 449 375 449 375 477.5 422.5 c 128,-1,21
 506 470 506 470 543 494 c 128,-1,22
 580 518 580 518 639 532 c 1,23,-1
 639 537 l 1,24,25
 527.296442688 563.505928854 527.296442688 563.505928854 485 634 c 0,26,27
 449 694 449 694 449 821 c 2,28,-1
 449 1159 l 2,29,30
 449 1339.8 449 1339.8 357 1395 c 0,31,32
 322 1416 322 1416 270 1425 c 1,33,-1
 270 1479 l 1,34,35
 465.134328358 1479 465.134328358 1479 543 1423.5 c 0,36,37
 639 1355.07446809 639 1355.07446809 639 1167 c 2,38,-1
 639 791 l 2,0,1
EndSplineSet
EndChar

StartChar: asciitilde
Encoding: 126 126 97
Width: 1425
GlyphClass: 2
Flags: MW
LayerCount: 2
Fore
SplineSet
166 455 m 1,0,1
 273.870967742 631 273.870967742 631 463 631 c 0,2,3
 554.549019608 631 554.549019608 631 730.5 562.5 c 0,4,5
 796 537 796 537 855.5 515.5 c 128,-1,6
 915 494 915 494 956.5 494 c 128,-1,7
 998 494 998 494 1027 506 c 128,-1,8
 1056 518 1056 518 1081 538.5 c 0,9,10
 1117.96319018 568.809815951 1117.96319018 568.809815951 1171 637 c 1,11,-1
 1256 524 l 1,12,13
 1184.89312977 439.72519084 1184.89312977 439.72519084 1142.94656489 410.36259542 c 0,14,15
 1056.71428571 350 1056.71428571 350 972.357142857 350 c 128,-1,16
 888 350 888 350 829 371.5 c 128,-1,17
 770 393 770 393 712.5 418.5 c 128,-1,18
 655 444 655 444 592.5 465.5 c 128,-1,19
 530 487 530 487 451 487 c 0,20,21
 329 487 329 487 252 344 c 1,22,-1
 166 455 l 1,0,1
EndSplineSet
EndChar

StartChar: exclamdown
Encoding: 161 161 99
Width: 593
GlyphClass: 2
Flags: MW
LayerCount: 2
Fore
SplineSet
344 604 m 1,0,1
 349.083445491 493.858681023 349.083445491 493.858681023 374.041722746 278.429340511 c 128,-1,2
 399 63 399 63 407 -15.5 c 0,3,4
 425 -192.125 425 -192.125 425 -265.5625 c 128,-1,5
 425 -339 425 -339 416.5 -369.5 c 128,-1,6
 408 -400 408 -400 391.5 -418 c 0,7,8
 361.25 -451 361.25 -451 297 -451 c 256,9,10
 232.75 -451 232.75 -451 209.375 -425.5 c 0,11,12
 168 -380.363636364 168 -380.363636364 168 -307.681818182 c 128,-1,13
 168 -235 168 -235 173 -164 c 128,-1,14
 178 -93 178 -93 185.5 -14.5 c 128,-1,15
 193 64 193 64 202.5 146 c 128,-1,16
 212 228 212 228 220.5 308.5 c 0,17,18
 240.431670282 497.264642082 240.431670282 497.264642082 247 604 c 1,19,-1
 344 604 l 1,0,1
392 798 m 128,-1,21
 357 762 357 762 313.5 762 c 128,-1,22
 270 762 270 762 246 772 c 128,-1,23
 222 782 222 782 203.5 799.5 c 0,24,25
 163 837.810810811 163 837.810810811 163 878.405405405 c 128,-1,26
 163 919 163 919 173.5 943.5 c 128,-1,27
 184 968 184 968 202.5 985 c 0,28,29
 242.764705882 1022 242.764705882 1022 299.882352941 1022 c 128,-1,30
 357 1022 357 1022 392 985 c 128,-1,31
 427 948 427 948 427 891 c 256,32,20
 427 834 427 834 392 798 c 128,-1,21
EndSplineSet
EndChar

StartChar: cent
Encoding: 162 162 100
Width: 1054
GlyphClass: 2
Flags: MW
LayerCount: 2
Fore
SplineSet
441 1058 m 1,0,1
 335 952 335 952 335 721.5 c 128,-1,2
 335 491 335 491 442 393 c 1,3,-1
 441 252 l 1,4,5
 289.061595231 293.064433721 289.061595231 293.064433721 200 413.5 c 0,6,7
 108 537.909090909 108 537.909090909 108 717 c 0,8,9
 108 880.909090909 108 880.909090909 200 1009.5 c 0,10,11
 291.595479571 1137.52549986 291.595479571 1137.52549986 441 1188 c 1,12,-1
 441 1058 l 1,0,1
620 0 m 1,13,-1
 517 0 l 1,14,-1
 517 1423 l 1,15,-1
 620 1423 l 1,16,-1
 620 0 l 1,13,-1
797 1042 m 1,17,18
 784.627514079 1100.32743363 784.627514079 1100.32743363 684 1128 c 1,19,-1
 684 1210 l 1,20,21
 881.219251337 1185.34759358 881.219251337 1185.34759358 942.5 1067.5 c 0,22,23
 962 1030 962 1030 962 980.5 c 128,-1,24
 962 931 962 931 931.5 895.5 c 128,-1,25
 901 860 901 860 847.5 860 c 128,-1,26
 794 860 794 860 764.5 887.5 c 128,-1,27
 735 915 735 915 735 968.58 c 128,-1,28
 735 1022.16 735 1022.16 797 1042 c 1,17,18
684 334 m 1,29,30
 794.471843003 364.829351536 794.471843003 364.829351536 853 475 c 0,31,32
 870 507 870 507 885 541 c 1,33,-1
 961 514 l 1,34,35
 892.477404403 294.72769409 892.477404403 294.72769409 684 248 c 1,36,-1
 684 334 l 1,29,30
EndSplineSet
EndChar

StartChar: sterling
Encoding: 163 163 101
Width: 1053
GlyphClass: 2
Flags: MW
LayerCount: 2
Fore
SplineSet
677 1313 m 1,0,1
 651.55 1363.9 651.55 1363.9 556 1373 c 1,2,-1
 556 1451 l 1,3,4
 688.558255897 1443.31546343 688.558255897 1443.31546343 767 1372.5 c 0,5,6
 840 1306.59722222 840 1306.59722222 840 1226.29861111 c 0,7,8
 840 1083 840 1083 712 1083 c 0,9,10
 664 1083 664 1083 634 1110 c 128,-1,11
 604 1137 604 1137 604 1172.5 c 128,-1,12
 604 1208 604 1208 614.5 1227 c 128,-1,13
 625 1246 625 1246 638.5 1261 c 128,-1,14
 652 1276 652 1276 663.5 1288 c 128,-1,15
 675 1300 675 1300 677 1313 c 1,0,1
748 688 m 1,16,-1
 1028 688 l 1,17,-1
 1028 600 l 1,18,-1
 813 600 l 1,19,-1
 748 688 l 1,16,-1
395 600 m 1,20,-1
 100 600 l 1,21,-1
 100 688 l 1,22,-1
 305 688 l 1,23,-1
 395 600 l 1,20,-1
586 232 m 1,24,25
 614 288 614 288 614 351 c 128,-1,26
 614 414 614 414 575.5 474 c 128,-1,27
 537 534 537 534 471 600 c 2,28,-1
 383 688 l 2,29,30
 328 743 328 743 281 790.5 c 128,-1,31
 234 838 234 838 200 886 c 0,32,33
 127 989.058823529 127 989.058823529 127 1104 c 0,34,35
 127 1229.27906977 127 1229.27906977 211 1325 c 0,36,37
 307.736619368 1435.2347523 307.736619368 1435.2347523 472 1450 c 1,38,-1
 472 1367 l 1,39,40
 407 1352 407 1352 365.5 1306 c 128,-1,41
 324 1260 324 1260 324 1199.5 c 128,-1,42
 324 1139 324 1139 339.5 1097 c 128,-1,43
 355 1055 355 1055 383.5 1015 c 128,-1,44
 412 975 412 975 450.5 933.5 c 128,-1,45
 489 892 489 892 535.5 843 c 0,46,47
 752.071823204 614.784530387 752.071823204 614.784530387 785.5 514.5 c 0,48,49
 800 471 800 471 800 408 c 0,50,51
 800 285 800 285 700 165 c 1,52,-1
 586 232 l 1,24,25
804 72 m 0,53,54
 936.766666667 72 936.766666667 72 1028 233 c 1,55,-1
 1106 174 l 1,56,57
 1038.87470262 74.5551149881 1038.87470262 74.5551149881 994.937351308 38.7775574941 c 0,58,59
 909.245614035 -31 909.245614035 -31 818.122807018 -31 c 128,-1,60
 727 -31 727 -31 670 -10.5 c 128,-1,61
 613 10 613 10 562 45 c 1,62,-1
 465 109 l 2,63,64
 349.068493151 186.287671233 349.068493151 186.287671233 296.534246575 201.643835616 c 128,-1,65
 244 217 244 217 203.5 217 c 128,-1,66
 163 217 163 217 137 197 c 128,-1,67
 111 177 111 177 111 141 c 128,-1,68
 111 105 111 105 146.5 80 c 128,-1,69
 182 55 182 55 268.269230769 55 c 128,-1,70
 354.538461538 55 354.538461538 55 403 73 c 1,71,-1
 501 10 l 1,72,73
 408.304347826 -31 408.304347826 -31 292.652173913 -31 c 128,-1,74
 177 -31 177 -31 118.5 -16 c 128,-1,75
 60 -1 60 -1 20.5 25 c 0,76,77
 -61 78.6455696203 -61 78.6455696203 -61 158 c 0,78,79
 -61 280.555555556 -61 280.555555556 79 321 c 0,80,81
 124 334 124 334 185 334 c 128,-1,82
 246 334 246 334 301 316.5 c 128,-1,83
 356 299 356 299 402.5 274.5 c 128,-1,84
 449 250 449 250 486.5 224 c 128,-1,85
 524 198 524 198 553 180 c 2,86,-1
 657 117 l 1,87,88
 739.894736842 72 739.894736842 72 804 72 c 0,53,54
EndSplineSet
EndChar

StartChar: currency
Encoding: 164 164 102
Width: 1054
GlyphClass: 2
Flags: MW
LayerCount: 2
Fore
SplineSet
527 295 m 256,0,1
 356.714285714 295 356.714285714 295 240 381 c 1,2,-1
 133 283 l 1,3,-1
 36 369 l 1,4,-1
 145 463 l 1,5,6
 45 565.127659574 45 565.127659574 45 712.647163121 c 128,-1,7
 45 860.166666667 45 860.166666667 145 956 c 1,8,-1
 36 1053 l 1,9,-1
 133 1139 l 1,10,-1
 242 1042 l 1,11,12
 360.461538462 1126 360.461538462 1126 525.923076923 1126 c 128,-1,13
 691.384615385 1126 691.384615385 1126 812 1042 c 1,14,-1
 921 1139 l 1,15,-1
 1017 1053 l 1,16,-1
 909 956 l 1,17,18
 1009 862.12244898 1009 862.12244898 1009 713.625054277 c 128,-1,19
 1009 565.127659574 1009 565.127659574 909 463 c 1,20,-1
 1017 369 l 1,21,-1
 921 283 l 1,22,-1
 814 381 l 1,23,24
 697.285714286 295 697.285714286 295 527 295 c 256,0,1
527 1008 m 256,25,26
 389.222222222 1008 389.222222222 1008 292 920.5 c 0,27,28
 195 833.2 195 833.2 195 711 c 0,29,30
 195 584.644444444 195 584.644444444 292 499.5 c 0,31,32
 389.405063291 414 389.405063291 414 527 414 c 256,33,34
 664.594936709 414 664.594936709 414 762 499.5 c 0,35,36
 859 584.644444444 859 584.644444444 859 711 c 0,37,38
 859 833.2 859 833.2 762 920.5 c 0,39,40
 664.777777778 1008 664.777777778 1008 527 1008 c 256,25,26
EndSplineSet
EndChar

StartChar: yen
Encoding: 165 165 103
Width: 1053
GlyphClass: 2
Flags: MW
LayerCount: 2
Fore
SplineSet
254 731 m 1,0,-1
 56 731 l 1,1,-1
 56 819 l 1,2,-1
 208 819 l 1,3,-1
 254 731 l 1,0,-1
71 1257 m 2,4,5
 42.0625686059 1312.8079034 42.0625686059 1312.8079034 -40.5 1341 c 0,6,7
 -61 1348 -61 1348 -80 1358 c 1,8,-1
 -80 1421 l 1,9,-1
 445 1421 l 1,10,-1
 445 1358 l 1,11,12
 421 1348 421 1348 396.5 1343 c 128,-1,13
 372 1338 372 1338 352.5 1331.5 c 0,14,15
 309 1317 309 1317 309 1282 c 0,16,17
 309 1255.64864865 309 1255.64864865 340 1195.32432432 c 128,-1,18
 371 1135 371 1135 402 1075.5 c 128,-1,19
 433 1016 433 1016 478 928 c 128,-1,20
 523 840 523 840 587 715 c 2,21,-1
 634 622 l 1,22,-1
 634 231 l 2,23,24
 634 118.4375 634 118.4375 688 96.5 c 0,25,26
 704 90 704 90 722 85.5 c 0,27,28
 776.8 71.8 776.8 71.8 796 59 c 1,29,-1
 796 0 l 1,30,-1
 243 0 l 1,31,-1
 243 59 l 1,32,33
 264.694029851 72.7014925373 264.694029851 72.7014925373 300.347014925 80.8507462687 c 128,-1,34
 336 89 336 89 352 95.5 c 128,-1,35
 368 102 368 102 379.5 117.5 c 0,36,37
 404 150.52173913 404 150.52173913 404 236 c 2,38,-1
 404 603 l 1,39,-1
 71 1257 l 2,4,5
697 685 m 1,40,-1
 637 792 l 1,41,42
 831.318181818 1169.84090909 831.318181818 1169.84090909 845.159090909 1206.42045455 c 0,43,44
 862 1250.92857143 862 1250.92857143 862 1273.46428571 c 128,-1,45
 862 1296 862 1296 849 1309.5 c 128,-1,46
 836 1323 836 1323 816.5 1330.5 c 128,-1,47
 797 1338 797 1338 773 1343.5 c 128,-1,48
 749 1349 749 1349 728 1358 c 1,49,-1
 728 1421 l 1,50,-1
 1158 1421 l 1,51,-1
 1158 1358 l 1,52,53
 1143 1347 1143 1347 1122.5 1340.5 c 128,-1,54
 1102 1334 1102 1334 1081.5 1327.5 c 0,55,56
 1032.8077634 1312.06099815 1032.8077634 1312.06099815 1013 1284 c 0,57,58
 939.751286449 1176.2813036 939.751286449 1176.2813036 866.875643225 1028.1406518 c 128,-1,59
 794 880 794 880 756.5 806.5625 c 128,-1,60
 719 733.125 719 733.125 697 685 c 1,40,-1
842 819 m 1,61,-1
 1004 819 l 1,62,-1
 1004 731 l 1,63,-1
 800 731 l 1,64,-1
 842 819 l 1,61,-1
717 559 m 1,65,-1
 1004 559 l 1,66,-1
 1004 471 l 1,67,-1
 717 471 l 1,68,-1
 717 559 l 1,65,-1
321 471 m 1,69,-1
 56 471 l 1,70,-1
 56 559 l 1,71,-1
 321 559 l 1,72,-1
 321 471 l 1,69,-1
EndSplineSet
EndChar

StartChar: brokenbar
Encoding: 166 166 104
Width: 527
GlyphClass: 2
Flags: MW
LayerCount: 2
Fore
SplineSet
183 537 m 1,0,-1
 342 537 l 1,1,-1
 342 0 l 1,2,-1
 183 0 l 1,3,-1
 183 537 l 1,0,-1
183 1421 m 1,4,-1
 342 1421 l 1,5,-1
 342 883 l 1,6,-1
 183 883 l 1,7,-1
 183 1421 l 1,4,-1
EndSplineSet
EndChar

StartChar: section
Encoding: 167 167 105
Width: 1188
GlyphClass: 2
Flags: MW
LayerCount: 2
Fore
SplineSet
627 1451 m 1,0,1
 740.283518055 1445.14050769 740.283518055 1445.14050769 820.5 1388 c 0,2,3
 898 1332.79452055 898 1332.79452055 898 1253 c 0,4,5
 898 1201 898 1201 865.5 1171 c 128,-1,6
 833 1141 833 1141 779 1141 c 256,7,8
 725 1141 725 1141 694.5 1167 c 128,-1,9
 664 1193 664 1193 664 1224.5 c 128,-1,10
 664 1256 664 1256 677 1273 c 128,-1,11
 690 1290 690 1290 706 1302 c 128,-1,12
 722 1314 722 1314 735 1324 c 128,-1,13
 748 1334 748 1334 748 1351 c 128,-1,14
 748 1368 748 1368 713.5 1385.5 c 128,-1,15
 679 1403 679 1403 627 1408 c 1,16,-1
 627 1451 l 1,0,1
544 -237 m 1,17,18
 402.908329226 -229.475110892 402.908329226 -229.475110892 320.5 -164 c 0,19,20
 247 -105.602739726 247 -105.602739726 247 -31 c 0,21,22
 247 19 247 19 281.5 49.5 c 128,-1,23
 316 80 316 80 357 80 c 128,-1,24
 398 80 398 80 420.5 72 c 128,-1,25
 443 64 443 64 459 51.5 c 0,26,27
 492 25.71875 492 25.71875 492 -6.140625 c 128,-1,28
 492 -38 492 -38 479.5 -54 c 128,-1,29
 467 -70 467 -70 451.5 -81 c 128,-1,30
 436 -92 436 -92 423.5 -101.5 c 128,-1,31
 411 -111 411 -111 411 -124 c 128,-1,32
 411 -137 411 -137 421 -148 c 128,-1,33
 431 -159 431 -159 449 -168 c 0,34,35
 486.727272727 -186.863636364 486.727272727 -186.863636364 544 -193 c 1,36,-1
 544 -237 l 1,17,18
494 899 m 2,37,38
 372.015267176 989.839694656 372.015267176 989.839694656 336.507633588 1030.41984733 c 0,39,40
 264 1113.28571429 264 1113.28571429 264 1204 c 0,41,42
 264 1308.28 264 1308.28 343.5 1374 c 0,43,44
 419.119266055 1436.51192661 419.119266055 1436.51192661 544 1449 c 1,45,-1
 544 1405 l 1,46,47
 473 1394 473 1394 432.5 1355.5 c 128,-1,48
 392 1317 392 1317 392 1269 c 128,-1,49
 392 1221 392 1221 411 1190 c 128,-1,50
 430 1159 430 1159 464.5 1128 c 128,-1,51
 499 1097 499 1097 548 1063 c 128,-1,52
 597 1029 597 1029 667.5 980 c 128,-1,53
 738 931 738 931 804 881 c 128,-1,54
 870 831 870 831 916.5 782 c 0,55,56
 1014 679.258064516 1014 679.258064516 1014 573 c 0,57,58
 1014 436.584415584 1014 436.584415584 888.5 366.5 c 0,59,60
 850 345 850 345 804 338 c 1,61,-1
 734 387 l 1,62,63
 801.375 387 801.375 387 834.1875 412 c 0,64,65
 891 455.285714286 891 455.285714286 891 505.142857143 c 128,-1,66
 891 555 891 555 851.5 608.5 c 128,-1,67
 812 662 812 662 717 733 c 2,68,-1
 494 899 l 2,37,38
465 843 m 1,69,70
 453 845 453 845 432.5 845 c 128,-1,71
 412 845 412 845 386 836 c 128,-1,72
 360 827 360 827 339 810.5 c 0,73,74
 292 773.571428571 292 773.571428571 292 717 c 0,75,76
 292 657.627906977 292 657.627906977 323 615.813953488 c 0,77,78
 378.041724618 541.57162726 378.041724618 541.57162726 473 477 c 2,79,-1
 703 319 l 1,80,81
 815.710280374 240.102803738 815.710280374 240.102803738 853.355140187 192.551401869 c 0,82,83
 922 105.842105263 922 105.842105263 922 23 c 0,84,85
 922 -78.2597402597 922 -78.2597402597 842.5 -149.5 c 0,86,87
 758.96501182 -224.356028369 758.96501182 -224.356028369 627 -236 c 1,88,-1
 627 -192 l 1,89,90
 697 -182 697 -182 741.5 -141.5 c 128,-1,91
 786 -101 786 -101 786 -48.5 c 128,-1,92
 786 4 786 4 759.5 43.5 c 128,-1,93
 733 83 733 83 689.5 119.5 c 128,-1,94
 646 156 646 156 590.5 192 c 128,-1,95
 535 228 535 228 477 265 c 128,-1,96
 419 302 419 302 363.5 342.5 c 128,-1,97
 308 383 308 383 264.5 429 c 0,98,99
 168 531.045977011 168 531.045977011 168 647 c 0,100,101
 168 749.276923077 168 749.276923077 237.5 814.5 c 0,102,103
 302.694063927 875.682121531 302.694063927 875.682121531 410 886 c 1,104,-1
 465 843 l 1,69,70
EndSplineSet
EndChar

StartChar: dieresis
Encoding: 168 168 106
Width: 637
GlyphClass: 2
Flags: MW
LayerCount: 2
Fore
SplineSet
25 1306.5 m 128,-1,1
 59 1335 59 1335 96.5 1335 c 128,-1,2
 134 1335 134 1335 156 1327.5 c 128,-1,3
 178 1320 178 1320 194 1306.5 c 0,4,5
 229 1276.96875 229 1276.96875 229 1243.484375 c 128,-1,6
 229 1210 229 1210 219.5 1191 c 128,-1,7
 210 1172 210 1172 194 1158.5 c 0,8,9
 160.222222222 1130 160.222222222 1130 109.611111111 1130 c 128,-1,10
 59 1130 59 1130 25 1158 c 128,-1,11
 -9 1186 -9 1186 -9 1232 c 128,-1,0
 -9 1278 -9 1278 25 1306.5 c 128,-1,1
445 1306.5 m 128,-1,13
 479 1335 479 1335 529.5 1335 c 128,-1,14
 580 1335 580 1335 614 1306.5 c 128,-1,15
 648 1278 648 1278 648 1232 c 128,-1,16
 648 1186 648 1186 614 1158 c 128,-1,17
 580 1130 580 1130 529.5 1130 c 128,-1,18
 479 1130 479 1130 445 1158 c 128,-1,19
 411 1186 411 1186 411 1232 c 128,-1,12
 411 1278 411 1278 445 1306.5 c 128,-1,13
EndSplineSet
EndChar

StartChar: copyright
Encoding: 169 169 107
Width: 1899
GlyphClass: 2
Flags: MW
LayerCount: 2
Fore
SplineSet
1049 1142 m 1,0,1
 1226.76228209 1135.65134707 1226.76228209 1135.65134707 1294.5 1096 c 0,2,3
 1315 1084 1315 1084 1316 1071 c 2,4,-1
 1323 903 l 1,5,-1
 1275 903 l 1,6,7
 1256.42857143 1018.14285714 1256.42857143 1018.14285714 1146.5 1067 c 0,8,9
 1106 1085 1106 1085 1049 1090 c 1,10,-1
 1049 1142 l 1,0,1
1049 357 m 1,11,12
 1240.33568548 367.436491935 1240.33568548 367.436491935 1321 543 c 1,13,-1
 1366 543 l 1,14,-1
 1310 375 l 2,15,16
 1290.7480315 317.244094488 1290.7480315 317.244094488 1049 306 c 1,17,-1
 1049 357 l 1,11,12
966 306 m 1,18,19
 617.223784701 318.799127167 617.223784701 318.799127167 511 546 c 0,20,21
 475 623 475 623 475 716 c 128,-1,22
 475 809 475 809 508 883 c 128,-1,23
 541 957 541 957 603.5 1012.5 c 0,24,25
 736.053934788 1130.20789409 736.053934788 1130.20789409 966 1142 c 1,26,-1
 966 1090 l 1,27,28
 826.775990099 1074.74257426 826.775990099 1074.74257426 754 972 c 0,29,30
 687 877.411764706 687 877.411764706 687 731 c 0,31,32
 687 494.70754717 687 494.70754717 839 401.5 c 0,33,34
 892 369 892 369 966 360 c 1,35,-1
 966 306 l 1,18,19
907 -30 m 1,36,37
 568.789473684 -14.9013157895 568.789473684 -14.9013157895 340 198 c 0,38,39
 111 411.097222222 111 411.097222222 111 711 c 256,40,41
 111 906.607843137 111 906.607843137 218 1075.5 c 0,42,43
 377.977223227 1328.01306803 377.977223227 1328.01306803 692.5 1417 c 0,44,45
 795 1446 795 1446 907 1451 c 1,46,-1
 907 1347 l 1,47,48
 730.916408669 1337.3250774 730.916408669 1337.3250774 578 1246 c 0,49,50
 352.94359196 1111.59131187 352.94359196 1111.59131187 282 871 c 0,51,52
 259 793 259 793 259 710.5 c 128,-1,53
 259 628 259 628 281.5 550 c 128,-1,54
 304 472 304 472 345.5 403 c 128,-1,55
 387 334 387 334 445.5 275.5 c 128,-1,56
 504 217 504 217 576 174 c 0,57,58
 728.79389313 82.7480916031 728.79389313 82.7480916031 907 75 c 1,59,-1
 907 -30 l 1,36,37
990 75 m 1,60,61
 1261.70339153 89.9287577764 1261.70339153 89.9287577764 1452 277 c 0,62,63
 1641 462.796610169 1641 462.796610169 1641 711 c 0,64,65
 1641 959.721590909 1641 959.721590909 1452 1145.5 c 0,66,67
 1263.36491863 1330.91971067 1263.36491863 1330.91971067 990 1347 c 1,68,-1
 990 1451 l 1,69,70
 1324.80454671 1439.04269476 1324.80454671 1439.04269476 1557.5 1224 c 0,71,72
 1703.31664581 1089.24530663 1703.31664581 1089.24530663 1760 903 c 0,73,74
 1788 811 1788 811 1788 711 c 256,75,76
 1788 412.958333333 1788 412.958333333 1557 198 c 0,77,78
 1411.44084109 62.5491160163 1411.44084109 62.5491160163 1204.5 4 c 0,79,80
 1102 -25 1102 -25 990 -30 c 1,81,-1
 990 75 l 1,60,61
EndSplineSet
EndChar

StartChar: ordfeminine
Encoding: 170 170 108
Width: 632
GlyphClass: 2
Flags: MW
LayerCount: 2
Fore
SplineSet
380 1300 m 2,0,1
 380 1365 380 1365 328 1389 c 1,2,-1
 328 1451 l 1,3,4
 532 1435.74766355 532 1435.74766355 532 1233 c 2,5,-1
 532 948 l 2,6,7
 532 910 532 910 565 910 c 0,8,9
 578 910 578 910 591.5 923 c 128,-1,10
 605 936 605 936 612 965 c 1,11,-1
 653 952 l 1,12,13
 644.212290503 886.092178771 644.212290503 886.092178771 626.106145251 866.046089385 c 0,14,15
 594.451612903 831 594.451612903 831 516.392473118 831 c 128,-1,16
 438.333333333 831 438.333333333 831 380 881 c 1,17,-1
 380 1300 l 2,0,1
297 1139 m 1,18,19
 170 1084.90740741 170 1084.90740741 170 981 c 0,20,21
 170 946 170 946 192 924.5 c 128,-1,22
 214 903 214 903 244 903 c 128,-1,23
 274 903 274 903 297 913 c 1,24,-1
 297 841 l 1,25,26
 263 831 263 831 218 831 c 0,27,28
 121 831 121 831 65 871 c 128,-1,29
 9 911 9 911 9 971.5 c 128,-1,30
 9 1032 9 1032 37 1068 c 128,-1,31
 65 1104 65 1104 107.5 1130 c 0,32,33
 172.602272727 1169.82727273 172.602272727 1169.82727273 297 1203 c 1,34,-1
 297 1139 l 1,18,19
143 1243 m 0,35,36
 54 1243 54 1243 54 1317 c 0,37,38
 54 1370 54 1370 105 1406 c 128,-1,39
 156 1442 156 1442 245 1450 c 1,40,-1
 245 1397 l 1,41,42
 195.932692308 1389.73076923 195.932692308 1389.73076923 190 1366 c 1,43,44
 224 1353.25 224 1353.25 224 1316.625 c 128,-1,45
 224 1280 224 1280 201 1261.5 c 128,-1,46
 178 1243 178 1243 143 1243 c 0,35,36
EndSplineSet
EndChar

StartChar: guillemotleft
Encoding: 171 171 109
Width: 1127
GlyphClass: 2
Flags: MW
LayerCount: 2
Fore
SplineSet
955 1059 m 1,0,-1
 955 944 l 1,1,-1
 688 600 l 1,2,-1
 955 256 l 1,3,-1
 955 141 l 1,4,-1
 533 559 l 1,5,-1
 533 641 l 1,6,-1
 955 1059 l 1,0,-1
564 1059 m 1,7,-1
 564 944 l 1,8,-1
 297 600 l 1,9,-1
 564 256 l 1,10,-1
 564 141 l 1,11,-1
 142 559 l 1,12,-1
 142 641 l 1,13,-1
 564 1059 l 1,7,-1
EndSplineSet
EndChar

StartChar: logicalnot
Encoding: 172 172 110
Width: 1425
GlyphClass: 2
Flags: MW
LayerCount: 2
Fore
SplineSet
1121 596 m 1,0,-1
 143 596 l 1,1,-1
 143 733 l 1,2,-1
 1280 733 l 1,3,-1
 1280 248 l 1,4,-1
 1121 248 l 1,5,-1
 1121 596 l 1,0,-1
EndSplineSet
EndChar

StartChar: uni00AD
Encoding: 173 173 111
Width: 637
GlyphClass: 2
Flags: MW
LayerCount: 2
Fore
SplineSet
560 557 m 1,0,-1
 560 424 l 1,1,-1
 77 424 l 1,2,-1
 77 557 l 1,3,-1
 560 557 l 1,0,-1
EndSplineSet
EndChar

StartChar: registered
Encoding: 174 174 112
Width: 1899
GlyphClass: 2
Flags: MW
LayerCount: 2
Fore
SplineSet
919 725 m 1,0,1
 1004 725 1004 725 1049.5 771 c 128,-1,2
 1095 817 1095 817 1095 905 c 0,3,4
 1095 1023.5625 1095 1023.5625 988 1057 c 0,5,6
 956 1067 956 1067 919 1067 c 1,7,-1
 919 1118 l 1,8,-1
 990 1118 l 2,9,10
 1183.92 1118 1183.92 1118 1254 1008.5 c 0,11,12
 1278 971 1278 971 1278 925.5 c 128,-1,13
 1278 880 1278 880 1263 844.5 c 128,-1,14
 1248 809 1248 809 1221 780.5 c 0,15,16
 1166.14642263 722.599001664 1166.14642263 722.599001664 1078 698 c 1,17,-1
 1221 532 l 2,18,19
 1325.42553191 410.170212766 1325.42553191 410.170212766 1405 354 c 1,20,-1
 1405 326 l 1,21,-1
 1242 326 l 2,22,23
 1204 326 1204 326 1171.5 356 c 128,-1,24
 1139 386 1139 386 1103 435 c 128,-1,25
 1067 484 1067 484 1023 546.5 c 128,-1,26
 979 609 979 609 919 674 c 1,27,-1
 919 725 l 1,0,1
836 446 m 2,28,29
 836 399.666666667 836 399.666666667 854.5 387.333333333 c 0,30,31
 881.956521739 369.028985507 881.956521739 369.028985507 955 367 c 1,32,-1
 955 326 l 1,33,-1
 542 326 l 1,34,-1
 542 367 l 1,35,36
 614.693418941 369.019261637 614.693418941 369.019261637 631.34670947 381.009630819 c 0,37,38
 658 400.2 658 400.2 658 446 c 2,39,-1
 658 997 l 2,40,41
 658 1042.8 658 1042.8 640.5 1055.4 c 0,42,43
 616.227424749 1072.87625418 616.227424749 1072.87625418 542 1077 c 1,44,-1
 542 1118 l 1,45,-1
 836 1118 l 1,46,-1
 836 446 l 2,28,29
905 -30 m 1,47,48
 566.789473684 -14.9013157895 566.789473684 -14.9013157895 338 198 c 0,49,50
 109 411.097222222 109 411.097222222 109 711 c 256,51,52
 109 906.607843137 109 906.607843137 216 1075.5 c 0,53,54
 375.977223227 1328.01306803 375.977223227 1328.01306803 690.5 1417 c 0,55,56
 793 1446 793 1446 905 1451 c 1,57,-1
 905 1347 l 1,58,59
 728.916408669 1337.3250774 728.916408669 1337.3250774 576 1246 c 0,60,61
 350.94359196 1111.59131187 350.94359196 1111.59131187 280 871 c 0,62,63
 257 793 257 793 257 710.5 c 128,-1,64
 257 628 257 628 279.5 550 c 128,-1,65
 302 472 302 472 343.5 403 c 128,-1,66
 385 334 385 334 443.5 275.5 c 128,-1,67
 502 217 502 217 574 174 c 0,68,69
 726.79389313 82.7480916031 726.79389313 82.7480916031 905 75 c 1,70,-1
 905 -30 l 1,47,48
988 75 m 1,71,72
 1259.70339153 89.9287577764 1259.70339153 89.9287577764 1450 277 c 0,73,74
 1639 462.796610169 1639 462.796610169 1639 711 c 0,75,76
 1639 959.721590909 1639 959.721590909 1450 1145.5 c 0,77,78
 1261.36491863 1330.91971067 1261.36491863 1330.91971067 988 1347 c 1,79,-1
 988 1451 l 1,80,81
 1322.80454671 1439.04269476 1322.80454671 1439.04269476 1555.5 1224 c 0,82,83
 1701.31664581 1089.24530663 1701.31664581 1089.24530663 1758 903 c 0,84,85
 1786 811 1786 811 1786 711 c 256,86,87
 1786 412.958333333 1786 412.958333333 1555 198 c 0,88,89
 1409.44084109 62.5491160163 1409.44084109 62.5491160163 1202.5 4 c 0,90,91
 1100 -25 1100 -25 988 -30 c 1,92,-1
 988 75 l 1,71,72
EndSplineSet
EndChar

StartChar: macron
Encoding: 175 175 113
Width: 637
GlyphClass: 2
Flags: MW
LayerCount: 2
Fore
SplineSet
644 1286 m 1,0,-1
 644 1178 l 1,1,-1
 -5 1178 l 1,2,-1
 -5 1286 l 1,3,-1
 644 1286 l 1,0,-1
EndSplineSet
EndChar

StartChar: degree
Encoding: 176 176 114
Width: 950
GlyphClass: 2
Flags: MW
LayerCount: 2
Fore
SplineSet
475 1366 m 256,0,1
 378.789473684 1366 378.789473684 1366 313 1303.5 c 0,2,3
 250 1243.65 250 1243.65 250 1159 c 256,4,5
 250 1074.8 250 1074.8 313 1016 c 0,6,7
 379.428571429 954 379.428571429 954 475 954 c 256,8,9
 570.571428571 954 570.571428571 954 637 1016 c 0,10,11
 701 1075.73333333 701 1075.73333333 701 1159 c 256,12,13
 701 1242.7 701 1242.7 637 1303.5 c 0,14,15
 571.210526316 1366 571.210526316 1366 475 1366 c 256,0,1
475 1452 m 256,16,17
 617.164556962 1452 617.164556962 1452 714.5 1367.5 c 128,-1,18
 812 1282.85714286 812 1282.85714286 812 1159 c 256,19,20
 812 1035.57142857 812 1035.57142857 714.5 952 c 0,21,22
 616.5 868 616.5 868 475 868 c 256,23,24
 333.5 868 333.5 868 235.5 952 c 0,25,26
 138 1035.57142857 138 1035.57142857 138 1159 c 256,27,28
 138 1282.85714286 138 1282.85714286 235.5 1367.5 c 128,-1,29
 332.835443038 1452 332.835443038 1452 475 1452 c 256,16,17
EndSplineSet
EndChar

StartChar: plusminus
Encoding: 177 177 115
Width: 1425
GlyphClass: 2
Flags: MW
LayerCount: 2
Fore
SplineSet
632 981 m 1,0,-1
 791 981 l 1,1,-1
 791 664 l 1,2,-1
 1280 664 l 1,3,-1
 1280 526 l 1,4,-1
 791 526 l 1,5,-1
 791 209 l 1,6,-1
 632 209 l 1,7,-1
 632 526 l 1,8,-1
 143 526 l 1,9,-1
 143 664 l 1,10,-1
 632 664 l 1,11,-1
 632 981 l 1,0,-1
143 137 m 1,12,-1
 1280 137 l 1,13,-1
 1280 0 l 1,14,-1
 143 0 l 1,15,-1
 143 137 l 1,12,-1
EndSplineSet
EndChar

StartChar: twosuperior
Encoding: 178 178 116
Width: 632
GlyphClass: 2
Flags: MW
LayerCount: 2
Fore
SplineSet
142 1143 m 0,0,1
 56 1143 56 1143 56 1251 c 0,2,3
 56 1368.5 56 1368.5 172 1426.5 c 0,4,5
 209 1445 209 1445 257 1450 c 1,6,-1
 257 1405 l 1,7,8
 172.181818182 1398.71717172 172.181818182 1398.71717172 142 1335 c 0,9,10
 133 1316 133 1316 133 1297 c 1,11,12
 143 1288 143 1288 157 1280 c 128,-1,13
 171 1272 171 1272 183 1262.5 c 0,14,15
 212 1239.54166667 212 1239.54166667 212 1210 c 0,16,17
 212 1143 212 1143 142 1143 c 0,0,1
196 681 m 1,18,-1
 299 681 l 2,19,20
 413.6 681 413.6 681 456.5 730.5 c 0,21,22
 476 753 476 753 486 782 c 128,-1,23
 496 811 496 811 513 842 c 1,24,-1
 542 842 l 1,25,-1
 542 579 l 1,26,-1
 123 579 l 1,27,-1
 196 681 l 1,18,-1
408 1219 m 0,28,29
 408 1372.64583333 408 1372.64583333 307 1400 c 1,30,-1
 307 1452 l 1,31,32
 424.446797247 1448.14928534 424.446797247 1448.14928534 493.5 1378 c 0,33,34
 557 1313.49206349 557 1313.49206349 557 1219 c 0,35,36
 557 1072.59793814 557 1072.59793814 377.5 900.5 c 0,37,38
 329 854 329 854 283 813.5 c 0,39,40
 164.136 708.848 164.136 708.848 144 682 c 2,41,-1
 68 579 l 1,42,-1
 36 579 l 1,43,-1
 48 693 l 1,44,45
 73 722 73 722 97.5 750.5 c 128,-1,46
 122 779 122 779 149.5 810.5 c 128,-1,47
 177 842 177 842 211 881 c 128,-1,48
 245 920 245 920 282.5 960 c 128,-1,49
 320 1000 320 1000 348 1040 c 0,50,51
 408 1125.71428571 408 1125.71428571 408 1219 c 0,28,29
EndSplineSet
EndChar

StartChar: threesuperior
Encoding: 179 179 117
Width: 632
GlyphClass: 2
Flags: MW
LayerCount: 2
Fore
SplineSet
275 1408 m 1,0,1
 180.71024735 1399.02002356 180.71024735 1399.02002356 169 1319 c 1,2,3
 215.588785047 1300.36448598 215.588785047 1300.36448598 225.794392523 1280.68224299 c 128,-1,4
 236 1261 236 1261 236 1233.5 c 128,-1,5
 236 1206 236 1206 216 1186 c 128,-1,6
 196 1166 196 1166 158 1166 c 128,-1,7
 120 1166 120 1166 94.5 1190 c 128,-1,8
 69 1214 69 1214 69 1258 c 128,-1,9
 69 1302 69 1302 84.5 1332.5 c 128,-1,10
 100 1363 100 1363 127 1387.5 c 0,11,12
 184.837209302 1439.98191214 184.837209302 1439.98191214 275 1450 c 1,13,-1
 275 1408 l 1,0,1
52 735 m 0,14,15
 52 851 52 851 159 851 c 0,16,17
 204.428571429 851 204.428571429 851 223 799 c 0,18,19
 228 785 228 785 228 769 c 128,-1,20
 228 753 228 753 222 739.5 c 128,-1,21
 216 726 216 726 205.5 717 c 0,22,23
 189.272727273 703.090909091 189.272727273 703.090909091 153 691 c 1,24,25
 155 656 155 656 188.5 631 c 128,-1,26
 222 606 222 606 275 605 c 1,27,-1
 275 560 l 1,28,29
 167 565 167 565 109.5 614 c 128,-1,30
 52 663 52 663 52 735 c 0,14,15
376 1036 m 1,31,32
 585 999.371134021 585 999.371134021 585 817 c 0,33,34
 585 713 585 713 514 642 c 0,35,36
 439.781818182 567.781818182 439.781818182 567.781818182 325 560 c 1,37,-1
 325 610 l 1,38,39
 439 635.333333333 439 635.333333333 439 807 c 0,40,41
 439 962.96 439 962.96 350 995 c 0,42,43
 325 1004 325 1004 299 1004 c 2,44,-1
 271 1003 l 1,45,-1
 254 1003 l 2,46,47
 220 1003 220 1003 220 1029 c 128,-1,48
 220 1055 220 1055 254 1055 c 1,49,50
 257 1059 257 1059 271 1058.5 c 128,-1,51
 285 1058 285 1058 304 1059.5 c 128,-1,52
 323 1061 323 1061 344 1068.5 c 128,-1,53
 365 1076 365 1076 383 1095 c 0,54,55
 424 1138.27777778 424 1138.27777778 424 1223.13888889 c 0,56,57
 424 1380.32608696 424 1380.32608696 325 1404 c 1,58,-1
 325 1451 l 1,59,60
 434.235334012 1445.04170905 434.235334012 1445.04170905 499 1385.5 c 0,61,62
 563 1326.66129032 563 1326.66129032 563 1240 c 0,63,64
 563 1077.95833333 563 1077.95833333 376 1039 c 1,65,-1
 376 1036 l 1,31,32
EndSplineSet
EndChar

StartChar: acute
Encoding: 180 180 118
Width: 637
GlyphClass: 2
Flags: MW
LayerCount: 2
Fore
SplineSet
147 1096 m 1,0,-1
 434 1370 l 2,1,2
 466 1400 466 1400 497.5 1423 c 128,-1,3
 529 1446 529 1446 556.5 1446 c 128,-1,4
 584 1446 584 1446 599.5 1439.5 c 128,-1,5
 615 1433 615 1433 625 1422.5 c 0,6,7
 646 1400.45 646 1400.45 646 1375.225 c 0,8,9
 646 1334.4 646 1334.4 582 1296 c 2,10,-1
 242 1096 l 1,11,-1
 147 1096 l 1,0,-1
EndSplineSet
EndChar

StartChar: mu
Encoding: 181 181 119
Width: 1164
GlyphClass: 2
Flags: MW
LayerCount: 2
Fore
SplineSet
47 -391 m 1,0,-1
 47 -338 l 1,1,2
 68 -326 68 -326 91 -318.5 c 128,-1,3
 114 -311 114 -311 133 -301.5 c 0,4,5
 176 -280 176 -280 176 -233 c 2,6,-1
 176 821 l 2,7,8
 176 873.352941176 176 873.352941176 137 894 c 0,9,10
 120 903 120 903 99 908.5 c 128,-1,11
 78 914 78 914 59 926 c 1,12,-1
 59 987 l 1,13,-1
 390 987 l 1,14,-1
 390 -391 l 1,15,-1
 47 -391 l 1,0,-1
474 91 m 1,16,17
 507 80 507 80 545 80 c 128,-1,18
 583 80 583 80 622 98.5 c 128,-1,19
 661 117 661 117 691.5 147 c 0,20,21
 752.323328067 206.826224329 752.323328067 206.826224329 770 293 c 1,22,-1
 770 774 l 2,23,24
 770 848.764705882 770 848.764705882 757 867.882352941 c 128,-1,25
 744 887 744 887 732 892.5 c 128,-1,26
 720 898 720 898 706.5 901.5 c 0,27,28
 663.962264151 912.528301887 663.962264151 912.528301887 646 926 c 1,29,-1
 646 987 l 1,30,-1
 983 987 l 1,31,-1
 983 164 l 2,32,33
 983 112.5 983 112.5 1024 92 c 0,34,35
 1042 83 1042 83 1063 77 c 128,-1,36
 1084 71 1084 71 1103 59 c 1,37,-1
 1103 0 l 1,38,-1
 784 0 l 1,39,-1
 784 123 l 1,40,-1
 781 123 l 1,41,42
 692.029765312 -23.5392100744 692.029765312 -23.5392100744 474 -27 c 1,43,-1
 474 91 l 1,16,17
EndSplineSet
EndChar

StartChar: paragraph
Encoding: 182 182 120
Width: 1425
GlyphClass: 2
Flags: MW
LayerCount: 2
Fore
SplineSet
140 1010 m 0,0,1
 140 1421 140 1421 573 1421 c 2,2,-1
 705 1421 l 1,3,-1
 705 -240 l 1,4,-1
 560 -240 l 1,5,-1
 560 586 l 1,6,7
 354.539823009 586 354.539823009 586 243.5 705.5 c 0,8,9
 140 816.885714286 140 816.885714286 140 1010 c 0,0,1
845 1421 m 1,10,-1
 1166 1421 l 1,11,-1
 1166 1374 l 1,12,13
 1068.90632911 1369.86835443 1068.90632911 1369.86835443 1039.45316456 1350.93417722 c 0,14,15
 990 1319.14285714 990 1319.14285714 990 1255 c 2,16,-1
 990 -240 l 1,17,-1
 845 -240 l 1,18,-1
 845 1421 l 1,10,-1
EndSplineSet
EndChar

StartChar: periodcentered
Encoding: 183 183 121
Width: 528
GlyphClass: 2
Flags: MW
LayerCount: 2
Fore
SplineSet
398 489 m 256,0,1
 398 437.297297297 398 437.297297297 358.5 401 c 0,2,3
 319.323529412 365 319.323529412 365 277.661764706 365 c 128,-1,4
 236 365 236 365 211 374.5 c 128,-1,5
 186 384 186 384 167.5 401 c 0,6,7
 128 437.297297297 128 437.297297297 128 489 c 256,8,9
 128 541.702702703 128 541.702702703 167.5 578 c 0,10,11
 206.676470588 614 206.676470588 614 248.838235294 614 c 0,12,13
 319.323529412 614 319.323529412 614 358.661764706 577.851351351 c 128,-1,14
 398 541.702702703 398 541.702702703 398 489 c 256,0,1
EndSplineSet
EndChar

StartChar: cedilla
Encoding: 184 184 122
Width: 637
GlyphClass: 2
Flags: MW
LayerCount: 2
Fore
SplineSet
274 -203 m 0,0,1
 230 -203 230 -203 202 -217 c 1,2,-1
 166 -205 l 1,3,-1
 270 0 l 1,4,-1
 349 0 l 1,5,-1
 281 -137 l 1,6,7
 315 -127 315 -127 360.5 -127 c 128,-1,8
 406 -127 406 -127 440 -137 c 128,-1,9
 474 -147 474 -147 499 -165.5 c 0,10,11
 553 -205.46 553 -205.46 553 -270 c 0,12,13
 553 -347.722222222 553 -347.722222222 479 -395 c 0,14,15
 402.304347826 -444 402.304347826 -444 274 -444 c 0,16,17
 157.333333333 -444 157.333333333 -444 61 -410 c 1,18,-1
 97 -348 l 1,19,20
 161.384615385 -375 161.384615385 -375 238.192307692 -375 c 128,-1,21
 315 -375 315 -375 351 -349.5 c 128,-1,22
 387 -324 387 -324 387 -287 c 0,23,24
 387 -203 387 -203 274 -203 c 0,0,1
EndSplineSet
EndChar

StartChar: onesuperior
Encoding: 185 185 123
Width: 632
GlyphClass: 2
Flags: MW
LayerCount: 2
Fore
SplineSet
260 1410 m 1,0,1
 302.75862069 1429.24137931 302.75862069 1429.24137931 335 1452 c 1,2,-1
 395 1452 l 1,3,-1
 395 742 l 2,4,5
 395 659.941176471 395 659.941176471 431 643 c 0,6,7
 448 635 448 635 471.5 632.5 c 128,-1,8
 495 630 495 630 524 616 c 1,9,-1
 524 579 l 1,10,-1
 129 579 l 1,11,-1
 129 616 l 1,12,13
 158 630 158 630 182 632.5 c 128,-1,14
 206 635 206 635 223.5 643 c 0,15,16
 260 659.685714286 260 659.685714286 260 742 c 2,17,-1
 260 1410 l 1,0,1
210 1320 m 1,18,19
 188 1331 188 1331 124 1331 c 1,20,-1
 124 1368 l 1,21,22
 178.090909091 1378.81818182 178.090909091 1378.81818182 210 1393 c 1,23,-1
 210 1320 l 1,18,19
EndSplineSet
EndChar

StartChar: ordmasculine
Encoding: 186 186 124
Width: 632
GlyphClass: 2
Flags: MW
LayerCount: 2
Fore
SplineSet
354 905 m 1,0,1
 446 944.1 446 944.1 446 1141.5 c 128,-1,2
 446 1338.9 446 1338.9 354 1378 c 1,3,-1
 354 1450 l 1,4,5
 460.224489796 1437.25306122 460.224489796 1437.25306122 530 1360.5 c 0,6,7
 607 1275.8 607 1275.8 607 1143 c 0,8,9
 607 1009.2 607 1009.2 530 924.5 c 0,10,11
 459.467640919 846.91440501 459.467640919 846.91440501 354 834 c 1,12,-1
 354 905 l 1,0,1
271 1378 m 1,13,14
 183 1340.6 183 1340.6 183 1142 c 128,-1,15
 183 943.4 183 943.4 271 906 c 1,16,-1
 271 834 l 1,17,18
 101.999418942 857.660081348 101.999418942 857.660081348 41.5 1018.5 c 0,19,20
 21 1073 21 1073 21 1142.5 c 128,-1,21
 21 1212 21 1212 41.5 1266 c 128,-1,22
 62 1320 62 1320 96.5 1358.5 c 0,23,24
 163.885106383 1433.69787234 163.885106383 1433.69787234 271 1449 c 1,25,-1
 271 1378 l 1,13,14
EndSplineSet
EndChar

StartChar: guillemotright
Encoding: 187 187 125
Width: 1127
GlyphClass: 2
Flags: MW
LayerCount: 2
Fore
SplineSet
564 1059 m 1,0,-1
 986 641 l 1,1,-1
 986 559 l 1,2,-1
 564 141 l 1,3,-1
 564 256 l 1,4,-1
 832 600 l 1,5,-1
 564 944 l 1,6,-1
 564 1059 l 1,0,-1
174 1059 m 1,7,-1
 596 641 l 1,8,-1
 596 559 l 1,9,-1
 174 141 l 1,10,-1
 174 256 l 1,11,-1
 440 600 l 1,12,-1
 174 944 l 1,13,-1
 174 1059 l 1,7,-1
EndSplineSet
EndChar

StartChar: onequarter
Encoding: 188 188 126
Width: 1581
GlyphClass: 2
Flags: MW
LayerCount: 2
Fore
SplineSet
410 -31 m 1,0,-1
 261 -31 l 1,1,-1
 1298 1452 l 1,2,-1
 1451 1452 l 1,3,-1
 410 -31 l 1,0,-1
1422 145 m 2,4,5
 1422 80.7826086957 1422 80.7826086957 1445.5 67.5 c 0,6,7
 1457 61 1457 61 1472.5 58.5 c 128,-1,8
 1488 56 1488 56 1507 45 c 1,9,-1
 1507 0 l 1,10,-1
 1164 0 l 1,11,-1
 1164 41 l 1,12,13
 1187 58 1187 58 1207 60 c 128,-1,14
 1227 62 1227 62 1242 67 c 0,15,16
 1275 78 1275 78 1275 150 c 2,17,-1
 1275 797 l 1,18,-1
 1328 870 l 1,19,-1
 1422 870 l 1,20,-1
 1422 145 l 2,4,5
1192 229 m 1,21,-1
 926 229 l 1,22,-1
 926 303 l 1,23,-1
 1192 678 l 1,24,-1
 1192 559 l 1,25,-1
 1017 305 l 1,26,-1
 1017 301 l 1,27,-1
 1192 301 l 1,28,-1
 1192 229 l 1,21,-1
1505 301 m 1,29,-1
 1559 301 l 1,30,-1
 1559 229 l 1,31,-1
 1505 229 l 1,32,-1
 1505 301 l 1,29,-1
260 1410 m 1,33,34
 302.75862069 1429.24137931 302.75862069 1429.24137931 335 1452 c 1,35,-1
 395 1452 l 1,36,-1
 395 742 l 2,37,38
 395 659.941176471 395 659.941176471 431 643 c 0,39,40
 448 635 448 635 471.5 632.5 c 128,-1,41
 495 630 495 630 524 616 c 1,42,-1
 524 579 l 1,43,-1
 129 579 l 1,44,-1
 129 616 l 1,45,46
 158 630 158 630 182 632.5 c 128,-1,47
 206 635 206 635 223.5 643 c 0,48,49
 260 659.685714286 260 659.685714286 260 742 c 2,50,-1
 260 1410 l 1,33,34
210 1320 m 1,51,52
 188 1331 188 1331 124 1331 c 1,53,-1
 124 1368 l 1,54,55
 178.090909091 1378.81818182 178.090909091 1378.81818182 210 1393 c 1,56,-1
 210 1320 l 1,51,52
EndSplineSet
EndChar

StartChar: onehalf
Encoding: 189 189 127
Width: 1582
GlyphClass: 2
Flags: MW
LayerCount: 2
Fore
SplineSet
354 -31 m 1,0,-1
 204 -31 l 1,1,-1
 1242 1452 l 1,2,-1
 1394 1452 l 1,3,-1
 354 -31 l 1,0,-1
260 1410 m 1,4,5
 302.75862069 1429.24137931 302.75862069 1429.24137931 335 1452 c 1,6,-1
 395 1452 l 1,7,-1
 395 742 l 2,8,9
 395 659.941176471 395 659.941176471 431 643 c 0,10,11
 448 635 448 635 471.5 632.5 c 128,-1,12
 495 630 495 630 524 616 c 1,13,-1
 524 579 l 1,14,-1
 129 579 l 1,15,-1
 129 616 l 1,16,17
 158 630 158 630 182 632.5 c 128,-1,18
 206 635 206 635 223.5 643 c 0,19,20
 260 659.685714286 260 659.685714286 260 742 c 2,21,-1
 260 1410 l 1,4,5
210 1320 m 1,22,23
 188 1331 188 1331 124 1331 c 1,24,-1
 124 1368 l 1,25,26
 178.090909091 1378.81818182 178.090909091 1378.81818182 210 1393 c 1,27,-1
 210 1320 l 1,22,23
1124 564 m 0,28,29
 1038 564 1038 564 1038 672 c 0,30,31
 1038 789.5 1038 789.5 1154 847.5 c 0,32,33
 1191 866 1191 866 1239 871 c 1,34,-1
 1239 826 l 1,35,36
 1154.18181818 819.717171717 1154.18181818 819.717171717 1124 756 c 0,37,38
 1115 737 1115 737 1115 718 c 1,39,40
 1125 709 1125 709 1139 701 c 128,-1,41
 1153 693 1153 693 1165 683.5 c 0,42,43
 1194 660.541666667 1194 660.541666667 1194 631 c 0,44,45
 1194 564 1194 564 1124 564 c 0,28,29
1178 102 m 1,46,-1
 1281 102 l 2,47,48
 1395.6 102 1395.6 102 1438.5 151.5 c 0,49,50
 1458 174 1458 174 1468 203 c 128,-1,51
 1478 232 1478 232 1495 263 c 1,52,-1
 1524 263 l 1,53,-1
 1524 0 l 1,54,-1
 1105 0 l 1,55,-1
 1178 102 l 1,46,-1
1390 640 m 0,56,57
 1390 793.645833333 1390 793.645833333 1289 821 c 1,58,-1
 1289 873 l 1,59,60
 1406.44679725 869.149285336 1406.44679725 869.149285336 1475.5 799 c 0,61,62
 1539 734.492063492 1539 734.492063492 1539 640 c 0,63,64
 1539 493.597938144 1539 493.597938144 1359.5 321.5 c 0,65,66
 1311 275 1311 275 1265 234.5 c 0,67,68
 1146.136 129.848 1146.136 129.848 1126 103 c 2,69,-1
 1050 0 l 1,70,-1
 1018 0 l 1,71,-1
 1030 114 l 1,72,73
 1055 143 1055 143 1079.5 171.5 c 128,-1,74
 1104 200 1104 200 1131.5 231.5 c 128,-1,75
 1159 263 1159 263 1193 302 c 128,-1,76
 1227 341 1227 341 1264.5 381 c 128,-1,77
 1302 421 1302 421 1330 461 c 0,78,79
 1390 546.714285714 1390 546.714285714 1390 640 c 0,56,57
EndSplineSet
EndChar

StartChar: threequarters
Encoding: 190 190 128
Width: 1581
GlyphClass: 2
Flags: MW
LayerCount: 2
Fore
SplineSet
410 -31 m 1,0,-1
 261 -31 l 1,1,-1
 1298 1452 l 1,2,-1
 1450 1452 l 1,3,-1
 410 -31 l 1,0,-1
1422 145 m 2,4,5
 1422 80.7826086957 1422 80.7826086957 1445.5 67.5 c 0,6,7
 1457 61 1457 61 1472.5 58.5 c 128,-1,8
 1488 56 1488 56 1507 45 c 1,9,-1
 1507 0 l 1,10,-1
 1164 0 l 1,11,-1
 1164 41 l 1,12,13
 1187 58 1187 58 1207 60 c 128,-1,14
 1227 62 1227 62 1242 67 c 0,15,16
 1275 78 1275 78 1275 150 c 2,17,-1
 1275 797 l 1,18,-1
 1328 870 l 1,19,-1
 1422 870 l 1,20,-1
 1422 145 l 2,4,5
1192 229 m 1,21,-1
 926 229 l 1,22,-1
 926 303 l 1,23,-1
 1192 678 l 1,24,-1
 1192 559 l 1,25,-1
 1017 305 l 1,26,-1
 1017 301 l 1,27,-1
 1192 301 l 1,28,-1
 1192 229 l 1,21,-1
1505 301 m 1,29,-1
 1559 301 l 1,30,-1
 1559 229 l 1,31,-1
 1505 229 l 1,32,-1
 1505 301 l 1,29,-1
275 1408 m 1,33,34
 180.71024735 1399.02002356 180.71024735 1399.02002356 169 1319 c 1,35,36
 215.588785047 1300.36448598 215.588785047 1300.36448598 225.794392523 1280.68224299 c 128,-1,37
 236 1261 236 1261 236 1233.5 c 128,-1,38
 236 1206 236 1206 216 1186 c 128,-1,39
 196 1166 196 1166 158 1166 c 128,-1,40
 120 1166 120 1166 94.5 1190 c 128,-1,41
 69 1214 69 1214 69 1258 c 128,-1,42
 69 1302 69 1302 84.5 1332.5 c 128,-1,43
 100 1363 100 1363 127 1387.5 c 0,44,45
 184.837209302 1439.98191214 184.837209302 1439.98191214 275 1450 c 1,46,-1
 275 1408 l 1,33,34
52 735 m 0,47,48
 52 851 52 851 159 851 c 0,49,50
 204.428571429 851 204.428571429 851 223 799 c 0,51,52
 228 785 228 785 228 769 c 128,-1,53
 228 753 228 753 222 739.5 c 128,-1,54
 216 726 216 726 205.5 717 c 0,55,56
 189.272727273 703.090909091 189.272727273 703.090909091 153 691 c 1,57,58
 155 656 155 656 188.5 631 c 128,-1,59
 222 606 222 606 275 605 c 1,60,-1
 275 560 l 1,61,62
 167 565 167 565 109.5 614 c 128,-1,63
 52 663 52 663 52 735 c 0,47,48
376 1036 m 1,64,65
 585 999.371134021 585 999.371134021 585 817 c 0,66,67
 585 713 585 713 514 642 c 0,68,69
 439.781818182 567.781818182 439.781818182 567.781818182 325 560 c 1,70,-1
 325 610 l 1,71,72
 439 635.333333333 439 635.333333333 439 807 c 0,73,74
 439 962.96 439 962.96 350 995 c 0,75,76
 325 1004 325 1004 299 1004 c 2,77,-1
 271 1003 l 1,78,-1
 254 1003 l 2,79,80
 220 1003 220 1003 220 1029 c 128,-1,81
 220 1055 220 1055 254 1055 c 1,82,83
 257 1059 257 1059 271 1058.5 c 128,-1,84
 285 1058 285 1058 304 1059.5 c 128,-1,85
 323 1061 323 1061 344 1068.5 c 128,-1,86
 365 1076 365 1076 383 1095 c 0,87,88
 424 1138.27777778 424 1138.27777778 424 1223.13888889 c 0,89,90
 424 1380.32608696 424 1380.32608696 325 1404 c 1,91,-1
 325 1451 l 1,92,93
 434.235334012 1445.04170905 434.235334012 1445.04170905 499 1385.5 c 0,94,95
 563 1326.66129032 563 1326.66129032 563 1240 c 0,96,97
 563 1077.95833333 563 1077.95833333 376 1039 c 1,98,-1
 376 1036 l 1,64,65
EndSplineSet
EndChar

StartChar: questiondown
Encoding: 191 191 129
Width: 924
GlyphClass: 2
Flags: MW
LayerCount: 2
Fore
SplineSet
525 -364 m 1,0,1
 598.6 -364 598.6 -364 647 -325.5 c 0,2,3
 691.929577465 -289.76056338 691.929577465 -289.76056338 694 -238 c 1,4,5
 632 -225 632 -225 597 -190 c 128,-1,6
 562 -155 562 -155 562 -105 c 128,-1,7
 562 -55 562 -55 594 -23.5 c 128,-1,8
 626 8 626 8 687.5 8 c 128,-1,9
 749 8 749 8 788.5 -32 c 128,-1,10
 828 -72 828 -72 828 -140.5 c 128,-1,11
 828 -209 828 -209 807 -259 c 128,-1,12
 786 -309 786 -309 747 -348.5 c 0,13,14
 664.25115346 -432.309729188 664.25115346 -432.309729188 525 -448 c 1,15,-1
 525 -364 l 1,0,1
315 -117 m 0,16,17
 315 -298.754385965 315 -298.754385965 442 -350 c 1,18,-1
 442 -451 l 1,19,20
 272.905565979 -445.300187617 272.905565979 -445.300187617 169 -342.5 c 0,21,22
 73 -247.521276596 73 -247.521276596 73 -117 c 0,23,24
 73 13 73 13 173 113 c 0,25,26
 216 156 216 156 266.5 194 c 128,-1,27
 317 232 317 232 360 276 c 0,28,29
 460 378.325581395 460 378.325581395 460 512 c 2,30,-1
 460 598 l 1,31,-1
 555 598 l 1,32,-1
 555 491 l 2,33,34
 555 371.018867925 555 371.018867925 492.5 275.5 c 0,35,36
 466 235 466 235 435 198.5 c 128,-1,37
 404 162 404 162 377.5 118.5 c 0,38,39
 315 15.9056603774 315 15.9056603774 315 -117 c 0,16,17
591.5 798 m 128,-1,41
 555 761 555 761 512 761 c 128,-1,42
 469 761 469 761 445.5 771.5 c 128,-1,43
 422 782 422 782 404 800 c 0,44,45
 365 839 365 839 365 879.5 c 128,-1,46
 365 920 365 920 375 943.5 c 128,-1,47
 385 967 385 967 402.5 984 c 0,48,49
 440.588235294 1021 440.588235294 1021 482.794117647 1021 c 128,-1,50
 525 1021 525 1021 549.5 1011.5 c 128,-1,51
 574 1002 574 1002 591.5 985 c 0,52,53
 628 949.542857143 628 949.542857143 628 892.271428571 c 128,-1,40
 628 835 628 835 591.5 798 c 128,-1,41
EndSplineSet
EndChar

StartChar: Agrave
Encoding: 192 192 130
Width: 1254
GlyphClass: 2
Flags: MW
LayerCount: 2
Fore
SplineSet
711 451 m 1,0,-1
 407 451 l 1,1,-1
 432 543 l 1,2,-1
 681 543 l 1,3,-1
 711 451 l 1,0,-1
513 1003 m 1,4,-1
 278 301 l 1,5,6
 247 212 247 212 248 167.5 c 128,-1,7
 249 123 249 123 262 109 c 128,-1,8
 275 95 275 95 296 89 c 128,-1,9
 317 83 317 83 344 79 c 128,-1,10
 371 75 371 75 399 61 c 1,11,-1
 399 0 l 1,12,-1
 -36 0 l 1,13,-1
 -36 61 l 1,14,15
 -15 73 -15 73 8 80 c 128,-1,16
 31 87 31 87 51.5 96 c 0,17,18
 100.73326572 117.614604462 100.73326572 117.614604462 115 162 c 2,19,-1
 453 1165 l 1,20,-1
 513 1003 l 1,4,-1
488 1267 m 1,21,22
 434.153846154 1285.84615385 434.153846154 1285.84615385 415 1305 c 1,23,24
 417 1326 417 1326 420.5 1344.5 c 128,-1,25
 424 1363 424 1363 427.5 1381.5 c 128,-1,26
 431 1400 431 1400 435 1412 c 1,27,28
 625 1452 625 1452 655 1452 c 1,29,30
 676.048387097 1435.16129032 676.048387097 1435.16129032 694 1389 c 1,31,-1
 1133 178 l 2,32,33
 1154.59322034 118.203389831 1154.59322034 118.203389831 1199 96 c 0,34,35
 1219 86 1219 86 1241.5 79.5 c 128,-1,36
 1264 73 1264 73 1289 61 c 1,37,-1
 1289 0 l 1,38,-1
 748 0 l 1,39,-1
 748 61 l 1,40,41
 771 72 771 72 796 76.5 c 128,-1,42
 821 81 821 81 841.5 86 c 0,43,44
 888 97.3414634146 888 97.3414634146 888 131 c 0,45,46
 888 161.470588235 888 161.470588235 840 293.235294118 c 128,-1,47
 792 425 792 425 755 528.5 c 0,48,49
 651.950413223 816.760330579 651.950413223 816.760330579 553 1106 c 1,50,-1
 488 1267 l 1,21,22
781 1542 m 1,51,-1
 442 1742 l 2,52,53
 378 1779.16129032 378 1779.16129032 378 1822 c 0,54,55
 378 1865.10344828 378 1865.10344828 423.5 1885.5 c 0,56,57
 438 1892 438 1892 465.5 1892 c 0,58,59
 507.933333333 1892 507.933333333 1892 589 1816 c 1,60,-1
 876 1542 l 1,61,-1
 781 1542 l 1,51,-1
EndSplineSet
EndChar

StartChar: Aacute
Encoding: 193 193 131
Width: 1254
GlyphClass: 2
Flags: MW
LayerCount: 2
Fore
SplineSet
711 451 m 1,0,-1
 407 451 l 1,1,-1
 432 543 l 1,2,-1
 681 543 l 1,3,-1
 711 451 l 1,0,-1
513 1003 m 1,4,-1
 278 301 l 1,5,6
 247 212 247 212 248 167.5 c 128,-1,7
 249 123 249 123 262 109 c 128,-1,8
 275 95 275 95 296 89 c 128,-1,9
 317 83 317 83 344 79 c 128,-1,10
 371 75 371 75 399 61 c 1,11,-1
 399 0 l 1,12,-1
 -36 0 l 1,13,-1
 -36 61 l 1,14,15
 -15 73 -15 73 8 80 c 128,-1,16
 31 87 31 87 51.5 96 c 0,17,18
 100.73326572 117.614604462 100.73326572 117.614604462 115 162 c 2,19,-1
 453 1165 l 1,20,-1
 513 1003 l 1,4,-1
488 1267 m 1,21,22
 434.153846154 1285.84615385 434.153846154 1285.84615385 415 1305 c 1,23,24
 417 1326 417 1326 420.5 1344.5 c 128,-1,25
 424 1363 424 1363 427.5 1381.5 c 128,-1,26
 431 1400 431 1400 435 1412 c 1,27,28
 625 1452 625 1452 655 1452 c 1,29,30
 676.048387097 1435.16129032 676.048387097 1435.16129032 694 1389 c 1,31,-1
 1133 178 l 2,32,33
 1154.59322034 118.203389831 1154.59322034 118.203389831 1199 96 c 0,34,35
 1219 86 1219 86 1241.5 79.5 c 128,-1,36
 1264 73 1264 73 1289 61 c 1,37,-1
 1289 0 l 1,38,-1
 748 0 l 1,39,-1
 748 61 l 1,40,41
 771 72 771 72 796 76.5 c 128,-1,42
 821 81 821 81 841.5 86 c 0,43,44
 888 97.3414634146 888 97.3414634146 888 131 c 0,45,46
 888 161.470588235 888 161.470588235 840 293.235294118 c 128,-1,47
 792 425 792 425 755 528.5 c 0,48,49
 651.950413223 816.760330579 651.950413223 816.760330579 553 1106 c 1,50,-1
 488 1267 l 1,21,22
377 1542 m 1,51,-1
 664 1816 l 2,52,53
 696 1846 696 1846 727.5 1869 c 128,-1,54
 759 1892 759 1892 786.5 1892 c 128,-1,55
 814 1892 814 1892 829.5 1885.5 c 128,-1,56
 845 1879 845 1879 855 1868.5 c 0,57,58
 876 1846.45 876 1846.45 876 1821.225 c 0,59,60
 876 1780.4 876 1780.4 812 1742 c 2,61,-1
 472 1542 l 1,62,-1
 377 1542 l 1,51,-1
EndSplineSet
EndChar

StartChar: Acircumflex
Encoding: 194 194 132
Width: 1254
GlyphClass: 2
Flags: MW
LayerCount: 2
Fore
SplineSet
711 451 m 1,0,-1
 407 451 l 1,1,-1
 432 543 l 1,2,-1
 681 543 l 1,3,-1
 711 451 l 1,0,-1
513 1003 m 1,4,-1
 278 301 l 1,5,6
 247 212 247 212 248 167.5 c 128,-1,7
 249 123 249 123 262 109 c 128,-1,8
 275 95 275 95 296 89 c 128,-1,9
 317 83 317 83 344 79 c 128,-1,10
 371 75 371 75 399 61 c 1,11,-1
 399 0 l 1,12,-1
 -36 0 l 1,13,-1
 -36 61 l 1,14,15
 -15 73 -15 73 8 80 c 128,-1,16
 31 87 31 87 51.5 96 c 0,17,18
 100.73326572 117.614604462 100.73326572 117.614604462 115 162 c 2,19,-1
 453 1165 l 1,20,-1
 513 1003 l 1,4,-1
488 1267 m 1,21,22
 434.153846154 1285.84615385 434.153846154 1285.84615385 415 1305 c 1,23,24
 417 1326 417 1326 420.5 1344.5 c 128,-1,25
 424 1363 424 1363 427.5 1381.5 c 128,-1,26
 431 1400 431 1400 435 1412 c 1,27,28
 625 1452 625 1452 655 1452 c 1,29,30
 676.048387097 1435.16129032 676.048387097 1435.16129032 694 1389 c 1,31,-1
 1133 178 l 2,32,33
 1154.59322034 118.203389831 1154.59322034 118.203389831 1199 96 c 0,34,35
 1219 86 1219 86 1241.5 79.5 c 128,-1,36
 1264 73 1264 73 1289 61 c 1,37,-1
 1289 0 l 1,38,-1
 748 0 l 1,39,-1
 748 61 l 1,40,41
 771 72 771 72 796 76.5 c 128,-1,42
 821 81 821 81 841.5 86 c 0,43,44
 888 97.3414634146 888 97.3414634146 888 131 c 0,45,46
 888 161.470588235 888 161.470588235 840 293.235294118 c 128,-1,47
 792 425 792 425 755 528.5 c 0,48,49
 651.950413223 816.760330579 651.950413223 816.760330579 553 1106 c 1,50,-1
 488 1267 l 1,21,22
700 1886 m 1,51,-1
 966 1542 l 1,52,-1
 879 1542 l 1,53,-1
 626 1769 l 1,54,-1
 372 1542 l 1,55,-1
 287 1542 l 1,56,-1
 550 1886 l 1,57,-1
 700 1886 l 1,51,-1
EndSplineSet
EndChar

StartChar: Atilde
Encoding: 195 195 133
Width: 1254
GlyphClass: 2
Flags: MW
LayerCount: 2
Fore
SplineSet
711 451 m 1,0,-1
 407 451 l 1,1,-1
 432 543 l 1,2,-1
 681 543 l 1,3,-1
 711 451 l 1,0,-1
513 1003 m 1,4,-1
 278 301 l 1,5,6
 247 212 247 212 248 167.5 c 128,-1,7
 249 123 249 123 262 109 c 128,-1,8
 275 95 275 95 296 89 c 128,-1,9
 317 83 317 83 344 79 c 128,-1,10
 371 75 371 75 399 61 c 1,11,-1
 399 0 l 1,12,-1
 -36 0 l 1,13,-1
 -36 61 l 1,14,15
 -15 73 -15 73 8 80 c 128,-1,16
 31 87 31 87 51.5 96 c 0,17,18
 100.73326572 117.614604462 100.73326572 117.614604462 115 162 c 2,19,-1
 453 1165 l 1,20,-1
 513 1003 l 1,4,-1
488 1267 m 1,21,22
 434.153846154 1285.84615385 434.153846154 1285.84615385 415 1305 c 1,23,24
 417 1326 417 1326 420.5 1344.5 c 128,-1,25
 424 1363 424 1363 427.5 1381.5 c 128,-1,26
 431 1400 431 1400 435 1412 c 1,27,28
 625 1452 625 1452 655 1452 c 1,29,30
 676.048387097 1435.16129032 676.048387097 1435.16129032 694 1389 c 1,31,-1
 1133 178 l 2,32,33
 1154.59322034 118.203389831 1154.59322034 118.203389831 1199 96 c 0,34,35
 1219 86 1219 86 1241.5 79.5 c 128,-1,36
 1264 73 1264 73 1289 61 c 1,37,-1
 1289 0 l 1,38,-1
 748 0 l 1,39,-1
 748 61 l 1,40,41
 771 72 771 72 796 76.5 c 128,-1,42
 821 81 821 81 841.5 86 c 0,43,44
 888 97.3414634146 888 97.3414634146 888 131 c 0,45,46
 888 161.470588235 888 161.470588235 840 293.235294118 c 128,-1,47
 792 425 792 425 755 528.5 c 0,48,49
 651.950413223 816.760330579 651.950413223 816.760330579 553 1106 c 1,50,-1
 488 1267 l 1,21,22
982 1812 m 1,51,52
 920.96875 1595 920.96875 1595 756 1595 c 0,53,54
 697.583333333 1595 697.583333333 1595 627.791666667 1628.5 c 128,-1,55
 558 1662 558 1662 522.5 1677.5 c 128,-1,56
 487 1693 487 1693 456 1693 c 128,-1,57
 425 1693 425 1693 405.5 1684 c 128,-1,58
 386 1675 386 1675 372.5 1660.5 c 0,59,60
 351.730769231 1638.19230769 351.730769231 1638.19230769 336 1591 c 1,61,-1
 271 1591 l 1,62,63
 294 1697 294 1697 353.5 1749.5 c 128,-1,64
 413 1802 413 1802 495 1802 c 0,65,66
 552.486486486 1802 552.486486486 1802 623.243243243 1768 c 128,-1,67
 694 1734 694 1734 728.5 1718.5 c 128,-1,68
 763 1703 763 1703 791.5 1703 c 128,-1,69
 820 1703 820 1703 839 1711.5 c 128,-1,70
 858 1720 858 1720 872 1734.5 c 0,71,72
 887.723076923 1750.78461538 887.723076923 1750.78461538 917 1812 c 1,73,-1
 982 1812 l 1,51,52
EndSplineSet
EndChar

StartChar: Adieresis
Encoding: 196 196 134
Width: 1254
GlyphClass: 2
Flags: MW
LayerCount: 2
Fore
SplineSet
711 451 m 1,0,-1
 407 451 l 1,1,-1
 432 543 l 1,2,-1
 681 543 l 1,3,-1
 711 451 l 1,0,-1
513 1003 m 1,4,-1
 278 301 l 1,5,6
 247 212 247 212 248 167.5 c 128,-1,7
 249 123 249 123 262 109 c 128,-1,8
 275 95 275 95 296 89 c 128,-1,9
 317 83 317 83 344 79 c 128,-1,10
 371 75 371 75 399 61 c 1,11,-1
 399 0 l 1,12,-1
 -36 0 l 1,13,-1
 -36 61 l 1,14,15
 -15 73 -15 73 8 80 c 128,-1,16
 31 87 31 87 51.5 96 c 0,17,18
 100.73326572 117.614604462 100.73326572 117.614604462 115 162 c 2,19,-1
 453 1165 l 1,20,-1
 513 1003 l 1,4,-1
488 1267 m 1,21,22
 434.153846154 1285.84615385 434.153846154 1285.84615385 415 1305 c 1,23,24
 417 1326 417 1326 420.5 1344.5 c 128,-1,25
 424 1363 424 1363 427.5 1381.5 c 128,-1,26
 431 1400 431 1400 435 1412 c 1,27,28
 625 1452 625 1452 655 1452 c 1,29,30
 676.048387097 1435.16129032 676.048387097 1435.16129032 694 1389 c 1,31,-1
 1133 178 l 2,32,33
 1154.59322034 118.203389831 1154.59322034 118.203389831 1199 96 c 0,34,35
 1219 86 1219 86 1241.5 79.5 c 128,-1,36
 1264 73 1264 73 1289 61 c 1,37,-1
 1289 0 l 1,38,-1
 748 0 l 1,39,-1
 748 61 l 1,40,41
 771 72 771 72 796 76.5 c 128,-1,42
 821 81 821 81 841.5 86 c 0,43,44
 888 97.3414634146 888 97.3414634146 888 131 c 0,45,46
 888 161.470588235 888 161.470588235 840 293.235294118 c 128,-1,47
 792 425 792 425 755 528.5 c 0,48,49
 651.950413223 816.760330579 651.950413223 816.760330579 553 1106 c 1,50,-1
 488 1267 l 1,21,22
332 1752.5 m 128,-1,52
 366 1781 366 1781 403.5 1781 c 128,-1,53
 441 1781 441 1781 463 1773.5 c 128,-1,54
 485 1766 485 1766 501 1752.5 c 0,55,56
 536 1722.96875 536 1722.96875 536 1689.484375 c 128,-1,57
 536 1656 536 1656 526.5 1637 c 128,-1,58
 517 1618 517 1618 501 1604.5 c 0,59,60
 467.222222222 1576 467.222222222 1576 416.611111111 1576 c 128,-1,61
 366 1576 366 1576 332 1604 c 128,-1,62
 298 1632 298 1632 298 1678 c 128,-1,51
 298 1724 298 1724 332 1752.5 c 128,-1,52
752 1752.5 m 128,-1,64
 786 1781 786 1781 836.5 1781 c 128,-1,65
 887 1781 887 1781 921 1752.5 c 128,-1,66
 955 1724 955 1724 955 1678 c 128,-1,67
 955 1632 955 1632 921 1604 c 128,-1,68
 887 1576 887 1576 836.5 1576 c 128,-1,69
 786 1576 786 1576 752 1604 c 128,-1,70
 718 1632 718 1632 718 1678 c 128,-1,63
 718 1724 718 1724 752 1752.5 c 128,-1,64
EndSplineSet
EndChar

StartChar: Aring
Encoding: 197 197 135
Width: 1254
GlyphClass: 2
Flags: MW
LayerCount: 2
Fore
SplineSet
711 451 m 1,0,-1
 407 451 l 1,1,-1
 432 543 l 1,2,-1
 681 543 l 1,3,-1
 711 451 l 1,0,-1
513 1003 m 1,4,-1
 278 301 l 1,5,6
 247 212 247 212 248 167.5 c 128,-1,7
 249 123 249 123 262 109 c 128,-1,8
 275 95 275 95 296 89 c 128,-1,9
 317 83 317 83 344 79 c 128,-1,10
 371 75 371 75 399 61 c 1,11,-1
 399 0 l 1,12,-1
 -36 0 l 1,13,-1
 -36 61 l 1,14,15
 -15 73 -15 73 8 80 c 128,-1,16
 31 87 31 87 51.5 96 c 0,17,18
 100.73326572 117.614604462 100.73326572 117.614604462 115 162 c 2,19,-1
 453 1165 l 1,20,-1
 513 1003 l 1,4,-1
488 1267 m 1,21,22
 434.153846154 1285.84615385 434.153846154 1285.84615385 415 1305 c 1,23,24
 417 1326 417 1326 420.5 1344.5 c 128,-1,25
 424 1363 424 1363 427.5 1381.5 c 128,-1,26
 431 1400 431 1400 435 1412 c 1,27,28
 625 1452 625 1452 655 1452 c 1,29,30
 676.048387097 1435.16129032 676.048387097 1435.16129032 694 1389 c 1,31,-1
 1133 178 l 2,32,33
 1154.59322034 118.203389831 1154.59322034 118.203389831 1199 96 c 0,34,35
 1219 86 1219 86 1241.5 79.5 c 128,-1,36
 1264 73 1264 73 1289 61 c 1,37,-1
 1289 0 l 1,38,-1
 748 0 l 1,39,-1
 748 61 l 1,40,41
 771 72 771 72 796 76.5 c 128,-1,42
 821 81 821 81 841.5 86 c 0,43,44
 888 97.3414634146 888 97.3414634146 888 131 c 0,45,46
 888 161.470588235 888 161.470588235 840 293.235294118 c 128,-1,47
 792 425 792 425 755 528.5 c 0,48,49
 651.950413223 816.760330579 651.950413223 816.760330579 553 1106 c 1,50,-1
 488 1267 l 1,21,22
386 1763 m 256,51,52
 386 1850.26153846 386 1850.26153846 456.5 1911 c 0,53,54
 524.982142857 1970 524.982142857 1970 627 1970 c 256,55,56
 728.017857143 1970 728.017857143 1970 796.5 1911 c 0,57,58
 867 1850.26153846 867 1850.26153846 867 1763 c 256,59,60
 867 1674.73846154 867 1674.73846154 796.5 1614 c 0,61,62
 726.857142857 1554 726.857142857 1554 627 1554 c 256,63,64
 526.142857143 1554 526.142857143 1554 456.5 1614 c 0,65,66
 386 1674.73846154 386 1674.73846154 386 1763 c 256,51,52
473 1762.5 m 0,67,68
 473 1734 473 1734 485 1709.5 c 128,-1,69
 497 1685 497 1685 517.5 1666 c 0,70,71
 560.657894737 1626 560.657894737 1626 627 1626 c 256,72,73
 729.306122449 1626 729.306122449 1626 768.5 1709.5 c 0,74,75
 780 1734 780 1734 780 1762.5 c 128,-1,76
 780 1791 780 1791 768.5 1816 c 128,-1,77
 757 1841 757 1841 736.5 1859 c 0,78,79
 692.083333333 1898 692.083333333 1898 627 1898 c 256,80,81
 561.916666667 1898 561.916666667 1898 517.5 1859 c 128,-1,82
 473 1819.92682927 473 1819.92682927 473 1762.5 c 0,67,68
EndSplineSet
EndChar

StartChar: AE
Encoding: 198 198 136
Width: 1935
GlyphClass: 2
Flags: MW
LayerCount: 2
Fore
SplineSet
886 1317 m 1,0,1
 864 1329 864 1329 836 1329 c 1,2,3
 818.142857143 1318.28571429 818.142857143 1318.28571429 793 1268 c 1,4,-1
 473 659 l 1,5,6
 282.415050427 321.505818464 282.415050427 321.505818464 251.207525213 246.752909232 c 128,-1,7
 220 172 220 172 220 146.5 c 128,-1,8
 220 121 220 121 233.5 109 c 128,-1,9
 247 97 247 97 268 90.5 c 128,-1,10
 289 84 289 84 315 79 c 128,-1,11
 341 74 341 74 367 61 c 1,12,-1
 367 0 l 1,13,-1
 -64 0 l 1,14,-1
 -64 61 l 1,15,16
 -42 76 -42 76 -21.5 83.5 c 128,-1,17
 -1 91 -1 91 19 102 c 0,18,19
 63.3270868825 126.379897785 63.3270868825 126.379897785 102 197 c 2,20,-1
 636 1182 l 2,21,22
 677 1256.3125 677 1256.3125 677 1282 c 256,23,24
 677 1314.43902439 677 1314.43902439 629.5 1329.5 c 0,25,26
 609 1336 609 1336 583.5 1342 c 128,-1,27
 558 1348 558 1348 534 1358 c 1,28,-1
 534 1421 l 1,29,-1
 1135 1421 l 1,30,-1
 1135 168 l 2,31,32
 1135 90.5161290323 1135 90.5161290323 1236 84 c 0,33,34
 1267 82 1267 82 1331.5 82 c 128,-1,35
 1396 82 1396 82 1462 94.5 c 128,-1,36
 1528 107 1528 107 1575 135.5 c 0,37,38
 1662.59253618 188.614623001 1662.59253618 188.614623001 1703 326 c 0,39,40
 1712 357 1712 357 1718.5 382.5 c 128,-1,41
 1725 408 1725 408 1732.5 429 c 0,42,43
 1748.72483221 474.429530201 1748.72483221 474.429530201 1776 500 c 1,44,-1
 1840 500 l 1,45,-1
 1840 0 l 1,46,-1
 736 0 l 1,47,-1
 736 59 l 1,48,49
 757 71 757 71 776 76 c 128,-1,50
 795 81 795 81 811.5 85.5 c 128,-1,51
 828 90 828 90 842 96.5 c 128,-1,52
 856 103 856 103 865.5 117.5 c 0,53,54
 886 148.789473684 886 148.789473684 886 227 c 2,55,-1
 886 1317 l 1,0,1
1327.16666667 1339 m 0,56,57
 1248.33333333 1339 1248.33333333 1339 1219 1335 c 1,58,-1
 1219 1421 l 1,59,-1
 1590 1421 l 2,60,61
 1644 1421 1644 1421 1794 1436 c 1,62,-1
 1794 946 l 1,63,-1
 1726 946 l 1,64,65
 1694 975 1694 975 1679.5 1021.5 c 128,-1,66
 1665 1068 1665 1068 1649 1124 c 0,67,68
 1612.99648675 1242.59980837 1612.99648675 1242.59980837 1552 1287.5 c 0,69,70
 1482.03773585 1339 1482.03773585 1339 1327.16666667 1339 c 0,56,57
1216 795 m 1,71,-1
 1372 795 l 1,72,-1
 1372 659 l 1,73,-1
 1216 659 l 1,74,-1
 1216 795 l 1,71,-1
803 659 m 1,75,-1
 562 659 l 1,76,-1
 610 795 l 1,77,-1
 803 748 l 1,78,-1
 803 659 l 1,75,-1
EndSplineSet
EndChar

StartChar: Ccedilla
Encoding: 199 199 137
Width: 1321
GlyphClass: 2
Flags: MW
LayerCount: 2
Fore
SplineSet
1047 1352 m 0,0,1
 1082.68 1352 1082.68 1352 1106 1405 c 1,2,-1
 1194 1405 l 1,3,-1
 1194 905 l 1,4,-1
 1126 905 l 1,5,6
 1086.30496454 943.326241135 1086.30496454 943.326241135 1055.15248227 1029.66312057 c 128,-1,7
 1024 1116 1024 1116 1004 1166 c 128,-1,8
 984 1216 984 1216 954.5 1257.5 c 0,9,10
 888.004244997 1351.04487568 888.004244997 1351.04487568 771 1367 c 1,11,-1
 771 1449 l 1,12,13
 896.636363636 1437.03463203 896.636363636 1437.03463203 1013 1365 c 0,14,15
 1034 1352 1034 1352 1047 1352 c 0,0,1
771 65 m 1,16,17
 991.368421053 65 991.368421053 65 1084 285 c 0,18,19
 1116 361 1116 361 1130 467 c 1,20,-1
 1225 444 l 1,21,22
 1194 211 1194 211 1082 95.5 c 128,-1,23
 970 -20 970 -20 771 -30 c 1,24,-1
 771 65 l 1,16,17
688 -30 m 1,25,26
 417.174649604 -15.8524070689 417.174649604 -15.8524070689 252.5 183 c 0,27,28
 86 384.056603774 86 384.056603774 86 711 c 0,29,30
 86 1029.2173913 86 1029.2173913 257.5 1238 c 0,31,32
 426.628409091 1443.89545455 426.628409091 1443.89545455 688 1452 c 1,33,-1
 688 1368 l 1,34,35
 466.633802817 1346.57746479 466.633802817 1346.57746479 394 1013 c 0,36,37
 367 889 367 889 367 715.5 c 128,-1,38
 367 542 367 542 394 427 c 128,-1,39
 421 312 421 312 465.5 237 c 0,40,41
 547.905004859 98.1151603499 547.905004859 98.1151603499 688 71 c 1,42,-1
 688 -30 l 1,25,26
627 -203 m 0,43,44
 583 -203 583 -203 555 -217 c 1,45,-1
 519 -205 l 1,46,-1
 623 0 l 1,47,-1
 702 0 l 1,48,-1
 634 -137 l 1,49,50
 713.5 -113.617647059 713.5 -113.617647059 793 -137 c 0,51,52
 862.461640212 -157.42989418 862.461640212 -157.42989418 891.5 -210.5 c 0,53,54
 906 -237 906 -237 906 -272.5 c 128,-1,55
 906 -308 906 -308 887 -340 c 128,-1,56
 868 -372 868 -372 832 -395 c 0,57,58
 755.304347826 -444 755.304347826 -444 627 -444 c 0,59,60
 510.333333333 -444 510.333333333 -444 414 -410 c 1,61,-1
 450 -348 l 1,62,63
 514.384615385 -375 514.384615385 -375 591.192307692 -375 c 128,-1,64
 668 -375 668 -375 704 -349.5 c 128,-1,65
 740 -324 740 -324 740 -287 c 0,66,67
 740 -203 740 -203 627 -203 c 0,43,44
EndSplineSet
EndChar

StartChar: Egrave
Encoding: 200 200 138
Width: 1253
GlyphClass: 2
Flags: MW
LayerCount: 2
Fore
SplineSet
84 0 m 1,0,-1
 84 59 l 1,1,2
 108.268181818 74.3272727273 108.268181818 74.3272727273 138.634090909 82.1636363636 c 128,-1,3
 169 90 169 90 182 97 c 128,-1,4
 195 104 195 104 204.5 119 c 0,5,6
 224 149.789473684 224 149.789473684 224 233 c 2,7,-1
 224 1186 l 2,8,9
 224 1270.21052632 224 1270.21052632 209.5 1293.10526316 c 128,-1,10
 195 1316 195 1316 182.5 1322.5 c 128,-1,11
 170 1329 170 1329 154.5 1333.5 c 0,12,13
 104.392241379 1348.04741379 104.392241379 1348.04741379 84 1362 c 1,14,-1
 84 1421 l 1,15,-1
 473 1421 l 1,16,-1
 473 0 l 1,17,-1
 84 0 l 1,0,-1
556 82 m 1,18,-1
 575 81 l 1,19,20
 800.37037037 81 800.37037037 81 893.5 128 c 0,21,22
 992.557683936 177.991728341 992.557683936 177.991728341 1034 326 c 0,23,24
 1043 357 1043 357 1049.5 382.5 c 128,-1,25
 1056 408 1056 408 1063.5 429 c 0,26,27
 1079.33333333 473.333333333 1079.33333333 473.333333333 1106 500 c 1,28,-1
 1171 500 l 1,29,-1
 1171 0 l 1,30,-1
 556 0 l 1,31,-1
 556 82 l 1,18,-1
926 1421 m 2,32,33
 988 1421 988 1421 1126 1436 c 1,34,-1
 1126 946 l 1,35,-1
 1056 946 l 1,36,37
 1021 991 1021 991 1002 1047 c 128,-1,38
 983 1103 983 1103 963 1156 c 128,-1,39
 943 1209 943 1209 923 1241 c 128,-1,40
 903 1273 903 1273 873 1295 c 0,41,42
 813 1339 813 1339 710.5 1339 c 128,-1,43
 608 1339 608 1339 556 1324 c 1,44,-1
 556 1421 l 1,45,-1
 926 1421 l 2,32,33
556 846 m 1,46,-1
 848 846 l 1,47,-1
 848 658 l 1,48,-1
 556 658 l 1,49,-1
 556 846 l 1,46,-1
780 1542 m 1,50,-1
 441 1742 l 2,51,52
 377 1779.16129032 377 1779.16129032 377 1822 c 0,53,54
 377 1865.10344828 377 1865.10344828 422.5 1885.5 c 0,55,56
 437 1892 437 1892 456 1892 c 128,-1,57
 475 1892 475 1892 491 1885.5 c 128,-1,58
 507 1879 507 1879 520.5 1868.5 c 0,59,60
 547.626168224 1847.40186916 547.626168224 1847.40186916 556 1816 c 1,61,-1
 875 1542 l 1,62,-1
 780 1542 l 1,50,-1
EndSplineSet
EndChar

StartChar: Eacute
Encoding: 201 201 139
Width: 1253
GlyphClass: 2
Flags: MW
LayerCount: 2
Fore
SplineSet
84 0 m 1,0,-1
 84 59 l 1,1,2
 108.268181818 74.3272727273 108.268181818 74.3272727273 138.634090909 82.1636363636 c 128,-1,3
 169 90 169 90 182 97 c 128,-1,4
 195 104 195 104 204.5 119 c 0,5,6
 224 149.789473684 224 149.789473684 224 233 c 2,7,-1
 224 1186 l 2,8,9
 224 1270.21052632 224 1270.21052632 209.5 1293.10526316 c 128,-1,10
 195 1316 195 1316 182.5 1322.5 c 128,-1,11
 170 1329 170 1329 154.5 1333.5 c 0,12,13
 104.392241379 1348.04741379 104.392241379 1348.04741379 84 1362 c 1,14,-1
 84 1421 l 1,15,-1
 473 1421 l 1,16,-1
 473 0 l 1,17,-1
 84 0 l 1,0,-1
556 82 m 1,18,-1
 575 81 l 1,19,20
 800.37037037 81 800.37037037 81 893.5 128 c 0,21,22
 992.557683936 177.991728341 992.557683936 177.991728341 1034 326 c 0,23,24
 1043 357 1043 357 1049.5 382.5 c 128,-1,25
 1056 408 1056 408 1063.5 429 c 0,26,27
 1079.33333333 473.333333333 1079.33333333 473.333333333 1106 500 c 1,28,-1
 1171 500 l 1,29,-1
 1171 0 l 1,30,-1
 556 0 l 1,31,-1
 556 82 l 1,18,-1
926 1421 m 2,32,33
 988 1421 988 1421 1126 1436 c 1,34,-1
 1126 946 l 1,35,-1
 1056 946 l 1,36,37
 1021 991 1021 991 1002 1047 c 128,-1,38
 983 1103 983 1103 963 1156 c 128,-1,39
 943 1209 943 1209 923 1241 c 128,-1,40
 903 1273 903 1273 873 1295 c 0,41,42
 813 1339 813 1339 710.5 1339 c 128,-1,43
 608 1339 608 1339 556 1324 c 1,44,-1
 556 1421 l 1,45,-1
 926 1421 l 2,32,33
556 846 m 1,46,-1
 848 846 l 1,47,-1
 848 658 l 1,48,-1
 556 658 l 1,49,-1
 556 846 l 1,46,-1
377 1542 m 1,50,-1
 664 1816 l 2,51,52
 696 1846 696 1846 727.5 1869 c 128,-1,53
 759 1892 759 1892 786.5 1892 c 128,-1,54
 814 1892 814 1892 829.5 1885.5 c 128,-1,55
 845 1879 845 1879 855 1868.5 c 0,56,57
 876 1846.45 876 1846.45 876 1821.225 c 0,58,59
 876 1780.4 876 1780.4 812 1742 c 2,60,-1
 472 1542 l 1,61,-1
 377 1542 l 1,50,-1
EndSplineSet
EndChar

StartChar: Ecircumflex
Encoding: 202 202 140
Width: 1253
GlyphClass: 2
Flags: MW
LayerCount: 2
Fore
SplineSet
84 0 m 1,0,-1
 84 59 l 1,1,2
 108.268181818 74.3272727273 108.268181818 74.3272727273 138.634090909 82.1636363636 c 128,-1,3
 169 90 169 90 182 97 c 128,-1,4
 195 104 195 104 204.5 119 c 0,5,6
 224 149.789473684 224 149.789473684 224 233 c 2,7,-1
 224 1186 l 2,8,9
 224 1270.21052632 224 1270.21052632 209.5 1293.10526316 c 128,-1,10
 195 1316 195 1316 182.5 1322.5 c 128,-1,11
 170 1329 170 1329 154.5 1333.5 c 0,12,13
 104.392241379 1348.04741379 104.392241379 1348.04741379 84 1362 c 1,14,-1
 84 1421 l 1,15,-1
 473 1421 l 1,16,-1
 473 0 l 1,17,-1
 84 0 l 1,0,-1
556 82 m 1,18,-1
 575 81 l 1,19,20
 800.37037037 81 800.37037037 81 893.5 128 c 0,21,22
 992.557683936 177.991728341 992.557683936 177.991728341 1034 326 c 0,23,24
 1043 357 1043 357 1049.5 382.5 c 128,-1,25
 1056 408 1056 408 1063.5 429 c 0,26,27
 1079.33333333 473.333333333 1079.33333333 473.333333333 1106 500 c 1,28,-1
 1171 500 l 1,29,-1
 1171 0 l 1,30,-1
 556 0 l 1,31,-1
 556 82 l 1,18,-1
926 1421 m 2,32,33
 988 1421 988 1421 1126 1436 c 1,34,-1
 1126 946 l 1,35,-1
 1056 946 l 1,36,37
 1021 991 1021 991 1002 1047 c 128,-1,38
 983 1103 983 1103 963 1156 c 128,-1,39
 943 1209 943 1209 923 1241 c 128,-1,40
 903 1273 903 1273 873 1295 c 0,41,42
 813 1339 813 1339 710.5 1339 c 128,-1,43
 608 1339 608 1339 556 1324 c 1,44,-1
 556 1421 l 1,45,-1
 926 1421 l 2,32,33
556 846 m 1,46,-1
 848 846 l 1,47,-1
 848 658 l 1,48,-1
 556 658 l 1,49,-1
 556 846 l 1,46,-1
700 1886 m 1,50,-1
 966 1542 l 1,51,-1
 879 1542 l 1,52,-1
 626 1769 l 1,53,-1
 372 1542 l 1,54,-1
 287 1542 l 1,55,-1
 550 1886 l 1,56,-1
 700 1886 l 1,50,-1
EndSplineSet
EndChar

